%TF.GenerationSoftware,KiCad,Pcbnew,9.0.6*%
%TF.CreationDate,2025-12-07T14:53:16-05:00*%
%TF.ProjectId,Phone,50686f6e-652e-46b6-9963-61645f706362,rev?*%
%TF.SameCoordinates,Original*%
%TF.FileFunction,Legend,Top*%
%TF.FilePolarity,Positive*%
%FSLAX46Y46*%
G04 Gerber Fmt 4.6, Leading zero omitted, Abs format (unit mm)*
G04 Created by KiCad (PCBNEW 9.0.6) date 2025-12-07 14:53:16*
%MOMM*%
%LPD*%
G01*
G04 APERTURE LIST*
G04 Aperture macros list*
%AMRoundRect*
0 Rectangle with rounded corners*
0 $1 Rounding radius*
0 $2 $3 $4 $5 $6 $7 $8 $9 X,Y pos of 4 corners*
0 Add a 4 corners polygon primitive as box body*
4,1,4,$2,$3,$4,$5,$6,$7,$8,$9,$2,$3,0*
0 Add four circle primitives for the rounded corners*
1,1,$1+$1,$2,$3*
1,1,$1+$1,$4,$5*
1,1,$1+$1,$6,$7*
1,1,$1+$1,$8,$9*
0 Add four rect primitives between the rounded corners*
20,1,$1+$1,$2,$3,$4,$5,0*
20,1,$1+$1,$4,$5,$6,$7,0*
20,1,$1+$1,$6,$7,$8,$9,0*
20,1,$1+$1,$8,$9,$2,$3,0*%
G04 Aperture macros list end*
%ADD10C,0.150000*%
%ADD11C,0.125000*%
%ADD12C,0.120000*%
%ADD13C,0.100000*%
%ADD14R,0.200000X0.700000*%
%ADD15RoundRect,0.075000X-0.350000X-0.075000X0.350000X-0.075000X0.350000X0.075000X-0.350000X0.075000X0*%
%ADD16RoundRect,0.075000X0.075000X-0.350000X0.075000X0.350000X-0.075000X0.350000X-0.075000X-0.350000X0*%
%ADD17RoundRect,0.250000X0.475000X-0.250000X0.475000X0.250000X-0.475000X0.250000X-0.475000X-0.250000X0*%
%ADD18RoundRect,0.100000X0.100000X-0.130000X0.100000X0.130000X-0.100000X0.130000X-0.100000X-0.130000X0*%
%ADD19RoundRect,0.100000X-0.130000X-0.100000X0.130000X-0.100000X0.130000X0.100000X-0.130000X0.100000X0*%
%ADD20RoundRect,0.150000X-0.150000X0.512500X-0.150000X-0.512500X0.150000X-0.512500X0.150000X0.512500X0*%
%ADD21RoundRect,0.150000X-0.512500X-0.150000X0.512500X-0.150000X0.512500X0.150000X-0.512500X0.150000X0*%
%ADD22C,6.100000*%
%ADD23R,1.300000X0.300000*%
%ADD24R,2.200000X1.800000*%
%ADD25R,0.850000X0.850000*%
%ADD26C,0.850000*%
%ADD27RoundRect,0.135000X0.135000X0.185000X-0.135000X0.185000X-0.135000X-0.185000X0.135000X-0.185000X0*%
%ADD28RoundRect,0.062500X-0.062500X0.375000X-0.062500X-0.375000X0.062500X-0.375000X0.062500X0.375000X0*%
%ADD29RoundRect,0.062500X-0.375000X0.062500X-0.375000X-0.062500X0.375000X-0.062500X0.375000X0.062500X0*%
%ADD30R,1.600000X1.600000*%
%ADD31RoundRect,0.250000X-0.625000X0.350000X-0.625000X-0.350000X0.625000X-0.350000X0.625000X0.350000X0*%
%ADD32O,1.750000X1.200000*%
%ADD33RoundRect,0.135000X-0.185000X0.135000X-0.185000X-0.135000X0.185000X-0.135000X0.185000X0.135000X0*%
%ADD34RoundRect,0.135000X0.185000X-0.135000X0.185000X0.135000X-0.185000X0.135000X-0.185000X-0.135000X0*%
%ADD35RoundRect,0.100000X0.130000X0.100000X-0.130000X0.100000X-0.130000X-0.100000X0.130000X-0.100000X0*%
G04 APERTURE END LIST*
D10*
X74466779Y-149588866D02*
X75228684Y-149588866D01*
X74847731Y-149969819D02*
X74847731Y-149207914D01*
D11*
X23839378Y-118332309D02*
X23601283Y-118332309D01*
X23601283Y-118332309D02*
X23577474Y-118570404D01*
X23577474Y-118570404D02*
X23601283Y-118546595D01*
X23601283Y-118546595D02*
X23648902Y-118522785D01*
X23648902Y-118522785D02*
X23767950Y-118522785D01*
X23767950Y-118522785D02*
X23815569Y-118546595D01*
X23815569Y-118546595D02*
X23839378Y-118570404D01*
X23839378Y-118570404D02*
X23863188Y-118618023D01*
X23863188Y-118618023D02*
X23863188Y-118737071D01*
X23863188Y-118737071D02*
X23839378Y-118784690D01*
X23839378Y-118784690D02*
X23815569Y-118808500D01*
X23815569Y-118808500D02*
X23767950Y-118832309D01*
X23767950Y-118832309D02*
X23648902Y-118832309D01*
X23648902Y-118832309D02*
X23601283Y-118808500D01*
X23601283Y-118808500D02*
X23577474Y-118784690D01*
X24006045Y-118332309D02*
X24172711Y-118832309D01*
X24172711Y-118832309D02*
X24339378Y-118332309D01*
X23863188Y-117256119D02*
X23815569Y-117232309D01*
X23815569Y-117232309D02*
X23744140Y-117232309D01*
X23744140Y-117232309D02*
X23672712Y-117256119D01*
X23672712Y-117256119D02*
X23625093Y-117303738D01*
X23625093Y-117303738D02*
X23601283Y-117351357D01*
X23601283Y-117351357D02*
X23577474Y-117446595D01*
X23577474Y-117446595D02*
X23577474Y-117518023D01*
X23577474Y-117518023D02*
X23601283Y-117613261D01*
X23601283Y-117613261D02*
X23625093Y-117660880D01*
X23625093Y-117660880D02*
X23672712Y-117708500D01*
X23672712Y-117708500D02*
X23744140Y-117732309D01*
X23744140Y-117732309D02*
X23791759Y-117732309D01*
X23791759Y-117732309D02*
X23863188Y-117708500D01*
X23863188Y-117708500D02*
X23886997Y-117684690D01*
X23886997Y-117684690D02*
X23886997Y-117518023D01*
X23886997Y-117518023D02*
X23791759Y-117518023D01*
X24101283Y-117732309D02*
X24101283Y-117232309D01*
X24101283Y-117232309D02*
X24386997Y-117732309D01*
X24386997Y-117732309D02*
X24386997Y-117232309D01*
X24625093Y-117732309D02*
X24625093Y-117232309D01*
X24625093Y-117232309D02*
X24744141Y-117232309D01*
X24744141Y-117232309D02*
X24815569Y-117256119D01*
X24815569Y-117256119D02*
X24863188Y-117303738D01*
X24863188Y-117303738D02*
X24886998Y-117351357D01*
X24886998Y-117351357D02*
X24910807Y-117446595D01*
X24910807Y-117446595D02*
X24910807Y-117518023D01*
X24910807Y-117518023D02*
X24886998Y-117613261D01*
X24886998Y-117613261D02*
X24863188Y-117660880D01*
X24863188Y-117660880D02*
X24815569Y-117708500D01*
X24815569Y-117708500D02*
X24744141Y-117732309D01*
X24744141Y-117732309D02*
X24625093Y-117732309D01*
D10*
X74466779Y-151708866D02*
X75228684Y-151708866D01*
X43609726Y-148171904D02*
X44637821Y-148171904D01*
X44637821Y-148171904D02*
X44758773Y-148111427D01*
X44758773Y-148111427D02*
X44819250Y-148050951D01*
X44819250Y-148050951D02*
X44879726Y-147929999D01*
X44879726Y-147929999D02*
X44879726Y-147688094D01*
X44879726Y-147688094D02*
X44819250Y-147567142D01*
X44819250Y-147567142D02*
X44758773Y-147506665D01*
X44758773Y-147506665D02*
X44637821Y-147446189D01*
X44637821Y-147446189D02*
X43609726Y-147446189D01*
X44879726Y-146176189D02*
X44879726Y-146901904D01*
X44879726Y-146539047D02*
X43609726Y-146539047D01*
X43609726Y-146539047D02*
X43791154Y-146659999D01*
X43791154Y-146659999D02*
X43912107Y-146780951D01*
X43912107Y-146780951D02*
X43972583Y-146901904D01*
X44516869Y-145692380D02*
X44516869Y-145087618D01*
X44879726Y-145813332D02*
X43609726Y-145389999D01*
X43609726Y-145389999D02*
X44879726Y-144966665D01*
X78468095Y-156279819D02*
X78468095Y-157089342D01*
X78468095Y-157089342D02*
X78515714Y-157184580D01*
X78515714Y-157184580D02*
X78563333Y-157232200D01*
X78563333Y-157232200D02*
X78658571Y-157279819D01*
X78658571Y-157279819D02*
X78849047Y-157279819D01*
X78849047Y-157279819D02*
X78944285Y-157232200D01*
X78944285Y-157232200D02*
X78991904Y-157184580D01*
X78991904Y-157184580D02*
X79039523Y-157089342D01*
X79039523Y-157089342D02*
X79039523Y-156279819D01*
X79944285Y-156613152D02*
X79944285Y-157279819D01*
X79706190Y-156232200D02*
X79468095Y-156946485D01*
X79468095Y-156946485D02*
X80087142Y-156946485D01*
X80569580Y-165746666D02*
X80617200Y-165794285D01*
X80617200Y-165794285D02*
X80664819Y-165937142D01*
X80664819Y-165937142D02*
X80664819Y-166032380D01*
X80664819Y-166032380D02*
X80617200Y-166175237D01*
X80617200Y-166175237D02*
X80521961Y-166270475D01*
X80521961Y-166270475D02*
X80426723Y-166318094D01*
X80426723Y-166318094D02*
X80236247Y-166365713D01*
X80236247Y-166365713D02*
X80093390Y-166365713D01*
X80093390Y-166365713D02*
X79902914Y-166318094D01*
X79902914Y-166318094D02*
X79807676Y-166270475D01*
X79807676Y-166270475D02*
X79712438Y-166175237D01*
X79712438Y-166175237D02*
X79664819Y-166032380D01*
X79664819Y-166032380D02*
X79664819Y-165937142D01*
X79664819Y-165937142D02*
X79712438Y-165794285D01*
X79712438Y-165794285D02*
X79760057Y-165746666D01*
X79664819Y-164841904D02*
X79664819Y-165318094D01*
X79664819Y-165318094D02*
X80141009Y-165365713D01*
X80141009Y-165365713D02*
X80093390Y-165318094D01*
X80093390Y-165318094D02*
X80045771Y-165222856D01*
X80045771Y-165222856D02*
X80045771Y-164984761D01*
X80045771Y-164984761D02*
X80093390Y-164889523D01*
X80093390Y-164889523D02*
X80141009Y-164841904D01*
X80141009Y-164841904D02*
X80236247Y-164794285D01*
X80236247Y-164794285D02*
X80474342Y-164794285D01*
X80474342Y-164794285D02*
X80569580Y-164841904D01*
X80569580Y-164841904D02*
X80617200Y-164889523D01*
X80617200Y-164889523D02*
X80664819Y-164984761D01*
X80664819Y-164984761D02*
X80664819Y-165222856D01*
X80664819Y-165222856D02*
X80617200Y-165318094D01*
X80617200Y-165318094D02*
X80569580Y-165365713D01*
X83574819Y-156316666D02*
X83098628Y-156649999D01*
X83574819Y-156888094D02*
X82574819Y-156888094D01*
X82574819Y-156888094D02*
X82574819Y-156507142D01*
X82574819Y-156507142D02*
X82622438Y-156411904D01*
X82622438Y-156411904D02*
X82670057Y-156364285D01*
X82670057Y-156364285D02*
X82765295Y-156316666D01*
X82765295Y-156316666D02*
X82908152Y-156316666D01*
X82908152Y-156316666D02*
X83003390Y-156364285D01*
X83003390Y-156364285D02*
X83051009Y-156411904D01*
X83051009Y-156411904D02*
X83098628Y-156507142D01*
X83098628Y-156507142D02*
X83098628Y-156888094D01*
X82574819Y-155983332D02*
X82574819Y-155316666D01*
X82574819Y-155316666D02*
X83574819Y-155745237D01*
X80288333Y-156169580D02*
X80240714Y-156217200D01*
X80240714Y-156217200D02*
X80097857Y-156264819D01*
X80097857Y-156264819D02*
X80002619Y-156264819D01*
X80002619Y-156264819D02*
X79859762Y-156217200D01*
X79859762Y-156217200D02*
X79764524Y-156121961D01*
X79764524Y-156121961D02*
X79716905Y-156026723D01*
X79716905Y-156026723D02*
X79669286Y-155836247D01*
X79669286Y-155836247D02*
X79669286Y-155693390D01*
X79669286Y-155693390D02*
X79716905Y-155502914D01*
X79716905Y-155502914D02*
X79764524Y-155407676D01*
X79764524Y-155407676D02*
X79859762Y-155312438D01*
X79859762Y-155312438D02*
X80002619Y-155264819D01*
X80002619Y-155264819D02*
X80097857Y-155264819D01*
X80097857Y-155264819D02*
X80240714Y-155312438D01*
X80240714Y-155312438D02*
X80288333Y-155360057D01*
X80669286Y-155360057D02*
X80716905Y-155312438D01*
X80716905Y-155312438D02*
X80812143Y-155264819D01*
X80812143Y-155264819D02*
X81050238Y-155264819D01*
X81050238Y-155264819D02*
X81145476Y-155312438D01*
X81145476Y-155312438D02*
X81193095Y-155360057D01*
X81193095Y-155360057D02*
X81240714Y-155455295D01*
X81240714Y-155455295D02*
X81240714Y-155550533D01*
X81240714Y-155550533D02*
X81193095Y-155693390D01*
X81193095Y-155693390D02*
X80621667Y-156264819D01*
X80621667Y-156264819D02*
X81240714Y-156264819D01*
X78804819Y-167648094D02*
X79614342Y-167648094D01*
X79614342Y-167648094D02*
X79709580Y-167600475D01*
X79709580Y-167600475D02*
X79757200Y-167552856D01*
X79757200Y-167552856D02*
X79804819Y-167457618D01*
X79804819Y-167457618D02*
X79804819Y-167267142D01*
X79804819Y-167267142D02*
X79757200Y-167171904D01*
X79757200Y-167171904D02*
X79709580Y-167124285D01*
X79709580Y-167124285D02*
X79614342Y-167076666D01*
X79614342Y-167076666D02*
X78804819Y-167076666D01*
X79804819Y-166076666D02*
X79804819Y-166648094D01*
X79804819Y-166362380D02*
X78804819Y-166362380D01*
X78804819Y-166362380D02*
X78947676Y-166457618D01*
X78947676Y-166457618D02*
X79042914Y-166552856D01*
X79042914Y-166552856D02*
X79090533Y-166648094D01*
X79233390Y-165505237D02*
X79185771Y-165600475D01*
X79185771Y-165600475D02*
X79138152Y-165648094D01*
X79138152Y-165648094D02*
X79042914Y-165695713D01*
X79042914Y-165695713D02*
X78995295Y-165695713D01*
X78995295Y-165695713D02*
X78900057Y-165648094D01*
X78900057Y-165648094D02*
X78852438Y-165600475D01*
X78852438Y-165600475D02*
X78804819Y-165505237D01*
X78804819Y-165505237D02*
X78804819Y-165314761D01*
X78804819Y-165314761D02*
X78852438Y-165219523D01*
X78852438Y-165219523D02*
X78900057Y-165171904D01*
X78900057Y-165171904D02*
X78995295Y-165124285D01*
X78995295Y-165124285D02*
X79042914Y-165124285D01*
X79042914Y-165124285D02*
X79138152Y-165171904D01*
X79138152Y-165171904D02*
X79185771Y-165219523D01*
X79185771Y-165219523D02*
X79233390Y-165314761D01*
X79233390Y-165314761D02*
X79233390Y-165505237D01*
X79233390Y-165505237D02*
X79281009Y-165600475D01*
X79281009Y-165600475D02*
X79328628Y-165648094D01*
X79328628Y-165648094D02*
X79423866Y-165695713D01*
X79423866Y-165695713D02*
X79614342Y-165695713D01*
X79614342Y-165695713D02*
X79709580Y-165648094D01*
X79709580Y-165648094D02*
X79757200Y-165600475D01*
X79757200Y-165600475D02*
X79804819Y-165505237D01*
X79804819Y-165505237D02*
X79804819Y-165314761D01*
X79804819Y-165314761D02*
X79757200Y-165219523D01*
X79757200Y-165219523D02*
X79709580Y-165171904D01*
X79709580Y-165171904D02*
X79614342Y-165124285D01*
X79614342Y-165124285D02*
X79423866Y-165124285D01*
X79423866Y-165124285D02*
X79328628Y-165171904D01*
X79328628Y-165171904D02*
X79281009Y-165219523D01*
X79281009Y-165219523D02*
X79233390Y-165314761D01*
X76228095Y-141704819D02*
X76228095Y-142514342D01*
X76228095Y-142514342D02*
X76275714Y-142609580D01*
X76275714Y-142609580D02*
X76323333Y-142657200D01*
X76323333Y-142657200D02*
X76418571Y-142704819D01*
X76418571Y-142704819D02*
X76609047Y-142704819D01*
X76609047Y-142704819D02*
X76704285Y-142657200D01*
X76704285Y-142657200D02*
X76751904Y-142609580D01*
X76751904Y-142609580D02*
X76799523Y-142514342D01*
X76799523Y-142514342D02*
X76799523Y-141704819D01*
X77751904Y-141704819D02*
X77275714Y-141704819D01*
X77275714Y-141704819D02*
X77228095Y-142181009D01*
X77228095Y-142181009D02*
X77275714Y-142133390D01*
X77275714Y-142133390D02*
X77370952Y-142085771D01*
X77370952Y-142085771D02*
X77609047Y-142085771D01*
X77609047Y-142085771D02*
X77704285Y-142133390D01*
X77704285Y-142133390D02*
X77751904Y-142181009D01*
X77751904Y-142181009D02*
X77799523Y-142276247D01*
X77799523Y-142276247D02*
X77799523Y-142514342D01*
X77799523Y-142514342D02*
X77751904Y-142609580D01*
X77751904Y-142609580D02*
X77704285Y-142657200D01*
X77704285Y-142657200D02*
X77609047Y-142704819D01*
X77609047Y-142704819D02*
X77370952Y-142704819D01*
X77370952Y-142704819D02*
X77275714Y-142657200D01*
X77275714Y-142657200D02*
X77228095Y-142609580D01*
X79373333Y-162929580D02*
X79325714Y-162977200D01*
X79325714Y-162977200D02*
X79182857Y-163024819D01*
X79182857Y-163024819D02*
X79087619Y-163024819D01*
X79087619Y-163024819D02*
X78944762Y-162977200D01*
X78944762Y-162977200D02*
X78849524Y-162881961D01*
X78849524Y-162881961D02*
X78801905Y-162786723D01*
X78801905Y-162786723D02*
X78754286Y-162596247D01*
X78754286Y-162596247D02*
X78754286Y-162453390D01*
X78754286Y-162453390D02*
X78801905Y-162262914D01*
X78801905Y-162262914D02*
X78849524Y-162167676D01*
X78849524Y-162167676D02*
X78944762Y-162072438D01*
X78944762Y-162072438D02*
X79087619Y-162024819D01*
X79087619Y-162024819D02*
X79182857Y-162024819D01*
X79182857Y-162024819D02*
X79325714Y-162072438D01*
X79325714Y-162072438D02*
X79373333Y-162120057D01*
X79706667Y-162024819D02*
X80325714Y-162024819D01*
X80325714Y-162024819D02*
X79992381Y-162405771D01*
X79992381Y-162405771D02*
X80135238Y-162405771D01*
X80135238Y-162405771D02*
X80230476Y-162453390D01*
X80230476Y-162453390D02*
X80278095Y-162501009D01*
X80278095Y-162501009D02*
X80325714Y-162596247D01*
X80325714Y-162596247D02*
X80325714Y-162834342D01*
X80325714Y-162834342D02*
X80278095Y-162929580D01*
X80278095Y-162929580D02*
X80230476Y-162977200D01*
X80230476Y-162977200D02*
X80135238Y-163024819D01*
X80135238Y-163024819D02*
X79849524Y-163024819D01*
X79849524Y-163024819D02*
X79754286Y-162977200D01*
X79754286Y-162977200D02*
X79706667Y-162929580D01*
X93454819Y-159309523D02*
X94169104Y-159309523D01*
X94169104Y-159309523D02*
X94311961Y-159357142D01*
X94311961Y-159357142D02*
X94407200Y-159452380D01*
X94407200Y-159452380D02*
X94454819Y-159595237D01*
X94454819Y-159595237D02*
X94454819Y-159690475D01*
X94454819Y-158309523D02*
X94454819Y-158880951D01*
X94454819Y-158595237D02*
X93454819Y-158595237D01*
X93454819Y-158595237D02*
X93597676Y-158690475D01*
X93597676Y-158690475D02*
X93692914Y-158785713D01*
X93692914Y-158785713D02*
X93740533Y-158880951D01*
X93454819Y-157404761D02*
X93454819Y-157880951D01*
X93454819Y-157880951D02*
X93931009Y-157928570D01*
X93931009Y-157928570D02*
X93883390Y-157880951D01*
X93883390Y-157880951D02*
X93835771Y-157785713D01*
X93835771Y-157785713D02*
X93835771Y-157547618D01*
X93835771Y-157547618D02*
X93883390Y-157452380D01*
X93883390Y-157452380D02*
X93931009Y-157404761D01*
X93931009Y-157404761D02*
X94026247Y-157357142D01*
X94026247Y-157357142D02*
X94264342Y-157357142D01*
X94264342Y-157357142D02*
X94359580Y-157404761D01*
X94359580Y-157404761D02*
X94407200Y-157452380D01*
X94407200Y-157452380D02*
X94454819Y-157547618D01*
X94454819Y-157547618D02*
X94454819Y-157785713D01*
X94454819Y-157785713D02*
X94407200Y-157880951D01*
X94407200Y-157880951D02*
X94359580Y-157928570D01*
X84154819Y-175983333D02*
X84869104Y-175983333D01*
X84869104Y-175983333D02*
X85011961Y-176030952D01*
X85011961Y-176030952D02*
X85107200Y-176126190D01*
X85107200Y-176126190D02*
X85154819Y-176269047D01*
X85154819Y-176269047D02*
X85154819Y-176364285D01*
X84488152Y-175078571D02*
X85154819Y-175078571D01*
X84107200Y-175316666D02*
X84821485Y-175554761D01*
X84821485Y-175554761D02*
X84821485Y-174935714D01*
X80906905Y-154954819D02*
X80906905Y-153954819D01*
X80906905Y-153954819D02*
X81145000Y-153954819D01*
X81145000Y-153954819D02*
X81287857Y-154002438D01*
X81287857Y-154002438D02*
X81383095Y-154097676D01*
X81383095Y-154097676D02*
X81430714Y-154192914D01*
X81430714Y-154192914D02*
X81478333Y-154383390D01*
X81478333Y-154383390D02*
X81478333Y-154526247D01*
X81478333Y-154526247D02*
X81430714Y-154716723D01*
X81430714Y-154716723D02*
X81383095Y-154811961D01*
X81383095Y-154811961D02*
X81287857Y-154907200D01*
X81287857Y-154907200D02*
X81145000Y-154954819D01*
X81145000Y-154954819D02*
X80906905Y-154954819D01*
X81859286Y-154050057D02*
X81906905Y-154002438D01*
X81906905Y-154002438D02*
X82002143Y-153954819D01*
X82002143Y-153954819D02*
X82240238Y-153954819D01*
X82240238Y-153954819D02*
X82335476Y-154002438D01*
X82335476Y-154002438D02*
X82383095Y-154050057D01*
X82383095Y-154050057D02*
X82430714Y-154145295D01*
X82430714Y-154145295D02*
X82430714Y-154240533D01*
X82430714Y-154240533D02*
X82383095Y-154383390D01*
X82383095Y-154383390D02*
X81811667Y-154954819D01*
X81811667Y-154954819D02*
X82430714Y-154954819D01*
X85004819Y-143526666D02*
X84528628Y-143859999D01*
X85004819Y-144098094D02*
X84004819Y-144098094D01*
X84004819Y-144098094D02*
X84004819Y-143717142D01*
X84004819Y-143717142D02*
X84052438Y-143621904D01*
X84052438Y-143621904D02*
X84100057Y-143574285D01*
X84100057Y-143574285D02*
X84195295Y-143526666D01*
X84195295Y-143526666D02*
X84338152Y-143526666D01*
X84338152Y-143526666D02*
X84433390Y-143574285D01*
X84433390Y-143574285D02*
X84481009Y-143621904D01*
X84481009Y-143621904D02*
X84528628Y-143717142D01*
X84528628Y-143717142D02*
X84528628Y-144098094D01*
X84004819Y-142621904D02*
X84004819Y-143098094D01*
X84004819Y-143098094D02*
X84481009Y-143145713D01*
X84481009Y-143145713D02*
X84433390Y-143098094D01*
X84433390Y-143098094D02*
X84385771Y-143002856D01*
X84385771Y-143002856D02*
X84385771Y-142764761D01*
X84385771Y-142764761D02*
X84433390Y-142669523D01*
X84433390Y-142669523D02*
X84481009Y-142621904D01*
X84481009Y-142621904D02*
X84576247Y-142574285D01*
X84576247Y-142574285D02*
X84814342Y-142574285D01*
X84814342Y-142574285D02*
X84909580Y-142621904D01*
X84909580Y-142621904D02*
X84957200Y-142669523D01*
X84957200Y-142669523D02*
X85004819Y-142764761D01*
X85004819Y-142764761D02*
X85004819Y-143002856D01*
X85004819Y-143002856D02*
X84957200Y-143098094D01*
X84957200Y-143098094D02*
X84909580Y-143145713D01*
X84854819Y-58683333D02*
X85569104Y-58683333D01*
X85569104Y-58683333D02*
X85711961Y-58730952D01*
X85711961Y-58730952D02*
X85807200Y-58826190D01*
X85807200Y-58826190D02*
X85854819Y-58969047D01*
X85854819Y-58969047D02*
X85854819Y-59064285D01*
X84854819Y-57778571D02*
X84854819Y-57969047D01*
X84854819Y-57969047D02*
X84902438Y-58064285D01*
X84902438Y-58064285D02*
X84950057Y-58111904D01*
X84950057Y-58111904D02*
X85092914Y-58207142D01*
X85092914Y-58207142D02*
X85283390Y-58254761D01*
X85283390Y-58254761D02*
X85664342Y-58254761D01*
X85664342Y-58254761D02*
X85759580Y-58207142D01*
X85759580Y-58207142D02*
X85807200Y-58159523D01*
X85807200Y-58159523D02*
X85854819Y-58064285D01*
X85854819Y-58064285D02*
X85854819Y-57873809D01*
X85854819Y-57873809D02*
X85807200Y-57778571D01*
X85807200Y-57778571D02*
X85759580Y-57730952D01*
X85759580Y-57730952D02*
X85664342Y-57683333D01*
X85664342Y-57683333D02*
X85426247Y-57683333D01*
X85426247Y-57683333D02*
X85331009Y-57730952D01*
X85331009Y-57730952D02*
X85283390Y-57778571D01*
X85283390Y-57778571D02*
X85235771Y-57873809D01*
X85235771Y-57873809D02*
X85235771Y-58064285D01*
X85235771Y-58064285D02*
X85283390Y-58159523D01*
X85283390Y-58159523D02*
X85331009Y-58207142D01*
X85331009Y-58207142D02*
X85426247Y-58254761D01*
X76367142Y-171144819D02*
X76033809Y-170668628D01*
X75795714Y-171144819D02*
X75795714Y-170144819D01*
X75795714Y-170144819D02*
X76176666Y-170144819D01*
X76176666Y-170144819D02*
X76271904Y-170192438D01*
X76271904Y-170192438D02*
X76319523Y-170240057D01*
X76319523Y-170240057D02*
X76367142Y-170335295D01*
X76367142Y-170335295D02*
X76367142Y-170478152D01*
X76367142Y-170478152D02*
X76319523Y-170573390D01*
X76319523Y-170573390D02*
X76271904Y-170621009D01*
X76271904Y-170621009D02*
X76176666Y-170668628D01*
X76176666Y-170668628D02*
X75795714Y-170668628D01*
X76748095Y-170240057D02*
X76795714Y-170192438D01*
X76795714Y-170192438D02*
X76890952Y-170144819D01*
X76890952Y-170144819D02*
X77129047Y-170144819D01*
X77129047Y-170144819D02*
X77224285Y-170192438D01*
X77224285Y-170192438D02*
X77271904Y-170240057D01*
X77271904Y-170240057D02*
X77319523Y-170335295D01*
X77319523Y-170335295D02*
X77319523Y-170430533D01*
X77319523Y-170430533D02*
X77271904Y-170573390D01*
X77271904Y-170573390D02*
X76700476Y-171144819D01*
X76700476Y-171144819D02*
X77319523Y-171144819D01*
X77795714Y-171144819D02*
X77986190Y-171144819D01*
X77986190Y-171144819D02*
X78081428Y-171097200D01*
X78081428Y-171097200D02*
X78129047Y-171049580D01*
X78129047Y-171049580D02*
X78224285Y-170906723D01*
X78224285Y-170906723D02*
X78271904Y-170716247D01*
X78271904Y-170716247D02*
X78271904Y-170335295D01*
X78271904Y-170335295D02*
X78224285Y-170240057D01*
X78224285Y-170240057D02*
X78176666Y-170192438D01*
X78176666Y-170192438D02*
X78081428Y-170144819D01*
X78081428Y-170144819D02*
X77890952Y-170144819D01*
X77890952Y-170144819D02*
X77795714Y-170192438D01*
X77795714Y-170192438D02*
X77748095Y-170240057D01*
X77748095Y-170240057D02*
X77700476Y-170335295D01*
X77700476Y-170335295D02*
X77700476Y-170573390D01*
X77700476Y-170573390D02*
X77748095Y-170668628D01*
X77748095Y-170668628D02*
X77795714Y-170716247D01*
X77795714Y-170716247D02*
X77890952Y-170763866D01*
X77890952Y-170763866D02*
X78081428Y-170763866D01*
X78081428Y-170763866D02*
X78176666Y-170716247D01*
X78176666Y-170716247D02*
X78224285Y-170668628D01*
X78224285Y-170668628D02*
X78271904Y-170573390D01*
X84284819Y-145199404D02*
X85094342Y-145199404D01*
X85094342Y-145199404D02*
X85189580Y-145151785D01*
X85189580Y-145151785D02*
X85237200Y-145104166D01*
X85237200Y-145104166D02*
X85284819Y-145008928D01*
X85284819Y-145008928D02*
X85284819Y-144818452D01*
X85284819Y-144818452D02*
X85237200Y-144723214D01*
X85237200Y-144723214D02*
X85189580Y-144675595D01*
X85189580Y-144675595D02*
X85094342Y-144627976D01*
X85094342Y-144627976D02*
X84284819Y-144627976D01*
X84380057Y-144199404D02*
X84332438Y-144151785D01*
X84332438Y-144151785D02*
X84284819Y-144056547D01*
X84284819Y-144056547D02*
X84284819Y-143818452D01*
X84284819Y-143818452D02*
X84332438Y-143723214D01*
X84332438Y-143723214D02*
X84380057Y-143675595D01*
X84380057Y-143675595D02*
X84475295Y-143627976D01*
X84475295Y-143627976D02*
X84570533Y-143627976D01*
X84570533Y-143627976D02*
X84713390Y-143675595D01*
X84713390Y-143675595D02*
X85284819Y-144247023D01*
X85284819Y-144247023D02*
X85284819Y-143627976D01*
X84654819Y-150262857D02*
X84178628Y-150596190D01*
X84654819Y-150834285D02*
X83654819Y-150834285D01*
X83654819Y-150834285D02*
X83654819Y-150453333D01*
X83654819Y-150453333D02*
X83702438Y-150358095D01*
X83702438Y-150358095D02*
X83750057Y-150310476D01*
X83750057Y-150310476D02*
X83845295Y-150262857D01*
X83845295Y-150262857D02*
X83988152Y-150262857D01*
X83988152Y-150262857D02*
X84083390Y-150310476D01*
X84083390Y-150310476D02*
X84131009Y-150358095D01*
X84131009Y-150358095D02*
X84178628Y-150453333D01*
X84178628Y-150453333D02*
X84178628Y-150834285D01*
X84750057Y-150072381D02*
X84750057Y-149310476D01*
X84654819Y-149072380D02*
X83654819Y-149072380D01*
X84035771Y-149072380D02*
X83988152Y-148977142D01*
X83988152Y-148977142D02*
X83988152Y-148786666D01*
X83988152Y-148786666D02*
X84035771Y-148691428D01*
X84035771Y-148691428D02*
X84083390Y-148643809D01*
X84083390Y-148643809D02*
X84178628Y-148596190D01*
X84178628Y-148596190D02*
X84464342Y-148596190D01*
X84464342Y-148596190D02*
X84559580Y-148643809D01*
X84559580Y-148643809D02*
X84607200Y-148691428D01*
X84607200Y-148691428D02*
X84654819Y-148786666D01*
X84654819Y-148786666D02*
X84654819Y-148977142D01*
X84654819Y-148977142D02*
X84607200Y-149072380D01*
X84654819Y-148024761D02*
X84607200Y-148119999D01*
X84607200Y-148119999D02*
X84559580Y-148167618D01*
X84559580Y-148167618D02*
X84464342Y-148215237D01*
X84464342Y-148215237D02*
X84178628Y-148215237D01*
X84178628Y-148215237D02*
X84083390Y-148167618D01*
X84083390Y-148167618D02*
X84035771Y-148119999D01*
X84035771Y-148119999D02*
X83988152Y-148024761D01*
X83988152Y-148024761D02*
X83988152Y-147881904D01*
X83988152Y-147881904D02*
X84035771Y-147786666D01*
X84035771Y-147786666D02*
X84083390Y-147739047D01*
X84083390Y-147739047D02*
X84178628Y-147691428D01*
X84178628Y-147691428D02*
X84464342Y-147691428D01*
X84464342Y-147691428D02*
X84559580Y-147739047D01*
X84559580Y-147739047D02*
X84607200Y-147786666D01*
X84607200Y-147786666D02*
X84654819Y-147881904D01*
X84654819Y-147881904D02*
X84654819Y-148024761D01*
X83988152Y-147405713D02*
X83988152Y-147024761D01*
X83654819Y-147262856D02*
X84511961Y-147262856D01*
X84511961Y-147262856D02*
X84607200Y-147215237D01*
X84607200Y-147215237D02*
X84654819Y-147119999D01*
X84654819Y-147119999D02*
X84654819Y-147024761D01*
X83988152Y-146834284D02*
X83988152Y-146453332D01*
X83654819Y-146691427D02*
X84511961Y-146691427D01*
X84511961Y-146691427D02*
X84607200Y-146643808D01*
X84607200Y-146643808D02*
X84654819Y-146548570D01*
X84654819Y-146548570D02*
X84654819Y-146453332D01*
X84654819Y-145977141D02*
X84607200Y-146072379D01*
X84607200Y-146072379D02*
X84559580Y-146119998D01*
X84559580Y-146119998D02*
X84464342Y-146167617D01*
X84464342Y-146167617D02*
X84178628Y-146167617D01*
X84178628Y-146167617D02*
X84083390Y-146119998D01*
X84083390Y-146119998D02*
X84035771Y-146072379D01*
X84035771Y-146072379D02*
X83988152Y-145977141D01*
X83988152Y-145977141D02*
X83988152Y-145834284D01*
X83988152Y-145834284D02*
X84035771Y-145739046D01*
X84035771Y-145739046D02*
X84083390Y-145691427D01*
X84083390Y-145691427D02*
X84178628Y-145643808D01*
X84178628Y-145643808D02*
X84464342Y-145643808D01*
X84464342Y-145643808D02*
X84559580Y-145691427D01*
X84559580Y-145691427D02*
X84607200Y-145739046D01*
X84607200Y-145739046D02*
X84654819Y-145834284D01*
X84654819Y-145834284D02*
X84654819Y-145977141D01*
X84654819Y-145215236D02*
X83988152Y-145215236D01*
X84083390Y-145215236D02*
X84035771Y-145167617D01*
X84035771Y-145167617D02*
X83988152Y-145072379D01*
X83988152Y-145072379D02*
X83988152Y-144929522D01*
X83988152Y-144929522D02*
X84035771Y-144834284D01*
X84035771Y-144834284D02*
X84131009Y-144786665D01*
X84131009Y-144786665D02*
X84654819Y-144786665D01*
X84131009Y-144786665D02*
X84035771Y-144739046D01*
X84035771Y-144739046D02*
X83988152Y-144643808D01*
X83988152Y-144643808D02*
X83988152Y-144500951D01*
X83988152Y-144500951D02*
X84035771Y-144405712D01*
X84035771Y-144405712D02*
X84131009Y-144358093D01*
X84131009Y-144358093D02*
X84654819Y-144358093D01*
X84654819Y-143358094D02*
X84654819Y-143929522D01*
X84654819Y-143643808D02*
X83654819Y-143643808D01*
X83654819Y-143643808D02*
X83797676Y-143739046D01*
X83797676Y-143739046D02*
X83892914Y-143834284D01*
X83892914Y-143834284D02*
X83940533Y-143929522D01*
X84314819Y-151043333D02*
X85029104Y-151043333D01*
X85029104Y-151043333D02*
X85171961Y-151090952D01*
X85171961Y-151090952D02*
X85267200Y-151186190D01*
X85267200Y-151186190D02*
X85314819Y-151329047D01*
X85314819Y-151329047D02*
X85314819Y-151424285D01*
X84743390Y-150424285D02*
X84695771Y-150519523D01*
X84695771Y-150519523D02*
X84648152Y-150567142D01*
X84648152Y-150567142D02*
X84552914Y-150614761D01*
X84552914Y-150614761D02*
X84505295Y-150614761D01*
X84505295Y-150614761D02*
X84410057Y-150567142D01*
X84410057Y-150567142D02*
X84362438Y-150519523D01*
X84362438Y-150519523D02*
X84314819Y-150424285D01*
X84314819Y-150424285D02*
X84314819Y-150233809D01*
X84314819Y-150233809D02*
X84362438Y-150138571D01*
X84362438Y-150138571D02*
X84410057Y-150090952D01*
X84410057Y-150090952D02*
X84505295Y-150043333D01*
X84505295Y-150043333D02*
X84552914Y-150043333D01*
X84552914Y-150043333D02*
X84648152Y-150090952D01*
X84648152Y-150090952D02*
X84695771Y-150138571D01*
X84695771Y-150138571D02*
X84743390Y-150233809D01*
X84743390Y-150233809D02*
X84743390Y-150424285D01*
X84743390Y-150424285D02*
X84791009Y-150519523D01*
X84791009Y-150519523D02*
X84838628Y-150567142D01*
X84838628Y-150567142D02*
X84933866Y-150614761D01*
X84933866Y-150614761D02*
X85124342Y-150614761D01*
X85124342Y-150614761D02*
X85219580Y-150567142D01*
X85219580Y-150567142D02*
X85267200Y-150519523D01*
X85267200Y-150519523D02*
X85314819Y-150424285D01*
X85314819Y-150424285D02*
X85314819Y-150233809D01*
X85314819Y-150233809D02*
X85267200Y-150138571D01*
X85267200Y-150138571D02*
X85219580Y-150090952D01*
X85219580Y-150090952D02*
X85124342Y-150043333D01*
X85124342Y-150043333D02*
X84933866Y-150043333D01*
X84933866Y-150043333D02*
X84838628Y-150090952D01*
X84838628Y-150090952D02*
X84791009Y-150138571D01*
X84791009Y-150138571D02*
X84743390Y-150233809D01*
X85814819Y-168732857D02*
X85338628Y-169066190D01*
X85814819Y-169304285D02*
X84814819Y-169304285D01*
X84814819Y-169304285D02*
X84814819Y-168923333D01*
X84814819Y-168923333D02*
X84862438Y-168828095D01*
X84862438Y-168828095D02*
X84910057Y-168780476D01*
X84910057Y-168780476D02*
X85005295Y-168732857D01*
X85005295Y-168732857D02*
X85148152Y-168732857D01*
X85148152Y-168732857D02*
X85243390Y-168780476D01*
X85243390Y-168780476D02*
X85291009Y-168828095D01*
X85291009Y-168828095D02*
X85338628Y-168923333D01*
X85338628Y-168923333D02*
X85338628Y-169304285D01*
X85814819Y-167780476D02*
X85814819Y-168351904D01*
X85814819Y-168066190D02*
X84814819Y-168066190D01*
X84814819Y-168066190D02*
X84957676Y-168161428D01*
X84957676Y-168161428D02*
X85052914Y-168256666D01*
X85052914Y-168256666D02*
X85100533Y-168351904D01*
X85243390Y-167209047D02*
X85195771Y-167304285D01*
X85195771Y-167304285D02*
X85148152Y-167351904D01*
X85148152Y-167351904D02*
X85052914Y-167399523D01*
X85052914Y-167399523D02*
X85005295Y-167399523D01*
X85005295Y-167399523D02*
X84910057Y-167351904D01*
X84910057Y-167351904D02*
X84862438Y-167304285D01*
X84862438Y-167304285D02*
X84814819Y-167209047D01*
X84814819Y-167209047D02*
X84814819Y-167018571D01*
X84814819Y-167018571D02*
X84862438Y-166923333D01*
X84862438Y-166923333D02*
X84910057Y-166875714D01*
X84910057Y-166875714D02*
X85005295Y-166828095D01*
X85005295Y-166828095D02*
X85052914Y-166828095D01*
X85052914Y-166828095D02*
X85148152Y-166875714D01*
X85148152Y-166875714D02*
X85195771Y-166923333D01*
X85195771Y-166923333D02*
X85243390Y-167018571D01*
X85243390Y-167018571D02*
X85243390Y-167209047D01*
X85243390Y-167209047D02*
X85291009Y-167304285D01*
X85291009Y-167304285D02*
X85338628Y-167351904D01*
X85338628Y-167351904D02*
X85433866Y-167399523D01*
X85433866Y-167399523D02*
X85624342Y-167399523D01*
X85624342Y-167399523D02*
X85719580Y-167351904D01*
X85719580Y-167351904D02*
X85767200Y-167304285D01*
X85767200Y-167304285D02*
X85814819Y-167209047D01*
X85814819Y-167209047D02*
X85814819Y-167018571D01*
X85814819Y-167018571D02*
X85767200Y-166923333D01*
X85767200Y-166923333D02*
X85719580Y-166875714D01*
X85719580Y-166875714D02*
X85624342Y-166828095D01*
X85624342Y-166828095D02*
X85433866Y-166828095D01*
X85433866Y-166828095D02*
X85338628Y-166875714D01*
X85338628Y-166875714D02*
X85291009Y-166923333D01*
X85291009Y-166923333D02*
X85243390Y-167018571D01*
X83564819Y-165482857D02*
X83088628Y-165816190D01*
X83564819Y-166054285D02*
X82564819Y-166054285D01*
X82564819Y-166054285D02*
X82564819Y-165673333D01*
X82564819Y-165673333D02*
X82612438Y-165578095D01*
X82612438Y-165578095D02*
X82660057Y-165530476D01*
X82660057Y-165530476D02*
X82755295Y-165482857D01*
X82755295Y-165482857D02*
X82898152Y-165482857D01*
X82898152Y-165482857D02*
X82993390Y-165530476D01*
X82993390Y-165530476D02*
X83041009Y-165578095D01*
X83041009Y-165578095D02*
X83088628Y-165673333D01*
X83088628Y-165673333D02*
X83088628Y-166054285D01*
X83564819Y-164530476D02*
X83564819Y-165101904D01*
X83564819Y-164816190D02*
X82564819Y-164816190D01*
X82564819Y-164816190D02*
X82707676Y-164911428D01*
X82707676Y-164911428D02*
X82802914Y-165006666D01*
X82802914Y-165006666D02*
X82850533Y-165101904D01*
X82564819Y-164197142D02*
X82564819Y-163530476D01*
X82564819Y-163530476D02*
X83564819Y-163959047D01*
X20716666Y-115504819D02*
X20716666Y-116219104D01*
X20716666Y-116219104D02*
X20669047Y-116361961D01*
X20669047Y-116361961D02*
X20573809Y-116457200D01*
X20573809Y-116457200D02*
X20430952Y-116504819D01*
X20430952Y-116504819D02*
X20335714Y-116504819D01*
X21145238Y-115600057D02*
X21192857Y-115552438D01*
X21192857Y-115552438D02*
X21288095Y-115504819D01*
X21288095Y-115504819D02*
X21526190Y-115504819D01*
X21526190Y-115504819D02*
X21621428Y-115552438D01*
X21621428Y-115552438D02*
X21669047Y-115600057D01*
X21669047Y-115600057D02*
X21716666Y-115695295D01*
X21716666Y-115695295D02*
X21716666Y-115790533D01*
X21716666Y-115790533D02*
X21669047Y-115933390D01*
X21669047Y-115933390D02*
X21097619Y-116504819D01*
X21097619Y-116504819D02*
X21716666Y-116504819D01*
X84931904Y-150504819D02*
X84598571Y-150028628D01*
X84360476Y-150504819D02*
X84360476Y-149504819D01*
X84360476Y-149504819D02*
X84741428Y-149504819D01*
X84741428Y-149504819D02*
X84836666Y-149552438D01*
X84836666Y-149552438D02*
X84884285Y-149600057D01*
X84884285Y-149600057D02*
X84931904Y-149695295D01*
X84931904Y-149695295D02*
X84931904Y-149838152D01*
X84931904Y-149838152D02*
X84884285Y-149933390D01*
X84884285Y-149933390D02*
X84836666Y-149981009D01*
X84836666Y-149981009D02*
X84741428Y-150028628D01*
X84741428Y-150028628D02*
X84360476Y-150028628D01*
X85122381Y-150600057D02*
X85884285Y-150600057D01*
X85979524Y-149838152D02*
X86360476Y-149838152D01*
X86122381Y-149504819D02*
X86122381Y-150361961D01*
X86122381Y-150361961D02*
X86170000Y-150457200D01*
X86170000Y-150457200D02*
X86265238Y-150504819D01*
X86265238Y-150504819D02*
X86360476Y-150504819D01*
X86836667Y-150504819D02*
X86741429Y-150457200D01*
X86741429Y-150457200D02*
X86693810Y-150409580D01*
X86693810Y-150409580D02*
X86646191Y-150314342D01*
X86646191Y-150314342D02*
X86646191Y-150028628D01*
X86646191Y-150028628D02*
X86693810Y-149933390D01*
X86693810Y-149933390D02*
X86741429Y-149885771D01*
X86741429Y-149885771D02*
X86836667Y-149838152D01*
X86836667Y-149838152D02*
X86979524Y-149838152D01*
X86979524Y-149838152D02*
X87074762Y-149885771D01*
X87074762Y-149885771D02*
X87122381Y-149933390D01*
X87122381Y-149933390D02*
X87170000Y-150028628D01*
X87170000Y-150028628D02*
X87170000Y-150314342D01*
X87170000Y-150314342D02*
X87122381Y-150409580D01*
X87122381Y-150409580D02*
X87074762Y-150457200D01*
X87074762Y-150457200D02*
X86979524Y-150504819D01*
X86979524Y-150504819D02*
X86836667Y-150504819D01*
X87598572Y-149838152D02*
X87598572Y-150838152D01*
X87598572Y-149885771D02*
X87693810Y-149838152D01*
X87693810Y-149838152D02*
X87884286Y-149838152D01*
X87884286Y-149838152D02*
X87979524Y-149885771D01*
X87979524Y-149885771D02*
X88027143Y-149933390D01*
X88027143Y-149933390D02*
X88074762Y-150028628D01*
X88074762Y-150028628D02*
X88074762Y-150314342D01*
X88074762Y-150314342D02*
X88027143Y-150409580D01*
X88027143Y-150409580D02*
X87979524Y-150457200D01*
X87979524Y-150457200D02*
X87884286Y-150504819D01*
X87884286Y-150504819D02*
X87693810Y-150504819D01*
X87693810Y-150504819D02*
X87598572Y-150457200D01*
X89027143Y-150504819D02*
X88455715Y-150504819D01*
X88741429Y-150504819D02*
X88741429Y-149504819D01*
X88741429Y-149504819D02*
X88646191Y-149647676D01*
X88646191Y-149647676D02*
X88550953Y-149742914D01*
X88550953Y-149742914D02*
X88455715Y-149790533D01*
X75774819Y-155766666D02*
X75774819Y-156242856D01*
X75774819Y-156242856D02*
X74774819Y-156242856D01*
X75774819Y-154909523D02*
X75774819Y-155480951D01*
X75774819Y-155195237D02*
X74774819Y-155195237D01*
X74774819Y-155195237D02*
X74917676Y-155290475D01*
X74917676Y-155290475D02*
X75012914Y-155385713D01*
X75012914Y-155385713D02*
X75060533Y-155480951D01*
X26518095Y-163414819D02*
X26518095Y-164224342D01*
X26518095Y-164224342D02*
X26565714Y-164319580D01*
X26565714Y-164319580D02*
X26613333Y-164367200D01*
X26613333Y-164367200D02*
X26708571Y-164414819D01*
X26708571Y-164414819D02*
X26899047Y-164414819D01*
X26899047Y-164414819D02*
X26994285Y-164367200D01*
X26994285Y-164367200D02*
X27041904Y-164319580D01*
X27041904Y-164319580D02*
X27089523Y-164224342D01*
X27089523Y-164224342D02*
X27089523Y-163414819D01*
X28089523Y-164414819D02*
X27518095Y-164414819D01*
X27803809Y-164414819D02*
X27803809Y-163414819D01*
X27803809Y-163414819D02*
X27708571Y-163557676D01*
X27708571Y-163557676D02*
X27613333Y-163652914D01*
X27613333Y-163652914D02*
X27518095Y-163700533D01*
X44409726Y-179102619D02*
X45437821Y-179102619D01*
X45437821Y-179102619D02*
X45558773Y-179042142D01*
X45558773Y-179042142D02*
X45619250Y-178981666D01*
X45619250Y-178981666D02*
X45679726Y-178860714D01*
X45679726Y-178860714D02*
X45679726Y-178618809D01*
X45679726Y-178618809D02*
X45619250Y-178497857D01*
X45619250Y-178497857D02*
X45558773Y-178437380D01*
X45558773Y-178437380D02*
X45437821Y-178376904D01*
X45437821Y-178376904D02*
X44409726Y-178376904D01*
X45679726Y-177106904D02*
X45679726Y-177832619D01*
X45679726Y-177469762D02*
X44409726Y-177469762D01*
X44409726Y-177469762D02*
X44591154Y-177590714D01*
X44591154Y-177590714D02*
X44712107Y-177711666D01*
X44712107Y-177711666D02*
X44772583Y-177832619D01*
X45014488Y-176139285D02*
X45074964Y-175957857D01*
X45074964Y-175957857D02*
X45135440Y-175897380D01*
X45135440Y-175897380D02*
X45256392Y-175836904D01*
X45256392Y-175836904D02*
X45437821Y-175836904D01*
X45437821Y-175836904D02*
X45558773Y-175897380D01*
X45558773Y-175897380D02*
X45619250Y-175957857D01*
X45619250Y-175957857D02*
X45679726Y-176078809D01*
X45679726Y-176078809D02*
X45679726Y-176562619D01*
X45679726Y-176562619D02*
X44409726Y-176562619D01*
X44409726Y-176562619D02*
X44409726Y-176139285D01*
X44409726Y-176139285D02*
X44470202Y-176018333D01*
X44470202Y-176018333D02*
X44530678Y-175957857D01*
X44530678Y-175957857D02*
X44651630Y-175897380D01*
X44651630Y-175897380D02*
X44772583Y-175897380D01*
X44772583Y-175897380D02*
X44893535Y-175957857D01*
X44893535Y-175957857D02*
X44954011Y-176018333D01*
X44954011Y-176018333D02*
X45014488Y-176139285D01*
X45014488Y-176139285D02*
X45014488Y-176562619D01*
D12*
%TO.C,U1A*%
X55100000Y-143230000D02*
X54100000Y-143230000D01*
X55100000Y-147010000D02*
X55100000Y-143230000D01*
X55100000Y-147010000D02*
X54100000Y-147010000D01*
X32300000Y-147010000D02*
X32300000Y-143230000D01*
%TO.C,U4*%
X77080000Y-158515000D02*
X77080000Y-158290000D01*
X77080000Y-162350000D02*
X77080000Y-161825000D01*
X77080000Y-162350000D02*
X77605000Y-162350000D01*
X77605000Y-158050000D02*
X77380000Y-158050000D01*
X81380000Y-158050000D02*
X80855000Y-158050000D01*
X81380000Y-158050000D02*
X81380000Y-158575000D01*
X81380000Y-162350000D02*
X80855000Y-162350000D01*
X81380000Y-162350000D02*
X81380000Y-161825000D01*
X77080000Y-158050000D02*
X76840000Y-157720000D01*
X77320000Y-157720000D01*
X77080000Y-158050000D01*
G36*
X77080000Y-158050000D02*
G01*
X76840000Y-157720000D01*
X77320000Y-157720000D01*
X77080000Y-158050000D01*
G37*
%TO.C,C5*%
X81155000Y-165841252D02*
X81155000Y-165318748D01*
X82625000Y-165841252D02*
X82625000Y-165318748D01*
%TO.C,U18*%
X75390000Y-165500000D02*
X75440000Y-165500000D01*
X75390000Y-167320000D02*
X75390000Y-165500000D01*
X75440000Y-167320000D02*
X75390000Y-167320000D01*
X77340000Y-167320000D02*
X76560000Y-167320000D01*
X78460000Y-165500000D02*
X78510000Y-165500000D01*
X78510000Y-165500000D02*
X78510000Y-167320000D01*
X78510000Y-167320000D02*
X78460000Y-167320000D01*
X78790000Y-165200000D02*
X78460000Y-164960000D01*
X78790000Y-164720000D01*
X78790000Y-165200000D01*
G36*
X78790000Y-165200000D02*
G01*
X78460000Y-164960000D01*
X78790000Y-164720000D01*
X78790000Y-165200000D01*
G37*
%TO.C,U5*%
X76080000Y-143090000D02*
X77900000Y-143090000D01*
X76080000Y-143140000D02*
X76080000Y-143090000D01*
X76080000Y-146210000D02*
X76080000Y-146160000D01*
X77900000Y-143090000D02*
X77900000Y-143140000D01*
X77900000Y-146160000D02*
X77900000Y-146210000D01*
X77900000Y-146210000D02*
X76080000Y-146210000D01*
X75540000Y-143140000D02*
X75300000Y-142810000D01*
X75780000Y-142810000D01*
X75540000Y-143140000D01*
G36*
X75540000Y-143140000D02*
G01*
X75300000Y-142810000D01*
X75780000Y-142810000D01*
X75540000Y-143140000D01*
G37*
%TO.C,J15*%
X85800000Y-151350000D02*
X85800000Y-165650000D01*
X85800000Y-165650000D02*
X87540000Y-165650000D01*
X87540000Y-151350000D02*
X85800000Y-151350000D01*
X91600000Y-151350000D02*
X90260000Y-151350000D01*
X91600000Y-152840000D02*
X91600000Y-151350000D01*
X91600000Y-152840000D02*
X92800000Y-152840000D01*
X91600000Y-164160000D02*
X91600000Y-165650000D01*
X91600000Y-165650000D02*
X90260000Y-165650000D01*
%TO.C,J4*%
X87100000Y-168500000D02*
X88440000Y-168500000D01*
X87100000Y-169990000D02*
X87100000Y-168500000D01*
X87100000Y-181310000D02*
X85900000Y-181310000D01*
X87100000Y-181310000D02*
X87100000Y-182800000D01*
X87100000Y-182800000D02*
X88440000Y-182800000D01*
X91160000Y-182800000D02*
X92900000Y-182800000D01*
X92900000Y-168500000D02*
X91160000Y-168500000D01*
X92900000Y-182800000D02*
X92900000Y-168500000D01*
D13*
%TO.C,D2*%
X80835000Y-155550000D02*
G75*
G02*
X80735000Y-155550000I-50000J0D01*
G01*
X80735000Y-155550000D02*
G75*
G02*
X80835000Y-155550000I50000J0D01*
G01*
D12*
%TO.C,J6*%
X86165000Y-60460000D02*
X86165000Y-59725000D01*
X86290000Y-58365000D02*
X91510000Y-58365000D01*
X86290000Y-58990000D02*
X86290000Y-58365000D01*
X86900000Y-60460000D02*
X86165000Y-60460000D01*
X87400000Y-58990000D02*
X87400000Y-58365000D01*
X87640000Y-56365000D02*
X88160000Y-56365000D01*
X87640000Y-58365000D02*
X87640000Y-56365000D01*
X88160000Y-56365000D02*
X88160000Y-58365000D01*
X88400000Y-59186275D02*
X88400000Y-58365000D01*
X88640000Y-56365000D02*
X89160000Y-56365000D01*
X88640000Y-58365000D02*
X88640000Y-56365000D01*
X89160000Y-56365000D02*
X89160000Y-58365000D01*
X89400000Y-59186275D02*
X89400000Y-58365000D01*
X89640000Y-56365000D02*
X90160000Y-56365000D01*
X89640000Y-58365000D02*
X89640000Y-56365000D01*
X90160000Y-56365000D02*
X90160000Y-58365000D01*
X90400000Y-59186275D02*
X90400000Y-58365000D01*
X90640000Y-56365000D02*
X91160000Y-56365000D01*
X90640000Y-58365000D02*
X90640000Y-56365000D01*
X91160000Y-56365000D02*
X91160000Y-58365000D01*
X91510000Y-58365000D02*
X91510000Y-59314970D01*
X86640000Y-58365000D02*
X87160000Y-58365000D01*
X87160000Y-56365000D01*
X86640000Y-56365000D01*
X86640000Y-58365000D01*
G36*
X86640000Y-58365000D02*
G01*
X87160000Y-58365000D01*
X87160000Y-56365000D01*
X86640000Y-56365000D01*
X86640000Y-58365000D01*
G37*
%TO.C,R29*%
X77163641Y-169140000D02*
X76856359Y-169140000D01*
X77163641Y-169900000D02*
X76856359Y-169900000D01*
%TO.C,U2*%
X80390000Y-142827500D02*
X80865000Y-142827500D01*
X80390000Y-143302500D02*
X80390000Y-142827500D01*
X80390000Y-146047500D02*
X80390000Y-145572500D01*
X80865000Y-146047500D02*
X80390000Y-146047500D01*
X83135000Y-142827500D02*
X83610000Y-142827500D01*
X83610000Y-142827500D02*
X83610000Y-143302500D01*
X83610000Y-145572500D02*
X83610000Y-146047500D01*
X83610000Y-146047500D02*
X83135000Y-146047500D01*
X82750000Y-142297500D02*
X82510000Y-141967500D01*
X82990000Y-141967500D01*
X82750000Y-142297500D01*
G36*
X82750000Y-142297500D02*
G01*
X82510000Y-141967500D01*
X82990000Y-141967500D01*
X82750000Y-142297500D01*
G37*
%TO.C,J8*%
X75950000Y-147650000D02*
X75950000Y-153770000D01*
X75950000Y-150210000D02*
X80310000Y-150210000D01*
X75950000Y-153770000D02*
X83770000Y-153770000D01*
X78210000Y-148410000D02*
X78210000Y-149410000D01*
X78210000Y-148910000D02*
X75950000Y-148910000D01*
X78210000Y-149410000D02*
X75950000Y-149410000D01*
X78210000Y-149410000D02*
X79810000Y-149410000D01*
X78210000Y-152010000D02*
X79810000Y-152010000D01*
X78210000Y-153010000D02*
X78210000Y-152010000D01*
X79810000Y-148410000D02*
X78210000Y-148410000D01*
X79810000Y-149410000D02*
X79810000Y-148410000D01*
X79810000Y-152010000D02*
X79810000Y-153010000D01*
X79810000Y-153010000D02*
X78210000Y-153010000D01*
X80310000Y-150210000D02*
X80310000Y-151210000D01*
X80310000Y-151210000D02*
X75950000Y-151210000D01*
X82170000Y-147650000D02*
X82170000Y-148570000D01*
X82170000Y-148570000D02*
X83770000Y-148570000D01*
X82170000Y-148850000D02*
X82170000Y-148570000D01*
X82170000Y-148850000D02*
X83385000Y-148850000D01*
X82170000Y-152850000D02*
X82170000Y-152570000D01*
X82170000Y-153770000D02*
X82170000Y-152850000D01*
X83770000Y-147650000D02*
X75950000Y-147650000D01*
X83770000Y-148570000D02*
X83770000Y-147650000D01*
X83770000Y-152850000D02*
X82170000Y-152850000D01*
X83770000Y-153770000D02*
X83770000Y-152850000D01*
%TO.C,R18*%
X83810000Y-167936359D02*
X83810000Y-168243641D01*
X84570000Y-167936359D02*
X84570000Y-168243641D01*
%TO.C,R17*%
X83900000Y-164993641D02*
X83900000Y-164686359D01*
X84660000Y-164993641D02*
X84660000Y-164686359D01*
%TO.C,J2*%
X18940000Y-116815000D02*
X19675000Y-116815000D01*
X18940000Y-117550000D02*
X18940000Y-116815000D01*
X20410000Y-116940000D02*
X21035000Y-116940000D01*
X20410000Y-118050000D02*
X21035000Y-118050000D01*
X21035000Y-116940000D02*
X21035000Y-119160000D01*
X21035000Y-118290000D02*
X23035000Y-118290000D01*
X21035000Y-119160000D02*
X20085030Y-119160000D01*
X23035000Y-118290000D02*
X23035000Y-118810000D01*
X23035000Y-118810000D02*
X21035000Y-118810000D01*
X21035000Y-117290000D02*
X23035000Y-117290000D01*
X23035000Y-117810000D01*
X21035000Y-117810000D01*
X21035000Y-117290000D01*
G36*
X21035000Y-117290000D02*
G01*
X23035000Y-117290000D01*
X23035000Y-117810000D01*
X21035000Y-117810000D01*
X21035000Y-117290000D01*
G37*
%TO.C,U1*%
X18700000Y-145580000D02*
X18700000Y-178580000D01*
X22200000Y-182080000D02*
X70200000Y-182080000D01*
X70200000Y-142080000D02*
X22200000Y-142080000D01*
X73700000Y-178580000D02*
X73700000Y-145580000D01*
X18700000Y-145580000D02*
G75*
G02*
X22200000Y-142080000I3499999J1D01*
G01*
X22200000Y-182080000D02*
G75*
G02*
X18700000Y-178580000I0J3500000D01*
G01*
X70200000Y-142080000D02*
G75*
G02*
X73700000Y-145580000I1J-3499999D01*
G01*
X73700000Y-178580000D02*
G75*
G02*
X70200000Y-182080000I-3500000J0D01*
G01*
%TO.C,U1B*%
X55100000Y-177150000D02*
X54100000Y-177150000D01*
X32300000Y-177150000D02*
X33300000Y-177150000D01*
X55100000Y-180930000D02*
X55100000Y-177150000D01*
X55100000Y-180930000D02*
X54100000Y-180930000D01*
X32300000Y-180930000D02*
X32300000Y-177150000D01*
X32300000Y-180930000D02*
X33300000Y-180930000D01*
%TD*%
%LPC*%
D14*
%TO.C,U1A*%
X53500000Y-143580000D03*
X53500000Y-146660000D03*
X53100000Y-143580000D03*
X53100000Y-146660000D03*
X52700000Y-143580000D03*
X52700000Y-146660000D03*
X52300000Y-143580000D03*
X52300000Y-146660000D03*
X51900000Y-143580000D03*
X51900000Y-146660000D03*
X51500000Y-143580000D03*
X51500000Y-146660000D03*
X51100000Y-143580000D03*
X51100000Y-146660000D03*
X50700000Y-143580000D03*
X50700000Y-146660000D03*
X50300000Y-143580000D03*
X50300000Y-146660000D03*
X49900000Y-143580000D03*
X49900000Y-146660000D03*
X49500000Y-143580000D03*
X49500000Y-146660000D03*
X49100000Y-143580000D03*
X49100000Y-146660000D03*
X48700000Y-143580000D03*
X48700000Y-146660000D03*
X48300000Y-143580000D03*
X48300000Y-146660000D03*
X47900000Y-143580000D03*
X47900000Y-146660000D03*
X47500000Y-143580000D03*
X47500000Y-146660000D03*
X47100000Y-143580000D03*
X47100000Y-146660000D03*
X46700000Y-143580000D03*
X46700000Y-146660000D03*
X46300000Y-143580000D03*
X46300000Y-146660000D03*
X45900000Y-143580000D03*
X45900000Y-146660000D03*
X45500000Y-143580000D03*
X45500000Y-146660000D03*
X45100000Y-143580000D03*
X45100000Y-146660000D03*
X44700000Y-143580000D03*
X44700000Y-146660000D03*
X44300000Y-143580000D03*
X44300000Y-146660000D03*
X43900000Y-143580000D03*
X43900000Y-146660000D03*
X43500000Y-143580000D03*
X43500000Y-146660000D03*
X43100000Y-143580000D03*
X43100000Y-146660000D03*
X42700000Y-143580000D03*
X42700000Y-146660000D03*
X42300000Y-143580000D03*
X42300000Y-146660000D03*
X41900000Y-143580000D03*
X41900000Y-146660000D03*
X41500000Y-143580000D03*
X41500000Y-146660000D03*
X41100000Y-143580000D03*
X41100000Y-146660000D03*
X40700000Y-143580000D03*
X40700000Y-146660000D03*
X40300000Y-143580000D03*
X40300000Y-146660000D03*
X39900000Y-143580000D03*
X39900000Y-146660000D03*
X39500000Y-143580000D03*
X39500000Y-146660000D03*
X39100000Y-143580000D03*
X39100000Y-146660000D03*
X38700000Y-143580000D03*
X38700000Y-146660000D03*
X38300000Y-143580000D03*
X38300000Y-146660000D03*
X37900000Y-143580000D03*
X37900000Y-146660000D03*
X37500000Y-143580000D03*
X37500000Y-146660000D03*
X37100000Y-143580000D03*
X37100000Y-146660000D03*
X36700000Y-143580000D03*
X36700000Y-146660000D03*
X36300000Y-143580000D03*
X36300000Y-146660000D03*
X35900000Y-143580000D03*
X35900000Y-146660000D03*
X35500000Y-143580000D03*
X35500000Y-146660000D03*
X35100000Y-143580000D03*
X35100000Y-146660000D03*
X34700000Y-143580000D03*
X34700000Y-146660000D03*
X34300000Y-143580000D03*
X34300000Y-146660000D03*
X33900000Y-143580000D03*
X33900000Y-146660000D03*
%TD*%
D15*
%TO.C,U4*%
X77280000Y-158950000D03*
X77280000Y-159450000D03*
X77280000Y-159950000D03*
X77280000Y-160450000D03*
X77280000Y-160950000D03*
X77280000Y-161450000D03*
D16*
X77980000Y-162150000D03*
X78480000Y-162150000D03*
X78980000Y-162150000D03*
X79480000Y-162150000D03*
X79980000Y-162150000D03*
X80480000Y-162150000D03*
D15*
X81180000Y-161450000D03*
X81180000Y-160950000D03*
X81180000Y-160450000D03*
X81180000Y-159950000D03*
X81180000Y-159450000D03*
X81180000Y-158950000D03*
D16*
X80480000Y-158250000D03*
X79980000Y-158250000D03*
X79480000Y-158250000D03*
X78980000Y-158250000D03*
X78480000Y-158250000D03*
X77980000Y-158250000D03*
%TD*%
D17*
%TO.C,C5*%
X81890000Y-166530000D03*
X81890000Y-164630000D03*
%TD*%
D18*
%TO.C,R7*%
X84170000Y-156470000D03*
X84170000Y-155830000D03*
%TD*%
D19*
%TO.C,C2*%
X80135000Y-156860000D03*
X80775000Y-156860000D03*
%TD*%
D20*
%TO.C,U18*%
X77900000Y-165272500D03*
X76950000Y-165272500D03*
X76000000Y-165272500D03*
X76000000Y-167547500D03*
X77900000Y-167547500D03*
%TD*%
D21*
%TO.C,U5*%
X75852500Y-143700000D03*
X75852500Y-144650000D03*
X75852500Y-145600000D03*
X78127500Y-145600000D03*
X78127500Y-144650000D03*
X78127500Y-143700000D03*
%TD*%
D19*
%TO.C,C3*%
X79220000Y-163620000D03*
X79860000Y-163620000D03*
%TD*%
D22*
%TO.C,*%
X89350000Y-107350000D03*
%TD*%
%TO.C,*%
X22199999Y-107350000D03*
%TD*%
D23*
%TO.C,J15*%
X92150000Y-153250000D03*
X92150000Y-153750000D03*
X92150000Y-154250000D03*
X92150000Y-154750000D03*
X92150000Y-155250000D03*
X92150000Y-155750000D03*
X92150000Y-156250000D03*
X92150000Y-156750000D03*
X92150000Y-157250000D03*
X92150000Y-157750000D03*
X92150000Y-158250000D03*
X92150000Y-158750000D03*
X92150000Y-159250000D03*
X92150000Y-159750000D03*
X92150000Y-160250000D03*
X92150000Y-160750000D03*
X92150000Y-161250000D03*
X92150000Y-161750000D03*
X92150000Y-162250000D03*
X92150000Y-162750000D03*
X92150000Y-163250000D03*
X92150000Y-163750000D03*
D24*
X88900000Y-151350000D03*
X88900000Y-165650000D03*
%TD*%
D22*
%TO.C,*%
X89350000Y-144950000D03*
%TD*%
D23*
%TO.C,J4*%
X86550000Y-180900000D03*
X86550000Y-180400000D03*
X86550000Y-179900000D03*
X86550000Y-179400000D03*
X86550000Y-178900000D03*
X86550000Y-178400000D03*
X86550000Y-177900000D03*
X86550000Y-177400000D03*
X86550000Y-176900000D03*
X86550000Y-176400000D03*
X86550000Y-175900000D03*
X86550000Y-175400000D03*
X86550000Y-174900000D03*
X86550000Y-174400000D03*
X86550000Y-173900000D03*
X86550000Y-173400000D03*
X86550000Y-172900000D03*
X86550000Y-172400000D03*
X86550000Y-171900000D03*
X86550000Y-171400000D03*
X86550000Y-170900000D03*
X86550000Y-170400000D03*
D24*
X89800000Y-182800000D03*
X89800000Y-168500000D03*
%TD*%
D19*
%TO.C,D2*%
X81325000Y-155550000D03*
X81965000Y-155550000D03*
%TD*%
D18*
%TO.C,R5*%
X85600000Y-143680000D03*
X85600000Y-143040000D03*
%TD*%
D25*
%TO.C,J6*%
X86900000Y-59725000D03*
D26*
X87900000Y-59725000D03*
X88900000Y-59725000D03*
X89900000Y-59725000D03*
X90900000Y-59725000D03*
%TD*%
D27*
%TO.C,R29*%
X77520000Y-169520000D03*
X76500000Y-169520000D03*
%TD*%
D28*
%TO.C,U2*%
X82750000Y-143000000D03*
X82250000Y-143000000D03*
X81750000Y-143000000D03*
X81250000Y-143000000D03*
D29*
X80562500Y-143687500D03*
X80562500Y-144187500D03*
X80562500Y-144687500D03*
X80562500Y-145187500D03*
D28*
X81250000Y-145875000D03*
X81750000Y-145875000D03*
X82250000Y-145875000D03*
X82750000Y-145875000D03*
D29*
X83437500Y-145187500D03*
X83437500Y-144687500D03*
X83437500Y-144187500D03*
X83437500Y-143687500D03*
D30*
X82000000Y-144437500D03*
%TD*%
D18*
%TO.C,R_bottom1*%
X85250000Y-147440000D03*
X85250000Y-146800000D03*
%TD*%
D31*
%TO.C,J8*%
X82310000Y-149710000D03*
D32*
X82310000Y-151710000D03*
%TD*%
D33*
%TO.C,R18*%
X84190000Y-167580000D03*
X84190000Y-168600000D03*
%TD*%
D34*
%TO.C,R17*%
X84280000Y-165350000D03*
X84280000Y-164330000D03*
%TD*%
D25*
%TO.C,J2*%
X19675000Y-117550000D03*
D26*
X19675000Y-118550000D03*
%TD*%
D35*
%TO.C,R_top1*%
X86990000Y-149000000D03*
X86350000Y-149000000D03*
%TD*%
D22*
%TO.C,*%
X22199999Y-59400000D03*
%TD*%
D18*
%TO.C,L1*%
X76370000Y-155920000D03*
X76370000Y-155280000D03*
%TD*%
D14*
%TO.C,U1B*%
X53500000Y-177500000D03*
X53500000Y-180580000D03*
X53100000Y-177500000D03*
X53100000Y-180580000D03*
X52700000Y-177500000D03*
X52700000Y-180580000D03*
X52300000Y-177500000D03*
X52300000Y-180580000D03*
X51900000Y-177500000D03*
X51900000Y-180580000D03*
X51500000Y-177500000D03*
X51500000Y-180580000D03*
X51100000Y-177500000D03*
X51100000Y-180580000D03*
X50700000Y-177500000D03*
X50700000Y-180580000D03*
X50300000Y-177500000D03*
X50300000Y-180580000D03*
X49900000Y-177500000D03*
X49900000Y-180580000D03*
X49500000Y-177500000D03*
X49500000Y-180580000D03*
X49100000Y-177500000D03*
X49100000Y-180580000D03*
X48700000Y-177500000D03*
X48700000Y-180580000D03*
X48300000Y-177500000D03*
X48300000Y-180580000D03*
X47900000Y-177500000D03*
X47900000Y-180580000D03*
X47500000Y-177500000D03*
X47500000Y-180580000D03*
X47100000Y-177500000D03*
X47100000Y-180580000D03*
X46700000Y-177500000D03*
X46700000Y-180580000D03*
X46300000Y-177500000D03*
X46300000Y-180580000D03*
X45900000Y-177500000D03*
X45900000Y-180580000D03*
X45500000Y-177500000D03*
X45500000Y-180580000D03*
X45100000Y-177500000D03*
X45100000Y-180580000D03*
X44700000Y-177500000D03*
X44700000Y-180580000D03*
X44300000Y-177500000D03*
X44300000Y-180580000D03*
X43900000Y-177500000D03*
X43900000Y-180580000D03*
X43500000Y-177500000D03*
X43500000Y-180580000D03*
X43100000Y-177500000D03*
X43100000Y-180580000D03*
X42700000Y-177500000D03*
X42700000Y-180580000D03*
X42300000Y-177500000D03*
X42300000Y-180580000D03*
X41900000Y-177500000D03*
X41900000Y-180580000D03*
X41500000Y-177500000D03*
X41500000Y-180580000D03*
X41100000Y-177500000D03*
X41100000Y-180580000D03*
X40700000Y-177500000D03*
X40700000Y-180580000D03*
X40300000Y-177500000D03*
X40300000Y-180580000D03*
X39900000Y-177500000D03*
X39900000Y-180580000D03*
X39500000Y-177500000D03*
X39500000Y-180580000D03*
X39100000Y-177500000D03*
X39100000Y-180580000D03*
X38700000Y-177500000D03*
X38700000Y-180580000D03*
X38300000Y-177500000D03*
X38300000Y-180580000D03*
X37900000Y-177500000D03*
X37900000Y-180580000D03*
X37500000Y-177500000D03*
X37500000Y-180580000D03*
X37100000Y-177500000D03*
X37100000Y-180580000D03*
X36700000Y-177500000D03*
X36700000Y-180580000D03*
X36300000Y-177500000D03*
X36300000Y-180580000D03*
X35900000Y-177500000D03*
X35900000Y-180580000D03*
X35500000Y-177500000D03*
X35500000Y-180580000D03*
X35100000Y-177500000D03*
X35100000Y-180580000D03*
X34700000Y-177500000D03*
X34700000Y-180580000D03*
X34300000Y-177500000D03*
X34300000Y-180580000D03*
X33900000Y-177500000D03*
X33900000Y-180580000D03*
%TD*%
%LPD*%
M02*
