M48
; DRILL file {KiCad 9.0.6} date 2025-12-07T14:53:16-0500
; FORMAT={-:-/ absolute / inch / decimal}
; #@! TF.CreationDate,2025-12-07T14:53:16-05:00
; #@! TF.GenerationSoftware,Kicad,Pcbnew,9.0.6
; #@! TF.FileFunction,Plated,1,6,PTH
FMAT,2
INCH
; #@! TA.AperFunction,Plated,PTH,ViaDrill
T1C0.0039
; #@! TA.AperFunction,Plated,PTH,ViaDrill
T2C0.0047
; #@! TA.AperFunction,Plated,PTH,ViaDrill
T3C0.0059
; #@! TA.AperFunction,Plated,PTH,ComponentDrill
T4C0.0197
; #@! TA.AperFunction,Plated,PTH,ComponentDrill
T5C0.0295
%
G90
G05
T1
X0.7839Y-6.8665
X0.7894Y-6.7598
X0.7909Y-6.7402
X0.8Y-6.8917
X0.8264Y-6.7402
X0.8749Y-6.7598
X0.876Y-6.7339
X0.8965Y-6.7276
X0.9161Y-6.7228
X0.9177Y-6.7004
X0.9331Y-6.6811
X0.9787Y-7.0114
X1.0043Y-7.0138
X1.0295Y-7.0146
T2
X1.8748Y-7.0854
X1.9177Y-6.9992
X1.965Y-6.9988
T3
X0.7346Y-5.2648
X0.7357Y-4.3633
X0.736Y-4.1208
X0.7363Y-3.8783
X0.7366Y-3.6359
X0.7369Y-3.3934
X0.7371Y-3.1509
X0.7374Y-2.9084
X0.7377Y-2.666
X0.7383Y-2.2029
X0.7517Y-6.039
X0.7517Y-6.2815
X0.7517Y-6.524
X0.7693Y-7.1499
X0.7787Y-7.0113
X0.7787Y-6.9564
X0.7792Y-7.1134
X0.7894Y-6.7811
X0.7905Y-4.7373
X0.7905Y-4.9797
X0.7945Y-6.8358
X0.7969Y-7.0782
X0.8087Y-6.7854
X0.8185Y-6.8512
X0.8453Y-6.8732
X0.8497Y-7.0316
X0.884Y-5.8506
X0.9037Y-5.4379
X0.9293Y-7.2262
X0.9798Y-6.9859
X0.9808Y-2.2029
X1.0648Y-2.6038
X1.0648Y-2.8463
X1.0648Y-3.0887
X1.0648Y-3.3312
X1.0648Y-3.5737
X1.0648Y-3.8162
X1.0648Y-4.0587
X1.0648Y-4.3011
X1.0648Y-4.5436
X1.0648Y-4.7861
X1.0648Y-5.0286
X1.0751Y-5.6094
X1.1302Y-7.1186
X1.1975Y-7.1925
X1.3168Y-6.9923
X1.3466Y-7.1338
X1.3512Y-7.0114
X1.3537Y-5.7504
X1.3583Y-7.1621
X1.398Y-7.011
X1.4054Y-5.7359
X1.4198Y-5.7508
X1.44Y-7.1925
X1.4437Y-7.0106
X1.4446Y-7.1338
X1.4469Y-5.5926
X1.4999Y-7.1315
X1.5178Y-5.6753
X1.5293Y-5.7293
X1.5394Y-7.0102
X1.5467Y-5.6286
X1.5495Y-7.1322
X1.5748Y-7.1366
X1.579Y-5.7364
X1.5866Y-7.0075
X1.61Y-7.1336
X1.6166Y-5.7511
X1.6168Y-5.6294
X1.6235Y-7.0273
X1.6342Y-5.6755
X1.6366Y-7.0
X1.6398Y-7.0347
X1.6414Y-5.7516
X1.6555Y-7.1366
X1.6625Y-5.74
X1.6757Y-5.6804
X1.6811Y-7.0035
X1.6818Y-5.619
X1.6825Y-7.1925
X1.6893Y-5.738
X1.7114Y-5.6902
X1.7256Y-7.1361
X1.7267Y-5.7425
X1.731Y-5.6889
X1.7678Y-7.0875
X1.8001Y-5.7276
X1.8147Y-5.6914
X1.8261Y-7.1329
X1.835Y-5.7354
X1.8701Y-7.008
X1.8713Y-5.7347
X1.9089Y-5.732
X1.9095Y-7.0876
X1.9127Y-7.2245
X1.9153Y-5.6992
X1.9529Y-5.6963
X1.9567Y-7.0876
X1.9719Y-5.7322
X1.9795Y-5.6154
X2.0076Y-5.6234
X2.0118Y-5.6994
X2.0118Y-5.7332
X2.0133Y-7.1327
X2.0276Y-7.0119
X2.0697Y-5.7381
X2.0756Y-7.1342
X2.087Y-5.7352
X2.1188Y-5.7443
X2.1552Y-7.2245
X2.1921Y-6.9928
X2.3976Y-7.2245
X2.3989Y-5.7345
X2.4344Y-6.9923
X2.4904Y-6.4988
X2.516Y-7.1144
X2.5562Y-5.8357
X2.5829Y-5.9488
X2.6064Y-6.0628
X2.6067Y-6.3052
X2.6227Y-6.0533
X2.6228Y-7.1802
X2.6558Y-5.6737
X2.6818Y-6.8626
X2.6998Y-6.8683
X2.7139Y-7.176
X2.7155Y-5.8849
X2.7375Y-6.6627
X2.7469Y-6.5786
X2.7608Y-6.7778
X2.7628Y-6.7218
X2.7641Y-7.0883
X2.774Y-7.1462
X2.7747Y-7.2164
X2.7887Y-7.1371
X2.824Y-6.1651
X2.8293Y-6.5411
X2.8459Y-7.0583
X2.8511Y-6.5939
X2.8748Y-6.9767
X2.8812Y-7.2066
X2.8856Y-7.1176
X2.8942Y-6.3763
X2.8983Y-5.6737
X2.8987Y-6.7728
X2.9093Y-7.0476
X2.9153Y-6.4629
X2.9234Y-6.5399
X2.9318Y-7.2262
X2.9364Y-6.566
X2.949Y-6.7525
X2.9512Y-5.6896
X2.9907Y-6.9014
X2.9911Y-6.6743
X3.0016Y-6.8141
X3.005Y-6.042
X3.0063Y-6.7873
X3.0131Y-6.2939
X3.0132Y-6.5957
X3.0235Y-5.7464
X3.0254Y-6.774
X3.0317Y-6.4717
X3.0348Y-5.8155
X3.0373Y-6.2264
X3.0438Y-7.1585
X3.045Y-7.0133
X3.0513Y-6.2317
X3.0829Y-6.6662
X3.085Y-6.5637
X3.0944Y-5.8349
X3.1008Y-6.1961
X3.1079Y-6.6954
X3.1113Y-6.4248
X3.1186Y-6.5228
X3.119Y-6.4106
X3.1211Y-6.9919
X3.1234Y-7.1059
X3.1295Y-6.4627
X3.1432Y-7.1957
X3.1435Y-6.8176
X3.146Y-6.8353
X3.1494Y-6.4588
X3.1535Y-6.1485
X3.1625Y-6.4352
X3.1698Y-6.1184
X3.1727Y-5.7306
X3.1759Y-7.2262
X3.1816Y-6.5526
X3.1864Y-6.3713
X3.1943Y-6.7767
X3.222Y-6.2789
X3.2225Y-6.2553
X3.2225Y-6.3211
X3.2231Y-5.5926
X3.224Y-6.5105
X3.2388Y-5.6031
X3.2455Y-5.7692
X3.2826Y-5.7949
X3.2842Y-5.819
X3.2922Y-6.6029
X3.2964Y-6.5021
X3.2975Y-6.9284
X3.3067Y-6.1169
X3.3108Y-6.9164
X3.3135Y-6.0993
X3.3361Y-7.0706
X3.3367Y-2.2029
X3.3388Y-5.7849
X3.3415Y-6.4761
X3.3527Y-5.6531
X3.371Y-6.8965
X3.371Y-6.8286
X3.3729Y-7.0617
X3.3729Y-7.0023
X3.373Y-2.7434
X3.373Y-2.9859
X3.373Y-3.2284
X3.373Y-3.4708
X3.373Y-3.7133
X3.373Y-3.9558
X3.373Y-4.1983
X3.373Y-4.4407
X3.373Y-4.6832
X3.373Y-4.9257
X3.373Y-5.1682
X3.373Y-5.4107
X3.3736Y-6.9542
X3.3959Y-6.6791
X3.4146Y-2.413
X3.4227Y-5.8443
X3.424Y-6.6531
X3.4287Y-2.524
X3.4317Y-6.2049
X3.4421Y-6.7701
X3.4428Y-6.5571
X3.4445Y-6.2174
X3.447Y-6.8675
X3.4544Y-7.2201
X3.4854Y-6.3217
X3.5182Y-6.7413
X3.5792Y-2.2029
X3.5803Y-2.4031
X3.5857Y-6.0419
X3.5934Y-6.2724
X3.5934Y-6.331
X3.5934Y-6.3707
X3.5934Y-6.0945
X3.5934Y-6.1536
X3.6254Y-7.1568
X3.6258Y-6.4618
X3.6621Y-6.1995
X3.6625Y-2.6046
X3.6626Y-2.8471
X3.6626Y-3.0895
X3.6627Y-3.332
X3.6627Y-3.5745
X3.6627Y-3.817
X3.6628Y-4.0595
X3.6628Y-4.3019
X3.6629Y-4.5444
X3.6629Y-4.7869
X3.6629Y-5.0294
X3.663Y-5.2718
X3.663Y-5.5143
X3.663Y-5.7568
X3.6631Y-5.9993
X3.6632Y-6.7031
T4
X0.7746Y-4.628
X0.7746Y-4.6673
X3.4213Y-2.3514
X3.4606Y-2.3514
X3.5Y-2.3514
X3.5394Y-2.3514
X3.5787Y-2.3514
T5
X3.2406Y-5.8941
X3.2406Y-5.9728
M30
