%TF.GenerationSoftware,KiCad,Pcbnew,9.0.6*%
%TF.CreationDate,2025-12-07T14:53:16-05:00*%
%TF.ProjectId,Phone,50686f6e-652e-46b6-9963-61645f706362,rev?*%
%TF.SameCoordinates,Original*%
%TF.FileFunction,Legend,Bot*%
%TF.FilePolarity,Positive*%
%FSLAX46Y46*%
G04 Gerber Fmt 4.6, Leading zero omitted, Abs format (unit mm)*
G04 Created by KiCad (PCBNEW 9.0.6) date 2025-12-07 14:53:16*
%MOMM*%
%LPD*%
G01*
G04 APERTURE LIST*
G04 Aperture macros list*
%AMRoundRect*
0 Rectangle with rounded corners*
0 $1 Rounding radius*
0 $2 $3 $4 $5 $6 $7 $8 $9 X,Y pos of 4 corners*
0 Add a 4 corners polygon primitive as box body*
4,1,4,$2,$3,$4,$5,$6,$7,$8,$9,$2,$3,0*
0 Add four circle primitives for the rounded corners*
1,1,$1+$1,$2,$3*
1,1,$1+$1,$4,$5*
1,1,$1+$1,$6,$7*
1,1,$1+$1,$8,$9*
0 Add four rect primitives between the rounded corners*
20,1,$1+$1,$2,$3,$4,$5,0*
20,1,$1+$1,$4,$5,$6,$7,0*
20,1,$1+$1,$6,$7,$8,$9,0*
20,1,$1+$1,$8,$9,$2,$3,0*%
%AMHorizOval*
0 Thick line with rounded ends*
0 $1 width*
0 $2 $3 position (X,Y) of the first rounded end (center of the circle)*
0 $4 $5 position (X,Y) of the second rounded end (center of the circle)*
0 Add line between two ends*
20,1,$1,$2,$3,$4,$5,0*
0 Add two circle primitives to create the rounded ends*
1,1,$1,$2,$3*
1,1,$1,$4,$5*%
G04 Aperture macros list end*
%ADD10C,0.150000*%
%ADD11C,0.015000*%
%ADD12C,0.120000*%
%ADD13C,0.127000*%
%ADD14C,0.200000*%
%ADD15C,0.100000*%
%ADD16C,0.910000*%
%ADD17HorizOval,0.910000X-0.100000X0.100000X0.100000X-0.100000X0*%
%ADD18R,1.100000X0.700000*%
%ADD19R,0.930000X0.900000*%
%ADD20R,0.780000X1.050000*%
%ADD21R,3.330000X0.700000*%
%ADD22R,1.830000X1.140000*%
%ADD23R,2.800000X0.860000*%
%ADD24R,1.300000X0.300000*%
%ADD25R,2.200000X1.800000*%
%ADD26RoundRect,0.150000X0.150000X0.400000X-0.150000X0.400000X-0.150000X-0.400000X0.150000X-0.400000X0*%
%ADD27RoundRect,0.175000X0.175000X0.375000X-0.175000X0.375000X-0.175000X-0.375000X0.175000X-0.375000X0*%
%ADD28C,6.100000*%
%ADD29R,0.850000X0.850000*%
%ADD30C,0.850000*%
%ADD31RoundRect,0.250000X-0.625000X0.350000X-0.625000X-0.350000X0.625000X-0.350000X0.625000X0.350000X0*%
%ADD32O,1.750000X1.200000*%
G04 APERTURE END LIST*
D10*
X74009523Y-178404819D02*
X74009523Y-177404819D01*
X74009523Y-177404819D02*
X73676190Y-178119104D01*
X73676190Y-178119104D02*
X73342857Y-177404819D01*
X73342857Y-177404819D02*
X73342857Y-178404819D01*
X72866666Y-178404819D02*
X72866666Y-177404819D01*
X72295238Y-178404819D02*
X72723809Y-177833390D01*
X72295238Y-177404819D02*
X72866666Y-177976247D01*
X71914285Y-177500057D02*
X71866666Y-177452438D01*
X71866666Y-177452438D02*
X71771428Y-177404819D01*
X71771428Y-177404819D02*
X71533333Y-177404819D01*
X71533333Y-177404819D02*
X71438095Y-177452438D01*
X71438095Y-177452438D02*
X71390476Y-177500057D01*
X71390476Y-177500057D02*
X71342857Y-177595295D01*
X71342857Y-177595295D02*
X71342857Y-177690533D01*
X71342857Y-177690533D02*
X71390476Y-177833390D01*
X71390476Y-177833390D02*
X71961904Y-178404819D01*
X71961904Y-178404819D02*
X71342857Y-178404819D01*
D11*
X88906470Y-185993179D02*
X89621245Y-185993179D01*
X89621245Y-185993179D02*
X89764200Y-185945527D01*
X89764200Y-185945527D02*
X89859504Y-185850224D01*
X89859504Y-185850224D02*
X89907155Y-185707269D01*
X89907155Y-185707269D02*
X89907155Y-185611966D01*
X88906470Y-186374393D02*
X88906470Y-187041516D01*
X88906470Y-187041516D02*
X89907155Y-186612651D01*
D10*
X16504819Y-175616666D02*
X17219104Y-175616666D01*
X17219104Y-175616666D02*
X17361961Y-175569047D01*
X17361961Y-175569047D02*
X17457200Y-175473809D01*
X17457200Y-175473809D02*
X17504819Y-175330952D01*
X17504819Y-175330952D02*
X17504819Y-175235714D01*
X16504819Y-176569047D02*
X16504819Y-176092857D01*
X16504819Y-176092857D02*
X16981009Y-176045238D01*
X16981009Y-176045238D02*
X16933390Y-176092857D01*
X16933390Y-176092857D02*
X16885771Y-176188095D01*
X16885771Y-176188095D02*
X16885771Y-176426190D01*
X16885771Y-176426190D02*
X16933390Y-176521428D01*
X16933390Y-176521428D02*
X16981009Y-176569047D01*
X16981009Y-176569047D02*
X17076247Y-176616666D01*
X17076247Y-176616666D02*
X17314342Y-176616666D01*
X17314342Y-176616666D02*
X17409580Y-176569047D01*
X17409580Y-176569047D02*
X17457200Y-176521428D01*
X17457200Y-176521428D02*
X17504819Y-176426190D01*
X17504819Y-176426190D02*
X17504819Y-176188095D01*
X17504819Y-176188095D02*
X17457200Y-176092857D01*
X17457200Y-176092857D02*
X17409580Y-176045238D01*
X69694404Y-178754819D02*
X69694404Y-179564342D01*
X69694404Y-179564342D02*
X69646785Y-179659580D01*
X69646785Y-179659580D02*
X69599166Y-179707200D01*
X69599166Y-179707200D02*
X69503928Y-179754819D01*
X69503928Y-179754819D02*
X69313452Y-179754819D01*
X69313452Y-179754819D02*
X69218214Y-179707200D01*
X69218214Y-179707200D02*
X69170595Y-179659580D01*
X69170595Y-179659580D02*
X69122976Y-179564342D01*
X69122976Y-179564342D02*
X69122976Y-178754819D01*
X68742023Y-178754819D02*
X68122976Y-178754819D01*
X68122976Y-178754819D02*
X68456309Y-179135771D01*
X68456309Y-179135771D02*
X68313452Y-179135771D01*
X68313452Y-179135771D02*
X68218214Y-179183390D01*
X68218214Y-179183390D02*
X68170595Y-179231009D01*
X68170595Y-179231009D02*
X68122976Y-179326247D01*
X68122976Y-179326247D02*
X68122976Y-179564342D01*
X68122976Y-179564342D02*
X68170595Y-179659580D01*
X68170595Y-179659580D02*
X68218214Y-179707200D01*
X68218214Y-179707200D02*
X68313452Y-179754819D01*
X68313452Y-179754819D02*
X68599166Y-179754819D01*
X68599166Y-179754819D02*
X68694404Y-179707200D01*
X68694404Y-179707200D02*
X68742023Y-179659580D01*
D12*
%TO.C,MK2*%
X70700000Y-178850000D02*
X70700000Y-183850000D01*
X70700000Y-178850000D02*
X74400000Y-178850000D01*
X70700000Y-183850000D02*
X74700000Y-183850000D01*
X74700000Y-179150000D02*
X74700000Y-183850000D01*
X74980000Y-178850000D02*
X74700000Y-178850000D01*
X74700000Y-178570000D01*
X74980000Y-178850000D01*
G36*
X74980000Y-178850000D02*
G01*
X74700000Y-178850000D01*
X74700000Y-178570000D01*
X74980000Y-178850000D01*
G37*
D13*
%TO.C,J7*%
X77013244Y-170571906D02*
X77013244Y-183671906D01*
X79713244Y-170571906D02*
X82613244Y-170571906D01*
X85613244Y-170571906D02*
X87713244Y-170571906D01*
X91063244Y-171245906D02*
X91063244Y-172247906D01*
X91063244Y-177995906D02*
X91063244Y-182997906D01*
D14*
X76663244Y-174741906D02*
G75*
G02*
X76463244Y-174741906I-100000J0D01*
G01*
X76463244Y-174741906D02*
G75*
G02*
X76663244Y-174741906I100000J0D01*
G01*
D12*
%TO.C,J5*%
X19450000Y-168800000D02*
X20790000Y-168800000D01*
X19450000Y-170290000D02*
X18250000Y-170290000D01*
X19450000Y-170290000D02*
X19450000Y-168800000D01*
X19450000Y-181610000D02*
X19450000Y-183100000D01*
X19450000Y-183100000D02*
X20790000Y-183100000D01*
X23510000Y-168800000D02*
X25250000Y-168800000D01*
X25250000Y-168800000D02*
X25250000Y-183100000D01*
X25250000Y-183100000D02*
X23510000Y-183100000D01*
%TO.C,U3*%
X67722500Y-181660000D02*
X67722500Y-182240000D01*
X70142500Y-181950000D02*
X70142500Y-182240000D01*
D15*
X70692500Y-180630000D02*
X70492500Y-180630000D01*
X70492500Y-180430000D01*
X70692500Y-180630000D01*
G36*
X70692500Y-180630000D02*
G01*
X70492500Y-180630000D01*
X70492500Y-180430000D01*
X70692500Y-180630000D01*
G37*
%TD*%
%LPC*%
D16*
%TO.C,MK2*%
X73870000Y-179700000D03*
X73870000Y-181350000D03*
X73870000Y-183000000D03*
X71530000Y-183000000D03*
X71530000Y-181350000D03*
D17*
X71630000Y-179800000D03*
%TD*%
D18*
%TO.C,J7*%
X78413244Y-174741906D03*
X78413244Y-175841906D03*
X78413244Y-176941906D03*
X78413244Y-178041906D03*
X78413244Y-179141906D03*
X78413244Y-180241906D03*
X78413244Y-181341906D03*
X78413244Y-182441906D03*
D19*
X90878244Y-172951906D03*
D20*
X90953244Y-177216906D03*
D21*
X89678244Y-170641906D03*
D22*
X78428244Y-170861906D03*
D23*
X78913244Y-183521906D03*
D21*
X89678244Y-183601906D03*
%TD*%
D24*
%TO.C,J5*%
X18900000Y-170700000D03*
X18900000Y-171200000D03*
X18900000Y-171700000D03*
X18900000Y-172200000D03*
X18900000Y-172700000D03*
X18900000Y-173200000D03*
X18900000Y-173700000D03*
X18900000Y-174200000D03*
X18900000Y-174700000D03*
X18900000Y-175200000D03*
X18900000Y-175700000D03*
X18900000Y-176200000D03*
X18900000Y-176700000D03*
X18900000Y-177200000D03*
X18900000Y-177700000D03*
X18900000Y-178200000D03*
X18900000Y-178700000D03*
X18900000Y-179200000D03*
X18900000Y-179700000D03*
X18900000Y-180200000D03*
X18900000Y-180700000D03*
X18900000Y-181200000D03*
D25*
X22150000Y-168800000D03*
X22150000Y-183100000D03*
%TD*%
D26*
%TO.C,U3*%
X69932500Y-180850000D03*
X69932500Y-183050000D03*
D27*
X68932500Y-183050000D03*
D26*
X67932500Y-183050000D03*
X67932500Y-180850000D03*
D27*
X68932500Y-180850000D03*
%TD*%
D28*
%TO.C,*%
X89350000Y-107350000D03*
%TD*%
%TO.C,*%
X22199999Y-107350000D03*
%TD*%
%TO.C,*%
X89350000Y-144950000D03*
%TD*%
D29*
%TO.C,J6*%
X86900000Y-59725000D03*
D30*
X87900000Y-59725000D03*
X88900000Y-59725000D03*
X89900000Y-59725000D03*
X90900000Y-59725000D03*
%TD*%
D31*
%TO.C,J8*%
X82310000Y-149710000D03*
D32*
X82310000Y-151710000D03*
%TD*%
D29*
%TO.C,J2*%
X19675000Y-117550000D03*
D30*
X19675000Y-118550000D03*
%TD*%
D28*
%TO.C,*%
X22199999Y-59400000D03*
%TD*%
%LPD*%
M02*
