M48
; DRILL file {KiCad 9.0.6} date 2025-12-07T13:32:55-0500
; FORMAT={-:-/ absolute / metric / decimal}
; #@! TF.CreationDate,2025-12-07T13:32:55-05:00
; #@! TF.GenerationSoftware,Kicad,Pcbnew,9.0.6
; #@! TF.FileFunction,Plated,1,6,PTH
FMAT,2
METRIC
; #@! TA.AperFunction,Plated,PTH,ViaDrill
T1C0.100
; #@! TA.AperFunction,Plated,PTH,ViaDrill
T2C0.120
; #@! TA.AperFunction,Plated,PTH,ViaDrill
T3C0.150
; #@! TA.AperFunction,Plated,PTH,ComponentDrill
T4C0.500
; #@! TA.AperFunction,Plated,PTH,ComponentDrill
T5C0.750
%
G90
G05
T1
X19.91Y-174.41
X20.05Y-171.7
X20.09Y-171.2
X20.32Y-175.05
X20.99Y-171.2
X22.224Y-171.698
X22.25Y-171.04
X22.77Y-170.88
X23.27Y-170.76
X23.31Y-170.19
X23.7Y-169.7
X24.86Y-178.09
X25.51Y-178.15
X26.15Y-178.17
T2
X47.62Y-179.97
X48.71Y-177.78
X49.91Y-177.77
T3
X18.658Y-133.727
X18.686Y-110.828
X18.694Y-104.669
X18.701Y-98.51
X18.709Y-92.351
X18.716Y-86.192
X18.724Y-80.033
X18.731Y-73.874
X18.739Y-67.715
X18.753Y-55.953
X19.093Y-153.391
X19.093Y-159.55
X19.093Y-165.709
X19.541Y-181.607
X19.778Y-178.087
X19.78Y-176.693
X19.791Y-180.68
X20.05Y-172.24
X20.08Y-120.326
X20.08Y-126.485
X20.18Y-173.63
X20.242Y-179.786
X20.541Y-172.35
X20.79Y-174.02
X21.47Y-174.58
X21.583Y-178.603
X22.455Y-148.606
X22.953Y-138.123
X23.604Y-183.547
X24.887Y-177.441
X24.912Y-55.953
X27.047Y-66.136
X27.047Y-72.295
X27.047Y-78.454
X27.047Y-84.613
X27.047Y-90.772
X27.047Y-96.931
X27.047Y-103.09
X27.047Y-109.249
X27.047Y-115.408
X27.047Y-121.567
X27.047Y-127.726
X27.308Y-142.478
X28.708Y-180.814
X30.417Y-182.69
X33.446Y-177.603
X34.204Y-181.199
X34.32Y-178.09
X34.383Y-146.059
X34.5Y-181.918
X35.51Y-178.08
X35.697Y-145.693
X36.063Y-146.07
X36.576Y-182.69
X36.67Y-178.07
X36.692Y-181.199
X36.751Y-142.053
X38.098Y-181.141
X38.552Y-144.154
X38.843Y-145.523
X39.1Y-178.06
X39.286Y-142.967
X39.358Y-181.159
X40.0Y-181.27
X40.106Y-145.703
X40.3Y-177.99
X40.895Y-181.192
X41.062Y-146.077
X41.068Y-142.986
X41.237Y-178.494
X41.509Y-144.159
X41.57Y-177.8
X41.65Y-178.68
X41.693Y-146.092
X42.05Y-181.27
X42.228Y-145.796
X42.563Y-144.283
X42.7Y-177.89
X42.717Y-142.724
X42.735Y-182.69
X42.908Y-145.746
X43.47Y-144.53
X43.831Y-181.256
X43.858Y-145.86
X43.967Y-144.497
X44.902Y-180.022
X45.723Y-145.482
X46.092Y-144.561
X46.383Y-181.176
X46.608Y-145.679
X47.5Y-178.004
X47.531Y-145.661
X48.485Y-145.592
X48.501Y-180.025
X48.582Y-183.503
X48.649Y-144.759
X49.603Y-144.686
X49.701Y-180.025
X50.087Y-145.597
X50.28Y-142.632
X50.994Y-142.834
X51.1Y-144.766
X51.1Y-145.624
X51.138Y-181.169
X51.502Y-178.102
X52.57Y-145.747
X52.721Y-181.209
X53.009Y-145.675
X53.817Y-145.905
X54.741Y-183.503
X55.68Y-177.618
X60.9Y-183.503
X60.933Y-145.656
X61.833Y-177.603
X63.256Y-165.068
X63.907Y-180.706
X64.928Y-148.227
X65.605Y-151.099
X66.203Y-153.996
X66.211Y-160.153
X66.616Y-153.754
X66.618Y-182.377
X67.457Y-144.112
X68.118Y-174.311
X68.575Y-174.456
X68.933Y-182.271
X68.975Y-149.476
X69.532Y-169.232
X69.77Y-167.097
X70.124Y-172.156
X70.175Y-170.734
X70.208Y-180.044
X70.46Y-181.514
X70.477Y-183.297
X70.834Y-181.283
X71.731Y-156.594
X71.865Y-166.144
X72.287Y-179.28
X72.417Y-167.486
X73.019Y-177.207
X73.184Y-183.048
X73.294Y-180.787
X73.513Y-161.957
X73.616Y-144.112
X73.627Y-172.03
X73.896Y-179.008
X74.048Y-164.158
X74.255Y-166.113
X74.468Y-183.546
X74.585Y-166.776
X74.905Y-171.513
X74.961Y-144.516
X75.963Y-175.295
X75.973Y-169.527
X76.24Y-173.078
X76.327Y-153.467
X76.361Y-172.397
X76.534Y-159.865
X76.536Y-167.531
X76.798Y-145.959
X76.845Y-172.059
X77.004Y-164.381
X77.084Y-147.714
X77.148Y-158.151
X77.313Y-181.826
X77.342Y-178.138
X77.503Y-158.286
X78.307Y-169.321
X78.358Y-166.718
X78.598Y-148.205
X78.761Y-157.381
X78.941Y-170.064
X79.027Y-163.191
X79.214Y-165.679
X79.223Y-162.83
X79.276Y-177.594
X79.334Y-180.49
X79.489Y-164.152
X79.838Y-182.772
X79.844Y-173.167
X79.909Y-173.615
X79.996Y-164.052
X80.098Y-156.172
X80.327Y-163.454
X80.513Y-155.407
X80.585Y-145.558
X80.667Y-183.546
X80.812Y-166.436
X80.934Y-161.83
X81.136Y-172.128
X81.839Y-159.484
X81.851Y-158.884
X81.851Y-160.557
X81.866Y-142.053
X81.89Y-165.367
X82.266Y-142.318
X82.435Y-146.537
X83.377Y-147.19
X83.418Y-147.803
X83.621Y-167.713
X83.73Y-165.153
X83.757Y-175.981
X83.991Y-155.369
X84.094Y-175.677
X84.162Y-154.922
X84.736Y-179.593
X84.753Y-55.953
X84.806Y-146.935
X84.875Y-164.493
X85.159Y-143.589
X85.623Y-175.17
X85.623Y-173.447
X85.672Y-179.366
X85.672Y-177.86
X85.675Y-69.682
X85.675Y-75.841
X85.675Y-82.0
X85.675Y-88.159
X85.675Y-94.318
X85.675Y-100.477
X85.675Y-106.636
X85.675Y-112.795
X85.675Y-118.954
X85.675Y-125.113
X85.675Y-131.272
X85.675Y-137.431
X85.689Y-176.638
X86.255Y-169.649
X86.73Y-61.29
X86.936Y-148.446
X86.969Y-168.989
X87.088Y-64.109
X87.166Y-157.605
X87.428Y-171.96
X87.446Y-166.55
X87.491Y-157.921
X87.554Y-174.435
X87.742Y-183.391
X88.528Y-160.572
X89.363Y-171.228
X90.912Y-55.953
X90.94Y-61.04
X91.076Y-153.463
X91.272Y-159.32
X91.272Y-160.808
X91.272Y-161.815
X91.272Y-154.801
X91.272Y-156.302
X92.085Y-181.782
X92.094Y-164.131
X93.018Y-157.468
X93.028Y-66.157
X93.029Y-72.316
X93.03Y-78.474
X93.031Y-84.633
X93.032Y-90.792
X93.033Y-96.951
X93.034Y-103.11
X93.035Y-109.269
X93.036Y-115.428
X93.037Y-121.587
X93.038Y-127.746
X93.039Y-133.905
X93.04Y-140.064
X93.041Y-146.223
X93.042Y-152.382
X93.045Y-170.259
T4
X19.675Y-117.55
X19.675Y-118.55
X86.9Y-59.725
X87.9Y-59.725
X88.9Y-59.725
X89.9Y-59.725
X90.9Y-59.725
T5
X82.31Y-149.71
X82.31Y-151.71
M30
