%TF.GenerationSoftware,KiCad,Pcbnew,9.0.6*%
%TF.CreationDate,2025-12-07T12:27:36-05:00*%
%TF.ProjectId,Phone,50686f6e-652e-46b6-9963-61645f706362,rev?*%
%TF.SameCoordinates,Original*%
%TF.FileFunction,Legend,Top*%
%TF.FilePolarity,Positive*%
%FSLAX46Y46*%
G04 Gerber Fmt 4.6, Leading zero omitted, Abs format (unit mm)*
G04 Created by KiCad (PCBNEW 9.0.6) date 2025-12-07 12:27:36*
%MOMM*%
%LPD*%
G01*
G04 APERTURE LIST*
%ADD10C,0.150000*%
%ADD11C,0.125000*%
%ADD12C,0.120000*%
%ADD13C,0.100000*%
G04 APERTURE END LIST*
D10*
X74466779Y-151708866D02*
X75228684Y-151708866D01*
D11*
X23863188Y-117256119D02*
X23815569Y-117232309D01*
X23815569Y-117232309D02*
X23744140Y-117232309D01*
X23744140Y-117232309D02*
X23672712Y-117256119D01*
X23672712Y-117256119D02*
X23625093Y-117303738D01*
X23625093Y-117303738D02*
X23601283Y-117351357D01*
X23601283Y-117351357D02*
X23577474Y-117446595D01*
X23577474Y-117446595D02*
X23577474Y-117518023D01*
X23577474Y-117518023D02*
X23601283Y-117613261D01*
X23601283Y-117613261D02*
X23625093Y-117660880D01*
X23625093Y-117660880D02*
X23672712Y-117708500D01*
X23672712Y-117708500D02*
X23744140Y-117732309D01*
X23744140Y-117732309D02*
X23791759Y-117732309D01*
X23791759Y-117732309D02*
X23863188Y-117708500D01*
X23863188Y-117708500D02*
X23886997Y-117684690D01*
X23886997Y-117684690D02*
X23886997Y-117518023D01*
X23886997Y-117518023D02*
X23791759Y-117518023D01*
X24101283Y-117732309D02*
X24101283Y-117232309D01*
X24101283Y-117232309D02*
X24386997Y-117732309D01*
X24386997Y-117732309D02*
X24386997Y-117232309D01*
X24625093Y-117732309D02*
X24625093Y-117232309D01*
X24625093Y-117232309D02*
X24744141Y-117232309D01*
X24744141Y-117232309D02*
X24815569Y-117256119D01*
X24815569Y-117256119D02*
X24863188Y-117303738D01*
X24863188Y-117303738D02*
X24886998Y-117351357D01*
X24886998Y-117351357D02*
X24910807Y-117446595D01*
X24910807Y-117446595D02*
X24910807Y-117518023D01*
X24910807Y-117518023D02*
X24886998Y-117613261D01*
X24886998Y-117613261D02*
X24863188Y-117660880D01*
X24863188Y-117660880D02*
X24815569Y-117708500D01*
X24815569Y-117708500D02*
X24744141Y-117732309D01*
X24744141Y-117732309D02*
X24625093Y-117732309D01*
X23839378Y-118332309D02*
X23601283Y-118332309D01*
X23601283Y-118332309D02*
X23577474Y-118570404D01*
X23577474Y-118570404D02*
X23601283Y-118546595D01*
X23601283Y-118546595D02*
X23648902Y-118522785D01*
X23648902Y-118522785D02*
X23767950Y-118522785D01*
X23767950Y-118522785D02*
X23815569Y-118546595D01*
X23815569Y-118546595D02*
X23839378Y-118570404D01*
X23839378Y-118570404D02*
X23863188Y-118618023D01*
X23863188Y-118618023D02*
X23863188Y-118737071D01*
X23863188Y-118737071D02*
X23839378Y-118784690D01*
X23839378Y-118784690D02*
X23815569Y-118808500D01*
X23815569Y-118808500D02*
X23767950Y-118832309D01*
X23767950Y-118832309D02*
X23648902Y-118832309D01*
X23648902Y-118832309D02*
X23601283Y-118808500D01*
X23601283Y-118808500D02*
X23577474Y-118784690D01*
X24006045Y-118332309D02*
X24172711Y-118832309D01*
X24172711Y-118832309D02*
X24339378Y-118332309D01*
D10*
X74466779Y-149588866D02*
X75228684Y-149588866D01*
X74847731Y-149969819D02*
X74847731Y-149207914D01*
X75774819Y-155766666D02*
X75774819Y-156242856D01*
X75774819Y-156242856D02*
X74774819Y-156242856D01*
X75774819Y-154909523D02*
X75774819Y-155480951D01*
X75774819Y-155195237D02*
X74774819Y-155195237D01*
X74774819Y-155195237D02*
X74917676Y-155290475D01*
X74917676Y-155290475D02*
X75012914Y-155385713D01*
X75012914Y-155385713D02*
X75060533Y-155480951D01*
X63966666Y-17784819D02*
X63966666Y-18499104D01*
X63966666Y-18499104D02*
X63919047Y-18641961D01*
X63919047Y-18641961D02*
X63823809Y-18737200D01*
X63823809Y-18737200D02*
X63680952Y-18784819D01*
X63680952Y-18784819D02*
X63585714Y-18784819D01*
X64347619Y-17784819D02*
X64966666Y-17784819D01*
X64966666Y-17784819D02*
X64633333Y-18165771D01*
X64633333Y-18165771D02*
X64776190Y-18165771D01*
X64776190Y-18165771D02*
X64871428Y-18213390D01*
X64871428Y-18213390D02*
X64919047Y-18261009D01*
X64919047Y-18261009D02*
X64966666Y-18356247D01*
X64966666Y-18356247D02*
X64966666Y-18594342D01*
X64966666Y-18594342D02*
X64919047Y-18689580D01*
X64919047Y-18689580D02*
X64871428Y-18737200D01*
X64871428Y-18737200D02*
X64776190Y-18784819D01*
X64776190Y-18784819D02*
X64490476Y-18784819D01*
X64490476Y-18784819D02*
X64395238Y-18737200D01*
X64395238Y-18737200D02*
X64347619Y-18689580D01*
X55183333Y-25989580D02*
X55135714Y-26037200D01*
X55135714Y-26037200D02*
X54992857Y-26084819D01*
X54992857Y-26084819D02*
X54897619Y-26084819D01*
X54897619Y-26084819D02*
X54754762Y-26037200D01*
X54754762Y-26037200D02*
X54659524Y-25941961D01*
X54659524Y-25941961D02*
X54611905Y-25846723D01*
X54611905Y-25846723D02*
X54564286Y-25656247D01*
X54564286Y-25656247D02*
X54564286Y-25513390D01*
X54564286Y-25513390D02*
X54611905Y-25322914D01*
X54611905Y-25322914D02*
X54659524Y-25227676D01*
X54659524Y-25227676D02*
X54754762Y-25132438D01*
X54754762Y-25132438D02*
X54897619Y-25084819D01*
X54897619Y-25084819D02*
X54992857Y-25084819D01*
X54992857Y-25084819D02*
X55135714Y-25132438D01*
X55135714Y-25132438D02*
X55183333Y-25180057D01*
X56135714Y-26084819D02*
X55564286Y-26084819D01*
X55850000Y-26084819D02*
X55850000Y-25084819D01*
X55850000Y-25084819D02*
X55754762Y-25227676D01*
X55754762Y-25227676D02*
X55659524Y-25322914D01*
X55659524Y-25322914D02*
X55564286Y-25370533D01*
X59283333Y-26034819D02*
X58950000Y-25558628D01*
X58711905Y-26034819D02*
X58711905Y-25034819D01*
X58711905Y-25034819D02*
X59092857Y-25034819D01*
X59092857Y-25034819D02*
X59188095Y-25082438D01*
X59188095Y-25082438D02*
X59235714Y-25130057D01*
X59235714Y-25130057D02*
X59283333Y-25225295D01*
X59283333Y-25225295D02*
X59283333Y-25368152D01*
X59283333Y-25368152D02*
X59235714Y-25463390D01*
X59235714Y-25463390D02*
X59188095Y-25511009D01*
X59188095Y-25511009D02*
X59092857Y-25558628D01*
X59092857Y-25558628D02*
X58711905Y-25558628D01*
X60235714Y-26034819D02*
X59664286Y-26034819D01*
X59950000Y-26034819D02*
X59950000Y-25034819D01*
X59950000Y-25034819D02*
X59854762Y-25177676D01*
X59854762Y-25177676D02*
X59759524Y-25272914D01*
X59759524Y-25272914D02*
X59664286Y-25320533D01*
X84931904Y-150504819D02*
X84598571Y-150028628D01*
X84360476Y-150504819D02*
X84360476Y-149504819D01*
X84360476Y-149504819D02*
X84741428Y-149504819D01*
X84741428Y-149504819D02*
X84836666Y-149552438D01*
X84836666Y-149552438D02*
X84884285Y-149600057D01*
X84884285Y-149600057D02*
X84931904Y-149695295D01*
X84931904Y-149695295D02*
X84931904Y-149838152D01*
X84931904Y-149838152D02*
X84884285Y-149933390D01*
X84884285Y-149933390D02*
X84836666Y-149981009D01*
X84836666Y-149981009D02*
X84741428Y-150028628D01*
X84741428Y-150028628D02*
X84360476Y-150028628D01*
X85122381Y-150600057D02*
X85884285Y-150600057D01*
X85979524Y-149838152D02*
X86360476Y-149838152D01*
X86122381Y-149504819D02*
X86122381Y-150361961D01*
X86122381Y-150361961D02*
X86170000Y-150457200D01*
X86170000Y-150457200D02*
X86265238Y-150504819D01*
X86265238Y-150504819D02*
X86360476Y-150504819D01*
X86836667Y-150504819D02*
X86741429Y-150457200D01*
X86741429Y-150457200D02*
X86693810Y-150409580D01*
X86693810Y-150409580D02*
X86646191Y-150314342D01*
X86646191Y-150314342D02*
X86646191Y-150028628D01*
X86646191Y-150028628D02*
X86693810Y-149933390D01*
X86693810Y-149933390D02*
X86741429Y-149885771D01*
X86741429Y-149885771D02*
X86836667Y-149838152D01*
X86836667Y-149838152D02*
X86979524Y-149838152D01*
X86979524Y-149838152D02*
X87074762Y-149885771D01*
X87074762Y-149885771D02*
X87122381Y-149933390D01*
X87122381Y-149933390D02*
X87170000Y-150028628D01*
X87170000Y-150028628D02*
X87170000Y-150314342D01*
X87170000Y-150314342D02*
X87122381Y-150409580D01*
X87122381Y-150409580D02*
X87074762Y-150457200D01*
X87074762Y-150457200D02*
X86979524Y-150504819D01*
X86979524Y-150504819D02*
X86836667Y-150504819D01*
X87598572Y-149838152D02*
X87598572Y-150838152D01*
X87598572Y-149885771D02*
X87693810Y-149838152D01*
X87693810Y-149838152D02*
X87884286Y-149838152D01*
X87884286Y-149838152D02*
X87979524Y-149885771D01*
X87979524Y-149885771D02*
X88027143Y-149933390D01*
X88027143Y-149933390D02*
X88074762Y-150028628D01*
X88074762Y-150028628D02*
X88074762Y-150314342D01*
X88074762Y-150314342D02*
X88027143Y-150409580D01*
X88027143Y-150409580D02*
X87979524Y-150457200D01*
X87979524Y-150457200D02*
X87884286Y-150504819D01*
X87884286Y-150504819D02*
X87693810Y-150504819D01*
X87693810Y-150504819D02*
X87598572Y-150457200D01*
X89027143Y-150504819D02*
X88455715Y-150504819D01*
X88741429Y-150504819D02*
X88741429Y-149504819D01*
X88741429Y-149504819D02*
X88646191Y-149647676D01*
X88646191Y-149647676D02*
X88550953Y-149742914D01*
X88550953Y-149742914D02*
X88455715Y-149790533D01*
X20716666Y-115504819D02*
X20716666Y-116219104D01*
X20716666Y-116219104D02*
X20669047Y-116361961D01*
X20669047Y-116361961D02*
X20573809Y-116457200D01*
X20573809Y-116457200D02*
X20430952Y-116504819D01*
X20430952Y-116504819D02*
X20335714Y-116504819D01*
X21145238Y-115600057D02*
X21192857Y-115552438D01*
X21192857Y-115552438D02*
X21288095Y-115504819D01*
X21288095Y-115504819D02*
X21526190Y-115504819D01*
X21526190Y-115504819D02*
X21621428Y-115552438D01*
X21621428Y-115552438D02*
X21669047Y-115600057D01*
X21669047Y-115600057D02*
X21716666Y-115695295D01*
X21716666Y-115695295D02*
X21716666Y-115790533D01*
X21716666Y-115790533D02*
X21669047Y-115933390D01*
X21669047Y-115933390D02*
X21097619Y-116504819D01*
X21097619Y-116504819D02*
X21716666Y-116504819D01*
X83564819Y-165482857D02*
X83088628Y-165816190D01*
X83564819Y-166054285D02*
X82564819Y-166054285D01*
X82564819Y-166054285D02*
X82564819Y-165673333D01*
X82564819Y-165673333D02*
X82612438Y-165578095D01*
X82612438Y-165578095D02*
X82660057Y-165530476D01*
X82660057Y-165530476D02*
X82755295Y-165482857D01*
X82755295Y-165482857D02*
X82898152Y-165482857D01*
X82898152Y-165482857D02*
X82993390Y-165530476D01*
X82993390Y-165530476D02*
X83041009Y-165578095D01*
X83041009Y-165578095D02*
X83088628Y-165673333D01*
X83088628Y-165673333D02*
X83088628Y-166054285D01*
X83564819Y-164530476D02*
X83564819Y-165101904D01*
X83564819Y-164816190D02*
X82564819Y-164816190D01*
X82564819Y-164816190D02*
X82707676Y-164911428D01*
X82707676Y-164911428D02*
X82802914Y-165006666D01*
X82802914Y-165006666D02*
X82850533Y-165101904D01*
X82564819Y-164197142D02*
X82564819Y-163530476D01*
X82564819Y-163530476D02*
X83564819Y-163959047D01*
X85814819Y-168732857D02*
X85338628Y-169066190D01*
X85814819Y-169304285D02*
X84814819Y-169304285D01*
X84814819Y-169304285D02*
X84814819Y-168923333D01*
X84814819Y-168923333D02*
X84862438Y-168828095D01*
X84862438Y-168828095D02*
X84910057Y-168780476D01*
X84910057Y-168780476D02*
X85005295Y-168732857D01*
X85005295Y-168732857D02*
X85148152Y-168732857D01*
X85148152Y-168732857D02*
X85243390Y-168780476D01*
X85243390Y-168780476D02*
X85291009Y-168828095D01*
X85291009Y-168828095D02*
X85338628Y-168923333D01*
X85338628Y-168923333D02*
X85338628Y-169304285D01*
X85814819Y-167780476D02*
X85814819Y-168351904D01*
X85814819Y-168066190D02*
X84814819Y-168066190D01*
X84814819Y-168066190D02*
X84957676Y-168161428D01*
X84957676Y-168161428D02*
X85052914Y-168256666D01*
X85052914Y-168256666D02*
X85100533Y-168351904D01*
X85243390Y-167209047D02*
X85195771Y-167304285D01*
X85195771Y-167304285D02*
X85148152Y-167351904D01*
X85148152Y-167351904D02*
X85052914Y-167399523D01*
X85052914Y-167399523D02*
X85005295Y-167399523D01*
X85005295Y-167399523D02*
X84910057Y-167351904D01*
X84910057Y-167351904D02*
X84862438Y-167304285D01*
X84862438Y-167304285D02*
X84814819Y-167209047D01*
X84814819Y-167209047D02*
X84814819Y-167018571D01*
X84814819Y-167018571D02*
X84862438Y-166923333D01*
X84862438Y-166923333D02*
X84910057Y-166875714D01*
X84910057Y-166875714D02*
X85005295Y-166828095D01*
X85005295Y-166828095D02*
X85052914Y-166828095D01*
X85052914Y-166828095D02*
X85148152Y-166875714D01*
X85148152Y-166875714D02*
X85195771Y-166923333D01*
X85195771Y-166923333D02*
X85243390Y-167018571D01*
X85243390Y-167018571D02*
X85243390Y-167209047D01*
X85243390Y-167209047D02*
X85291009Y-167304285D01*
X85291009Y-167304285D02*
X85338628Y-167351904D01*
X85338628Y-167351904D02*
X85433866Y-167399523D01*
X85433866Y-167399523D02*
X85624342Y-167399523D01*
X85624342Y-167399523D02*
X85719580Y-167351904D01*
X85719580Y-167351904D02*
X85767200Y-167304285D01*
X85767200Y-167304285D02*
X85814819Y-167209047D01*
X85814819Y-167209047D02*
X85814819Y-167018571D01*
X85814819Y-167018571D02*
X85767200Y-166923333D01*
X85767200Y-166923333D02*
X85719580Y-166875714D01*
X85719580Y-166875714D02*
X85624342Y-166828095D01*
X85624342Y-166828095D02*
X85433866Y-166828095D01*
X85433866Y-166828095D02*
X85338628Y-166875714D01*
X85338628Y-166875714D02*
X85291009Y-166923333D01*
X85291009Y-166923333D02*
X85243390Y-167018571D01*
X84314819Y-151043333D02*
X85029104Y-151043333D01*
X85029104Y-151043333D02*
X85171961Y-151090952D01*
X85171961Y-151090952D02*
X85267200Y-151186190D01*
X85267200Y-151186190D02*
X85314819Y-151329047D01*
X85314819Y-151329047D02*
X85314819Y-151424285D01*
X84743390Y-150424285D02*
X84695771Y-150519523D01*
X84695771Y-150519523D02*
X84648152Y-150567142D01*
X84648152Y-150567142D02*
X84552914Y-150614761D01*
X84552914Y-150614761D02*
X84505295Y-150614761D01*
X84505295Y-150614761D02*
X84410057Y-150567142D01*
X84410057Y-150567142D02*
X84362438Y-150519523D01*
X84362438Y-150519523D02*
X84314819Y-150424285D01*
X84314819Y-150424285D02*
X84314819Y-150233809D01*
X84314819Y-150233809D02*
X84362438Y-150138571D01*
X84362438Y-150138571D02*
X84410057Y-150090952D01*
X84410057Y-150090952D02*
X84505295Y-150043333D01*
X84505295Y-150043333D02*
X84552914Y-150043333D01*
X84552914Y-150043333D02*
X84648152Y-150090952D01*
X84648152Y-150090952D02*
X84695771Y-150138571D01*
X84695771Y-150138571D02*
X84743390Y-150233809D01*
X84743390Y-150233809D02*
X84743390Y-150424285D01*
X84743390Y-150424285D02*
X84791009Y-150519523D01*
X84791009Y-150519523D02*
X84838628Y-150567142D01*
X84838628Y-150567142D02*
X84933866Y-150614761D01*
X84933866Y-150614761D02*
X85124342Y-150614761D01*
X85124342Y-150614761D02*
X85219580Y-150567142D01*
X85219580Y-150567142D02*
X85267200Y-150519523D01*
X85267200Y-150519523D02*
X85314819Y-150424285D01*
X85314819Y-150424285D02*
X85314819Y-150233809D01*
X85314819Y-150233809D02*
X85267200Y-150138571D01*
X85267200Y-150138571D02*
X85219580Y-150090952D01*
X85219580Y-150090952D02*
X85124342Y-150043333D01*
X85124342Y-150043333D02*
X84933866Y-150043333D01*
X84933866Y-150043333D02*
X84838628Y-150090952D01*
X84838628Y-150090952D02*
X84791009Y-150138571D01*
X84791009Y-150138571D02*
X84743390Y-150233809D01*
X84654819Y-150262857D02*
X84178628Y-150596190D01*
X84654819Y-150834285D02*
X83654819Y-150834285D01*
X83654819Y-150834285D02*
X83654819Y-150453333D01*
X83654819Y-150453333D02*
X83702438Y-150358095D01*
X83702438Y-150358095D02*
X83750057Y-150310476D01*
X83750057Y-150310476D02*
X83845295Y-150262857D01*
X83845295Y-150262857D02*
X83988152Y-150262857D01*
X83988152Y-150262857D02*
X84083390Y-150310476D01*
X84083390Y-150310476D02*
X84131009Y-150358095D01*
X84131009Y-150358095D02*
X84178628Y-150453333D01*
X84178628Y-150453333D02*
X84178628Y-150834285D01*
X84750057Y-150072381D02*
X84750057Y-149310476D01*
X84654819Y-149072380D02*
X83654819Y-149072380D01*
X84035771Y-149072380D02*
X83988152Y-148977142D01*
X83988152Y-148977142D02*
X83988152Y-148786666D01*
X83988152Y-148786666D02*
X84035771Y-148691428D01*
X84035771Y-148691428D02*
X84083390Y-148643809D01*
X84083390Y-148643809D02*
X84178628Y-148596190D01*
X84178628Y-148596190D02*
X84464342Y-148596190D01*
X84464342Y-148596190D02*
X84559580Y-148643809D01*
X84559580Y-148643809D02*
X84607200Y-148691428D01*
X84607200Y-148691428D02*
X84654819Y-148786666D01*
X84654819Y-148786666D02*
X84654819Y-148977142D01*
X84654819Y-148977142D02*
X84607200Y-149072380D01*
X84654819Y-148024761D02*
X84607200Y-148119999D01*
X84607200Y-148119999D02*
X84559580Y-148167618D01*
X84559580Y-148167618D02*
X84464342Y-148215237D01*
X84464342Y-148215237D02*
X84178628Y-148215237D01*
X84178628Y-148215237D02*
X84083390Y-148167618D01*
X84083390Y-148167618D02*
X84035771Y-148119999D01*
X84035771Y-148119999D02*
X83988152Y-148024761D01*
X83988152Y-148024761D02*
X83988152Y-147881904D01*
X83988152Y-147881904D02*
X84035771Y-147786666D01*
X84035771Y-147786666D02*
X84083390Y-147739047D01*
X84083390Y-147739047D02*
X84178628Y-147691428D01*
X84178628Y-147691428D02*
X84464342Y-147691428D01*
X84464342Y-147691428D02*
X84559580Y-147739047D01*
X84559580Y-147739047D02*
X84607200Y-147786666D01*
X84607200Y-147786666D02*
X84654819Y-147881904D01*
X84654819Y-147881904D02*
X84654819Y-148024761D01*
X83988152Y-147405713D02*
X83988152Y-147024761D01*
X83654819Y-147262856D02*
X84511961Y-147262856D01*
X84511961Y-147262856D02*
X84607200Y-147215237D01*
X84607200Y-147215237D02*
X84654819Y-147119999D01*
X84654819Y-147119999D02*
X84654819Y-147024761D01*
X83988152Y-146834284D02*
X83988152Y-146453332D01*
X83654819Y-146691427D02*
X84511961Y-146691427D01*
X84511961Y-146691427D02*
X84607200Y-146643808D01*
X84607200Y-146643808D02*
X84654819Y-146548570D01*
X84654819Y-146548570D02*
X84654819Y-146453332D01*
X84654819Y-145977141D02*
X84607200Y-146072379D01*
X84607200Y-146072379D02*
X84559580Y-146119998D01*
X84559580Y-146119998D02*
X84464342Y-146167617D01*
X84464342Y-146167617D02*
X84178628Y-146167617D01*
X84178628Y-146167617D02*
X84083390Y-146119998D01*
X84083390Y-146119998D02*
X84035771Y-146072379D01*
X84035771Y-146072379D02*
X83988152Y-145977141D01*
X83988152Y-145977141D02*
X83988152Y-145834284D01*
X83988152Y-145834284D02*
X84035771Y-145739046D01*
X84035771Y-145739046D02*
X84083390Y-145691427D01*
X84083390Y-145691427D02*
X84178628Y-145643808D01*
X84178628Y-145643808D02*
X84464342Y-145643808D01*
X84464342Y-145643808D02*
X84559580Y-145691427D01*
X84559580Y-145691427D02*
X84607200Y-145739046D01*
X84607200Y-145739046D02*
X84654819Y-145834284D01*
X84654819Y-145834284D02*
X84654819Y-145977141D01*
X84654819Y-145215236D02*
X83988152Y-145215236D01*
X84083390Y-145215236D02*
X84035771Y-145167617D01*
X84035771Y-145167617D02*
X83988152Y-145072379D01*
X83988152Y-145072379D02*
X83988152Y-144929522D01*
X83988152Y-144929522D02*
X84035771Y-144834284D01*
X84035771Y-144834284D02*
X84131009Y-144786665D01*
X84131009Y-144786665D02*
X84654819Y-144786665D01*
X84131009Y-144786665D02*
X84035771Y-144739046D01*
X84035771Y-144739046D02*
X83988152Y-144643808D01*
X83988152Y-144643808D02*
X83988152Y-144500951D01*
X83988152Y-144500951D02*
X84035771Y-144405712D01*
X84035771Y-144405712D02*
X84131009Y-144358093D01*
X84131009Y-144358093D02*
X84654819Y-144358093D01*
X84654819Y-143358094D02*
X84654819Y-143929522D01*
X84654819Y-143643808D02*
X83654819Y-143643808D01*
X83654819Y-143643808D02*
X83797676Y-143739046D01*
X83797676Y-143739046D02*
X83892914Y-143834284D01*
X83892914Y-143834284D02*
X83940533Y-143929522D01*
X84284819Y-145199404D02*
X85094342Y-145199404D01*
X85094342Y-145199404D02*
X85189580Y-145151785D01*
X85189580Y-145151785D02*
X85237200Y-145104166D01*
X85237200Y-145104166D02*
X85284819Y-145008928D01*
X85284819Y-145008928D02*
X85284819Y-144818452D01*
X85284819Y-144818452D02*
X85237200Y-144723214D01*
X85237200Y-144723214D02*
X85189580Y-144675595D01*
X85189580Y-144675595D02*
X85094342Y-144627976D01*
X85094342Y-144627976D02*
X84284819Y-144627976D01*
X84380057Y-144199404D02*
X84332438Y-144151785D01*
X84332438Y-144151785D02*
X84284819Y-144056547D01*
X84284819Y-144056547D02*
X84284819Y-143818452D01*
X84284819Y-143818452D02*
X84332438Y-143723214D01*
X84332438Y-143723214D02*
X84380057Y-143675595D01*
X84380057Y-143675595D02*
X84475295Y-143627976D01*
X84475295Y-143627976D02*
X84570533Y-143627976D01*
X84570533Y-143627976D02*
X84713390Y-143675595D01*
X84713390Y-143675595D02*
X85284819Y-144247023D01*
X85284819Y-144247023D02*
X85284819Y-143627976D01*
X76367142Y-171144819D02*
X76033809Y-170668628D01*
X75795714Y-171144819D02*
X75795714Y-170144819D01*
X75795714Y-170144819D02*
X76176666Y-170144819D01*
X76176666Y-170144819D02*
X76271904Y-170192438D01*
X76271904Y-170192438D02*
X76319523Y-170240057D01*
X76319523Y-170240057D02*
X76367142Y-170335295D01*
X76367142Y-170335295D02*
X76367142Y-170478152D01*
X76367142Y-170478152D02*
X76319523Y-170573390D01*
X76319523Y-170573390D02*
X76271904Y-170621009D01*
X76271904Y-170621009D02*
X76176666Y-170668628D01*
X76176666Y-170668628D02*
X75795714Y-170668628D01*
X76748095Y-170240057D02*
X76795714Y-170192438D01*
X76795714Y-170192438D02*
X76890952Y-170144819D01*
X76890952Y-170144819D02*
X77129047Y-170144819D01*
X77129047Y-170144819D02*
X77224285Y-170192438D01*
X77224285Y-170192438D02*
X77271904Y-170240057D01*
X77271904Y-170240057D02*
X77319523Y-170335295D01*
X77319523Y-170335295D02*
X77319523Y-170430533D01*
X77319523Y-170430533D02*
X77271904Y-170573390D01*
X77271904Y-170573390D02*
X76700476Y-171144819D01*
X76700476Y-171144819D02*
X77319523Y-171144819D01*
X77795714Y-171144819D02*
X77986190Y-171144819D01*
X77986190Y-171144819D02*
X78081428Y-171097200D01*
X78081428Y-171097200D02*
X78129047Y-171049580D01*
X78129047Y-171049580D02*
X78224285Y-170906723D01*
X78224285Y-170906723D02*
X78271904Y-170716247D01*
X78271904Y-170716247D02*
X78271904Y-170335295D01*
X78271904Y-170335295D02*
X78224285Y-170240057D01*
X78224285Y-170240057D02*
X78176666Y-170192438D01*
X78176666Y-170192438D02*
X78081428Y-170144819D01*
X78081428Y-170144819D02*
X77890952Y-170144819D01*
X77890952Y-170144819D02*
X77795714Y-170192438D01*
X77795714Y-170192438D02*
X77748095Y-170240057D01*
X77748095Y-170240057D02*
X77700476Y-170335295D01*
X77700476Y-170335295D02*
X77700476Y-170573390D01*
X77700476Y-170573390D02*
X77748095Y-170668628D01*
X77748095Y-170668628D02*
X77795714Y-170716247D01*
X77795714Y-170716247D02*
X77890952Y-170763866D01*
X77890952Y-170763866D02*
X78081428Y-170763866D01*
X78081428Y-170763866D02*
X78176666Y-170716247D01*
X78176666Y-170716247D02*
X78224285Y-170668628D01*
X78224285Y-170668628D02*
X78271904Y-170573390D01*
X84854819Y-58683333D02*
X85569104Y-58683333D01*
X85569104Y-58683333D02*
X85711961Y-58730952D01*
X85711961Y-58730952D02*
X85807200Y-58826190D01*
X85807200Y-58826190D02*
X85854819Y-58969047D01*
X85854819Y-58969047D02*
X85854819Y-59064285D01*
X84854819Y-57778571D02*
X84854819Y-57969047D01*
X84854819Y-57969047D02*
X84902438Y-58064285D01*
X84902438Y-58064285D02*
X84950057Y-58111904D01*
X84950057Y-58111904D02*
X85092914Y-58207142D01*
X85092914Y-58207142D02*
X85283390Y-58254761D01*
X85283390Y-58254761D02*
X85664342Y-58254761D01*
X85664342Y-58254761D02*
X85759580Y-58207142D01*
X85759580Y-58207142D02*
X85807200Y-58159523D01*
X85807200Y-58159523D02*
X85854819Y-58064285D01*
X85854819Y-58064285D02*
X85854819Y-57873809D01*
X85854819Y-57873809D02*
X85807200Y-57778571D01*
X85807200Y-57778571D02*
X85759580Y-57730952D01*
X85759580Y-57730952D02*
X85664342Y-57683333D01*
X85664342Y-57683333D02*
X85426247Y-57683333D01*
X85426247Y-57683333D02*
X85331009Y-57730952D01*
X85331009Y-57730952D02*
X85283390Y-57778571D01*
X85283390Y-57778571D02*
X85235771Y-57873809D01*
X85235771Y-57873809D02*
X85235771Y-58064285D01*
X85235771Y-58064285D02*
X85283390Y-58159523D01*
X85283390Y-58159523D02*
X85331009Y-58207142D01*
X85331009Y-58207142D02*
X85426247Y-58254761D01*
X85004819Y-143526666D02*
X84528628Y-143859999D01*
X85004819Y-144098094D02*
X84004819Y-144098094D01*
X84004819Y-144098094D02*
X84004819Y-143717142D01*
X84004819Y-143717142D02*
X84052438Y-143621904D01*
X84052438Y-143621904D02*
X84100057Y-143574285D01*
X84100057Y-143574285D02*
X84195295Y-143526666D01*
X84195295Y-143526666D02*
X84338152Y-143526666D01*
X84338152Y-143526666D02*
X84433390Y-143574285D01*
X84433390Y-143574285D02*
X84481009Y-143621904D01*
X84481009Y-143621904D02*
X84528628Y-143717142D01*
X84528628Y-143717142D02*
X84528628Y-144098094D01*
X84004819Y-142621904D02*
X84004819Y-143098094D01*
X84004819Y-143098094D02*
X84481009Y-143145713D01*
X84481009Y-143145713D02*
X84433390Y-143098094D01*
X84433390Y-143098094D02*
X84385771Y-143002856D01*
X84385771Y-143002856D02*
X84385771Y-142764761D01*
X84385771Y-142764761D02*
X84433390Y-142669523D01*
X84433390Y-142669523D02*
X84481009Y-142621904D01*
X84481009Y-142621904D02*
X84576247Y-142574285D01*
X84576247Y-142574285D02*
X84814342Y-142574285D01*
X84814342Y-142574285D02*
X84909580Y-142621904D01*
X84909580Y-142621904D02*
X84957200Y-142669523D01*
X84957200Y-142669523D02*
X85004819Y-142764761D01*
X85004819Y-142764761D02*
X85004819Y-143002856D01*
X85004819Y-143002856D02*
X84957200Y-143098094D01*
X84957200Y-143098094D02*
X84909580Y-143145713D01*
X57383333Y-26034819D02*
X57050000Y-25558628D01*
X56811905Y-26034819D02*
X56811905Y-25034819D01*
X56811905Y-25034819D02*
X57192857Y-25034819D01*
X57192857Y-25034819D02*
X57288095Y-25082438D01*
X57288095Y-25082438D02*
X57335714Y-25130057D01*
X57335714Y-25130057D02*
X57383333Y-25225295D01*
X57383333Y-25225295D02*
X57383333Y-25368152D01*
X57383333Y-25368152D02*
X57335714Y-25463390D01*
X57335714Y-25463390D02*
X57288095Y-25511009D01*
X57288095Y-25511009D02*
X57192857Y-25558628D01*
X57192857Y-25558628D02*
X56811905Y-25558628D01*
X57764286Y-25130057D02*
X57811905Y-25082438D01*
X57811905Y-25082438D02*
X57907143Y-25034819D01*
X57907143Y-25034819D02*
X58145238Y-25034819D01*
X58145238Y-25034819D02*
X58240476Y-25082438D01*
X58240476Y-25082438D02*
X58288095Y-25130057D01*
X58288095Y-25130057D02*
X58335714Y-25225295D01*
X58335714Y-25225295D02*
X58335714Y-25320533D01*
X58335714Y-25320533D02*
X58288095Y-25463390D01*
X58288095Y-25463390D02*
X57716667Y-26034819D01*
X57716667Y-26034819D02*
X58335714Y-26034819D01*
X55983333Y-27660180D02*
X55983333Y-26945895D01*
X55983333Y-26945895D02*
X56030952Y-26803038D01*
X56030952Y-26803038D02*
X56126190Y-26707800D01*
X56126190Y-26707800D02*
X56269047Y-26660180D01*
X56269047Y-26660180D02*
X56364285Y-26660180D01*
X54983333Y-26660180D02*
X55554761Y-26660180D01*
X55269047Y-26660180D02*
X55269047Y-27660180D01*
X55269047Y-27660180D02*
X55364285Y-27517323D01*
X55364285Y-27517323D02*
X55459523Y-27422085D01*
X55459523Y-27422085D02*
X55554761Y-27374466D01*
X80906905Y-154954819D02*
X80906905Y-153954819D01*
X80906905Y-153954819D02*
X81145000Y-153954819D01*
X81145000Y-153954819D02*
X81287857Y-154002438D01*
X81287857Y-154002438D02*
X81383095Y-154097676D01*
X81383095Y-154097676D02*
X81430714Y-154192914D01*
X81430714Y-154192914D02*
X81478333Y-154383390D01*
X81478333Y-154383390D02*
X81478333Y-154526247D01*
X81478333Y-154526247D02*
X81430714Y-154716723D01*
X81430714Y-154716723D02*
X81383095Y-154811961D01*
X81383095Y-154811961D02*
X81287857Y-154907200D01*
X81287857Y-154907200D02*
X81145000Y-154954819D01*
X81145000Y-154954819D02*
X80906905Y-154954819D01*
X81859286Y-154050057D02*
X81906905Y-154002438D01*
X81906905Y-154002438D02*
X82002143Y-153954819D01*
X82002143Y-153954819D02*
X82240238Y-153954819D01*
X82240238Y-153954819D02*
X82335476Y-154002438D01*
X82335476Y-154002438D02*
X82383095Y-154050057D01*
X82383095Y-154050057D02*
X82430714Y-154145295D01*
X82430714Y-154145295D02*
X82430714Y-154240533D01*
X82430714Y-154240533D02*
X82383095Y-154383390D01*
X82383095Y-154383390D02*
X81811667Y-154954819D01*
X81811667Y-154954819D02*
X82430714Y-154954819D01*
X84154819Y-175983333D02*
X84869104Y-175983333D01*
X84869104Y-175983333D02*
X85011961Y-176030952D01*
X85011961Y-176030952D02*
X85107200Y-176126190D01*
X85107200Y-176126190D02*
X85154819Y-176269047D01*
X85154819Y-176269047D02*
X85154819Y-176364285D01*
X84488152Y-175078571D02*
X85154819Y-175078571D01*
X84107200Y-175316666D02*
X84821485Y-175554761D01*
X84821485Y-175554761D02*
X84821485Y-174935714D01*
X53138333Y-26084819D02*
X52805000Y-25608628D01*
X52566905Y-26084819D02*
X52566905Y-25084819D01*
X52566905Y-25084819D02*
X52947857Y-25084819D01*
X52947857Y-25084819D02*
X53043095Y-25132438D01*
X53043095Y-25132438D02*
X53090714Y-25180057D01*
X53090714Y-25180057D02*
X53138333Y-25275295D01*
X53138333Y-25275295D02*
X53138333Y-25418152D01*
X53138333Y-25418152D02*
X53090714Y-25513390D01*
X53090714Y-25513390D02*
X53043095Y-25561009D01*
X53043095Y-25561009D02*
X52947857Y-25608628D01*
X52947857Y-25608628D02*
X52566905Y-25608628D01*
X53471667Y-25084819D02*
X54090714Y-25084819D01*
X54090714Y-25084819D02*
X53757381Y-25465771D01*
X53757381Y-25465771D02*
X53900238Y-25465771D01*
X53900238Y-25465771D02*
X53995476Y-25513390D01*
X53995476Y-25513390D02*
X54043095Y-25561009D01*
X54043095Y-25561009D02*
X54090714Y-25656247D01*
X54090714Y-25656247D02*
X54090714Y-25894342D01*
X54090714Y-25894342D02*
X54043095Y-25989580D01*
X54043095Y-25989580D02*
X53995476Y-26037200D01*
X53995476Y-26037200D02*
X53900238Y-26084819D01*
X53900238Y-26084819D02*
X53614524Y-26084819D01*
X53614524Y-26084819D02*
X53519286Y-26037200D01*
X53519286Y-26037200D02*
X53471667Y-25989580D01*
X93454819Y-159309523D02*
X94169104Y-159309523D01*
X94169104Y-159309523D02*
X94311961Y-159357142D01*
X94311961Y-159357142D02*
X94407200Y-159452380D01*
X94407200Y-159452380D02*
X94454819Y-159595237D01*
X94454819Y-159595237D02*
X94454819Y-159690475D01*
X94454819Y-158309523D02*
X94454819Y-158880951D01*
X94454819Y-158595237D02*
X93454819Y-158595237D01*
X93454819Y-158595237D02*
X93597676Y-158690475D01*
X93597676Y-158690475D02*
X93692914Y-158785713D01*
X93692914Y-158785713D02*
X93740533Y-158880951D01*
X93454819Y-157404761D02*
X93454819Y-157880951D01*
X93454819Y-157880951D02*
X93931009Y-157928570D01*
X93931009Y-157928570D02*
X93883390Y-157880951D01*
X93883390Y-157880951D02*
X93835771Y-157785713D01*
X93835771Y-157785713D02*
X93835771Y-157547618D01*
X93835771Y-157547618D02*
X93883390Y-157452380D01*
X93883390Y-157452380D02*
X93931009Y-157404761D01*
X93931009Y-157404761D02*
X94026247Y-157357142D01*
X94026247Y-157357142D02*
X94264342Y-157357142D01*
X94264342Y-157357142D02*
X94359580Y-157404761D01*
X94359580Y-157404761D02*
X94407200Y-157452380D01*
X94407200Y-157452380D02*
X94454819Y-157547618D01*
X94454819Y-157547618D02*
X94454819Y-157785713D01*
X94454819Y-157785713D02*
X94407200Y-157880951D01*
X94407200Y-157880951D02*
X94359580Y-157928570D01*
X79373333Y-162929580D02*
X79325714Y-162977200D01*
X79325714Y-162977200D02*
X79182857Y-163024819D01*
X79182857Y-163024819D02*
X79087619Y-163024819D01*
X79087619Y-163024819D02*
X78944762Y-162977200D01*
X78944762Y-162977200D02*
X78849524Y-162881961D01*
X78849524Y-162881961D02*
X78801905Y-162786723D01*
X78801905Y-162786723D02*
X78754286Y-162596247D01*
X78754286Y-162596247D02*
X78754286Y-162453390D01*
X78754286Y-162453390D02*
X78801905Y-162262914D01*
X78801905Y-162262914D02*
X78849524Y-162167676D01*
X78849524Y-162167676D02*
X78944762Y-162072438D01*
X78944762Y-162072438D02*
X79087619Y-162024819D01*
X79087619Y-162024819D02*
X79182857Y-162024819D01*
X79182857Y-162024819D02*
X79325714Y-162072438D01*
X79325714Y-162072438D02*
X79373333Y-162120057D01*
X79706667Y-162024819D02*
X80325714Y-162024819D01*
X80325714Y-162024819D02*
X79992381Y-162405771D01*
X79992381Y-162405771D02*
X80135238Y-162405771D01*
X80135238Y-162405771D02*
X80230476Y-162453390D01*
X80230476Y-162453390D02*
X80278095Y-162501009D01*
X80278095Y-162501009D02*
X80325714Y-162596247D01*
X80325714Y-162596247D02*
X80325714Y-162834342D01*
X80325714Y-162834342D02*
X80278095Y-162929580D01*
X80278095Y-162929580D02*
X80230476Y-162977200D01*
X80230476Y-162977200D02*
X80135238Y-163024819D01*
X80135238Y-163024819D02*
X79849524Y-163024819D01*
X79849524Y-163024819D02*
X79754286Y-162977200D01*
X79754286Y-162977200D02*
X79706667Y-162929580D01*
X76228095Y-141704819D02*
X76228095Y-142514342D01*
X76228095Y-142514342D02*
X76275714Y-142609580D01*
X76275714Y-142609580D02*
X76323333Y-142657200D01*
X76323333Y-142657200D02*
X76418571Y-142704819D01*
X76418571Y-142704819D02*
X76609047Y-142704819D01*
X76609047Y-142704819D02*
X76704285Y-142657200D01*
X76704285Y-142657200D02*
X76751904Y-142609580D01*
X76751904Y-142609580D02*
X76799523Y-142514342D01*
X76799523Y-142514342D02*
X76799523Y-141704819D01*
X77751904Y-141704819D02*
X77275714Y-141704819D01*
X77275714Y-141704819D02*
X77228095Y-142181009D01*
X77228095Y-142181009D02*
X77275714Y-142133390D01*
X77275714Y-142133390D02*
X77370952Y-142085771D01*
X77370952Y-142085771D02*
X77609047Y-142085771D01*
X77609047Y-142085771D02*
X77704285Y-142133390D01*
X77704285Y-142133390D02*
X77751904Y-142181009D01*
X77751904Y-142181009D02*
X77799523Y-142276247D01*
X77799523Y-142276247D02*
X77799523Y-142514342D01*
X77799523Y-142514342D02*
X77751904Y-142609580D01*
X77751904Y-142609580D02*
X77704285Y-142657200D01*
X77704285Y-142657200D02*
X77609047Y-142704819D01*
X77609047Y-142704819D02*
X77370952Y-142704819D01*
X77370952Y-142704819D02*
X77275714Y-142657200D01*
X77275714Y-142657200D02*
X77228095Y-142609580D01*
X78804819Y-167648094D02*
X79614342Y-167648094D01*
X79614342Y-167648094D02*
X79709580Y-167600475D01*
X79709580Y-167600475D02*
X79757200Y-167552856D01*
X79757200Y-167552856D02*
X79804819Y-167457618D01*
X79804819Y-167457618D02*
X79804819Y-167267142D01*
X79804819Y-167267142D02*
X79757200Y-167171904D01*
X79757200Y-167171904D02*
X79709580Y-167124285D01*
X79709580Y-167124285D02*
X79614342Y-167076666D01*
X79614342Y-167076666D02*
X78804819Y-167076666D01*
X79804819Y-166076666D02*
X79804819Y-166648094D01*
X79804819Y-166362380D02*
X78804819Y-166362380D01*
X78804819Y-166362380D02*
X78947676Y-166457618D01*
X78947676Y-166457618D02*
X79042914Y-166552856D01*
X79042914Y-166552856D02*
X79090533Y-166648094D01*
X79233390Y-165505237D02*
X79185771Y-165600475D01*
X79185771Y-165600475D02*
X79138152Y-165648094D01*
X79138152Y-165648094D02*
X79042914Y-165695713D01*
X79042914Y-165695713D02*
X78995295Y-165695713D01*
X78995295Y-165695713D02*
X78900057Y-165648094D01*
X78900057Y-165648094D02*
X78852438Y-165600475D01*
X78852438Y-165600475D02*
X78804819Y-165505237D01*
X78804819Y-165505237D02*
X78804819Y-165314761D01*
X78804819Y-165314761D02*
X78852438Y-165219523D01*
X78852438Y-165219523D02*
X78900057Y-165171904D01*
X78900057Y-165171904D02*
X78995295Y-165124285D01*
X78995295Y-165124285D02*
X79042914Y-165124285D01*
X79042914Y-165124285D02*
X79138152Y-165171904D01*
X79138152Y-165171904D02*
X79185771Y-165219523D01*
X79185771Y-165219523D02*
X79233390Y-165314761D01*
X79233390Y-165314761D02*
X79233390Y-165505237D01*
X79233390Y-165505237D02*
X79281009Y-165600475D01*
X79281009Y-165600475D02*
X79328628Y-165648094D01*
X79328628Y-165648094D02*
X79423866Y-165695713D01*
X79423866Y-165695713D02*
X79614342Y-165695713D01*
X79614342Y-165695713D02*
X79709580Y-165648094D01*
X79709580Y-165648094D02*
X79757200Y-165600475D01*
X79757200Y-165600475D02*
X79804819Y-165505237D01*
X79804819Y-165505237D02*
X79804819Y-165314761D01*
X79804819Y-165314761D02*
X79757200Y-165219523D01*
X79757200Y-165219523D02*
X79709580Y-165171904D01*
X79709580Y-165171904D02*
X79614342Y-165124285D01*
X79614342Y-165124285D02*
X79423866Y-165124285D01*
X79423866Y-165124285D02*
X79328628Y-165171904D01*
X79328628Y-165171904D02*
X79281009Y-165219523D01*
X79281009Y-165219523D02*
X79233390Y-165314761D01*
X80288333Y-156169580D02*
X80240714Y-156217200D01*
X80240714Y-156217200D02*
X80097857Y-156264819D01*
X80097857Y-156264819D02*
X80002619Y-156264819D01*
X80002619Y-156264819D02*
X79859762Y-156217200D01*
X79859762Y-156217200D02*
X79764524Y-156121961D01*
X79764524Y-156121961D02*
X79716905Y-156026723D01*
X79716905Y-156026723D02*
X79669286Y-155836247D01*
X79669286Y-155836247D02*
X79669286Y-155693390D01*
X79669286Y-155693390D02*
X79716905Y-155502914D01*
X79716905Y-155502914D02*
X79764524Y-155407676D01*
X79764524Y-155407676D02*
X79859762Y-155312438D01*
X79859762Y-155312438D02*
X80002619Y-155264819D01*
X80002619Y-155264819D02*
X80097857Y-155264819D01*
X80097857Y-155264819D02*
X80240714Y-155312438D01*
X80240714Y-155312438D02*
X80288333Y-155360057D01*
X80669286Y-155360057D02*
X80716905Y-155312438D01*
X80716905Y-155312438D02*
X80812143Y-155264819D01*
X80812143Y-155264819D02*
X81050238Y-155264819D01*
X81050238Y-155264819D02*
X81145476Y-155312438D01*
X81145476Y-155312438D02*
X81193095Y-155360057D01*
X81193095Y-155360057D02*
X81240714Y-155455295D01*
X81240714Y-155455295D02*
X81240714Y-155550533D01*
X81240714Y-155550533D02*
X81193095Y-155693390D01*
X81193095Y-155693390D02*
X80621667Y-156264819D01*
X80621667Y-156264819D02*
X81240714Y-156264819D01*
X83574819Y-156316666D02*
X83098628Y-156649999D01*
X83574819Y-156888094D02*
X82574819Y-156888094D01*
X82574819Y-156888094D02*
X82574819Y-156507142D01*
X82574819Y-156507142D02*
X82622438Y-156411904D01*
X82622438Y-156411904D02*
X82670057Y-156364285D01*
X82670057Y-156364285D02*
X82765295Y-156316666D01*
X82765295Y-156316666D02*
X82908152Y-156316666D01*
X82908152Y-156316666D02*
X83003390Y-156364285D01*
X83003390Y-156364285D02*
X83051009Y-156411904D01*
X83051009Y-156411904D02*
X83098628Y-156507142D01*
X83098628Y-156507142D02*
X83098628Y-156888094D01*
X82574819Y-155983332D02*
X82574819Y-155316666D01*
X82574819Y-155316666D02*
X83574819Y-155745237D01*
X80569580Y-165746666D02*
X80617200Y-165794285D01*
X80617200Y-165794285D02*
X80664819Y-165937142D01*
X80664819Y-165937142D02*
X80664819Y-166032380D01*
X80664819Y-166032380D02*
X80617200Y-166175237D01*
X80617200Y-166175237D02*
X80521961Y-166270475D01*
X80521961Y-166270475D02*
X80426723Y-166318094D01*
X80426723Y-166318094D02*
X80236247Y-166365713D01*
X80236247Y-166365713D02*
X80093390Y-166365713D01*
X80093390Y-166365713D02*
X79902914Y-166318094D01*
X79902914Y-166318094D02*
X79807676Y-166270475D01*
X79807676Y-166270475D02*
X79712438Y-166175237D01*
X79712438Y-166175237D02*
X79664819Y-166032380D01*
X79664819Y-166032380D02*
X79664819Y-165937142D01*
X79664819Y-165937142D02*
X79712438Y-165794285D01*
X79712438Y-165794285D02*
X79760057Y-165746666D01*
X79664819Y-164841904D02*
X79664819Y-165318094D01*
X79664819Y-165318094D02*
X80141009Y-165365713D01*
X80141009Y-165365713D02*
X80093390Y-165318094D01*
X80093390Y-165318094D02*
X80045771Y-165222856D01*
X80045771Y-165222856D02*
X80045771Y-164984761D01*
X80045771Y-164984761D02*
X80093390Y-164889523D01*
X80093390Y-164889523D02*
X80141009Y-164841904D01*
X80141009Y-164841904D02*
X80236247Y-164794285D01*
X80236247Y-164794285D02*
X80474342Y-164794285D01*
X80474342Y-164794285D02*
X80569580Y-164841904D01*
X80569580Y-164841904D02*
X80617200Y-164889523D01*
X80617200Y-164889523D02*
X80664819Y-164984761D01*
X80664819Y-164984761D02*
X80664819Y-165222856D01*
X80664819Y-165222856D02*
X80617200Y-165318094D01*
X80617200Y-165318094D02*
X80569580Y-165365713D01*
X78468095Y-156279819D02*
X78468095Y-157089342D01*
X78468095Y-157089342D02*
X78515714Y-157184580D01*
X78515714Y-157184580D02*
X78563333Y-157232200D01*
X78563333Y-157232200D02*
X78658571Y-157279819D01*
X78658571Y-157279819D02*
X78849047Y-157279819D01*
X78849047Y-157279819D02*
X78944285Y-157232200D01*
X78944285Y-157232200D02*
X78991904Y-157184580D01*
X78991904Y-157184580D02*
X79039523Y-157089342D01*
X79039523Y-157089342D02*
X79039523Y-156279819D01*
X79944285Y-156613152D02*
X79944285Y-157279819D01*
X79706190Y-156232200D02*
X79468095Y-156946485D01*
X79468095Y-156946485D02*
X80087142Y-156946485D01*
X26518095Y-163414819D02*
X26518095Y-164224342D01*
X26518095Y-164224342D02*
X26565714Y-164319580D01*
X26565714Y-164319580D02*
X26613333Y-164367200D01*
X26613333Y-164367200D02*
X26708571Y-164414819D01*
X26708571Y-164414819D02*
X26899047Y-164414819D01*
X26899047Y-164414819D02*
X26994285Y-164367200D01*
X26994285Y-164367200D02*
X27041904Y-164319580D01*
X27041904Y-164319580D02*
X27089523Y-164224342D01*
X27089523Y-164224342D02*
X27089523Y-163414819D01*
X28089523Y-164414819D02*
X27518095Y-164414819D01*
X27803809Y-164414819D02*
X27803809Y-163414819D01*
X27803809Y-163414819D02*
X27708571Y-163557676D01*
X27708571Y-163557676D02*
X27613333Y-163652914D01*
X27613333Y-163652914D02*
X27518095Y-163700533D01*
D12*
%TO.C,J3*%
X62190000Y-19095000D02*
X62925000Y-19095000D01*
X62190000Y-19830000D02*
X62190000Y-19095000D01*
X63463725Y-21330000D02*
X64285000Y-21330000D01*
X63463725Y-22330000D02*
X64285000Y-22330000D01*
X63463725Y-23330000D02*
X64285000Y-23330000D01*
X63660000Y-19220000D02*
X64285000Y-19220000D01*
X63660000Y-20330000D02*
X64285000Y-20330000D01*
X64285000Y-19220000D02*
X64285000Y-24440000D01*
X64285000Y-20570000D02*
X66285000Y-20570000D01*
X64285000Y-21570000D02*
X66285000Y-21570000D01*
X64285000Y-22570000D02*
X66285000Y-22570000D01*
X64285000Y-23570000D02*
X66285000Y-23570000D01*
X64285000Y-24440000D02*
X63335030Y-24440000D01*
X66285000Y-20570000D02*
X66285000Y-21090000D01*
X66285000Y-21090000D02*
X64285000Y-21090000D01*
X66285000Y-21570000D02*
X66285000Y-22090000D01*
X66285000Y-22090000D02*
X64285000Y-22090000D01*
X66285000Y-22570000D02*
X66285000Y-23090000D01*
X66285000Y-23090000D02*
X64285000Y-23090000D01*
X66285000Y-23570000D02*
X66285000Y-24090000D01*
X66285000Y-24090000D02*
X64285000Y-24090000D01*
X64285000Y-19570000D02*
X66285000Y-19570000D01*
X66285000Y-20090000D01*
X64285000Y-20090000D01*
X64285000Y-19570000D01*
G36*
X64285000Y-19570000D02*
G01*
X66285000Y-19570000D01*
X66285000Y-20090000D01*
X64285000Y-20090000D01*
X64285000Y-19570000D01*
G37*
%TO.C,J2*%
X18940000Y-116815000D02*
X19675000Y-116815000D01*
X18940000Y-117550000D02*
X18940000Y-116815000D01*
X20410000Y-116940000D02*
X21035000Y-116940000D01*
X20410000Y-118050000D02*
X21035000Y-118050000D01*
X21035000Y-116940000D02*
X21035000Y-119160000D01*
X21035000Y-118290000D02*
X23035000Y-118290000D01*
X21035000Y-119160000D02*
X20085030Y-119160000D01*
X23035000Y-118290000D02*
X23035000Y-118810000D01*
X23035000Y-118810000D02*
X21035000Y-118810000D01*
X21035000Y-117290000D02*
X23035000Y-117290000D01*
X23035000Y-117810000D01*
X21035000Y-117810000D01*
X21035000Y-117290000D01*
G36*
X21035000Y-117290000D02*
G01*
X23035000Y-117290000D01*
X23035000Y-117810000D01*
X21035000Y-117810000D01*
X21035000Y-117290000D01*
G37*
%TO.C,R17*%
X83900000Y-164993641D02*
X83900000Y-164686359D01*
X84660000Y-164993641D02*
X84660000Y-164686359D01*
%TO.C,R18*%
X83810000Y-167936359D02*
X83810000Y-168243641D01*
X84570000Y-167936359D02*
X84570000Y-168243641D01*
%TO.C,J8*%
X75950000Y-147650000D02*
X75950000Y-153770000D01*
X75950000Y-150210000D02*
X80310000Y-150210000D01*
X75950000Y-153770000D02*
X83770000Y-153770000D01*
X78210000Y-148410000D02*
X78210000Y-149410000D01*
X78210000Y-148910000D02*
X75950000Y-148910000D01*
X78210000Y-149410000D02*
X75950000Y-149410000D01*
X78210000Y-149410000D02*
X79810000Y-149410000D01*
X78210000Y-152010000D02*
X79810000Y-152010000D01*
X78210000Y-153010000D02*
X78210000Y-152010000D01*
X79810000Y-148410000D02*
X78210000Y-148410000D01*
X79810000Y-149410000D02*
X79810000Y-148410000D01*
X79810000Y-152010000D02*
X79810000Y-153010000D01*
X79810000Y-153010000D02*
X78210000Y-153010000D01*
X80310000Y-150210000D02*
X80310000Y-151210000D01*
X80310000Y-151210000D02*
X75950000Y-151210000D01*
X82170000Y-147650000D02*
X82170000Y-148570000D01*
X82170000Y-148570000D02*
X83770000Y-148570000D01*
X82170000Y-148850000D02*
X82170000Y-148570000D01*
X82170000Y-148850000D02*
X83385000Y-148850000D01*
X82170000Y-152850000D02*
X82170000Y-152570000D01*
X82170000Y-153770000D02*
X82170000Y-152850000D01*
X83770000Y-147650000D02*
X75950000Y-147650000D01*
X83770000Y-148570000D02*
X83770000Y-147650000D01*
X83770000Y-152850000D02*
X82170000Y-152850000D01*
X83770000Y-153770000D02*
X83770000Y-152850000D01*
%TO.C,U2*%
X80390000Y-142827500D02*
X80865000Y-142827500D01*
X80390000Y-143302500D02*
X80390000Y-142827500D01*
X80390000Y-146047500D02*
X80390000Y-145572500D01*
X80865000Y-146047500D02*
X80390000Y-146047500D01*
X83135000Y-142827500D02*
X83610000Y-142827500D01*
X83610000Y-142827500D02*
X83610000Y-143302500D01*
X83610000Y-145572500D02*
X83610000Y-146047500D01*
X83610000Y-146047500D02*
X83135000Y-146047500D01*
X82750000Y-142297500D02*
X82510000Y-141967500D01*
X82990000Y-141967500D01*
X82750000Y-142297500D01*
G36*
X82750000Y-142297500D02*
G01*
X82510000Y-141967500D01*
X82990000Y-141967500D01*
X82750000Y-142297500D01*
G37*
%TO.C,R29*%
X77163641Y-169140000D02*
X76856359Y-169140000D01*
X77163641Y-169900000D02*
X76856359Y-169900000D01*
%TO.C,J6*%
X86165000Y-60460000D02*
X86165000Y-59725000D01*
X86290000Y-58365000D02*
X91510000Y-58365000D01*
X86290000Y-58990000D02*
X86290000Y-58365000D01*
X86900000Y-60460000D02*
X86165000Y-60460000D01*
X87400000Y-58990000D02*
X87400000Y-58365000D01*
X87640000Y-56365000D02*
X88160000Y-56365000D01*
X87640000Y-58365000D02*
X87640000Y-56365000D01*
X88160000Y-56365000D02*
X88160000Y-58365000D01*
X88400000Y-59186275D02*
X88400000Y-58365000D01*
X88640000Y-56365000D02*
X89160000Y-56365000D01*
X88640000Y-58365000D02*
X88640000Y-56365000D01*
X89160000Y-56365000D02*
X89160000Y-58365000D01*
X89400000Y-59186275D02*
X89400000Y-58365000D01*
X89640000Y-56365000D02*
X90160000Y-56365000D01*
X89640000Y-58365000D02*
X89640000Y-56365000D01*
X90160000Y-56365000D02*
X90160000Y-58365000D01*
X90400000Y-59186275D02*
X90400000Y-58365000D01*
X90640000Y-56365000D02*
X91160000Y-56365000D01*
X90640000Y-58365000D02*
X90640000Y-56365000D01*
X91160000Y-56365000D02*
X91160000Y-58365000D01*
X91510000Y-58365000D02*
X91510000Y-59314970D01*
X86640000Y-58365000D02*
X87160000Y-58365000D01*
X87160000Y-56365000D01*
X86640000Y-56365000D01*
X86640000Y-58365000D01*
G36*
X86640000Y-58365000D02*
G01*
X87160000Y-58365000D01*
X87160000Y-56365000D01*
X86640000Y-56365000D01*
X86640000Y-58365000D01*
G37*
%TO.C,J1*%
X50900000Y-17575000D02*
X50900000Y-17800000D01*
X50900000Y-20675000D02*
X50900000Y-23400000D01*
X58775000Y-26075000D02*
X58550000Y-26075000D01*
X60400000Y-17565000D02*
X60400000Y-17775000D01*
X60400000Y-23425000D02*
X60400000Y-20725000D01*
X60400000Y-25925000D02*
X50900000Y-25925000D01*
D13*
%TO.C,D2*%
X80835000Y-155550000D02*
G75*
G02*
X80735000Y-155550000I-50000J0D01*
G01*
X80735000Y-155550000D02*
G75*
G02*
X80835000Y-155550000I50000J0D01*
G01*
D12*
%TO.C,J4*%
X87100000Y-168500000D02*
X88440000Y-168500000D01*
X87100000Y-169990000D02*
X87100000Y-168500000D01*
X87100000Y-181310000D02*
X85900000Y-181310000D01*
X87100000Y-181310000D02*
X87100000Y-182800000D01*
X87100000Y-182800000D02*
X88440000Y-182800000D01*
X91160000Y-182800000D02*
X92900000Y-182800000D01*
X92900000Y-168500000D02*
X91160000Y-168500000D01*
X92900000Y-182800000D02*
X92900000Y-168500000D01*
%TO.C,J15*%
X85800000Y-151350000D02*
X85800000Y-165650000D01*
X85800000Y-165650000D02*
X87540000Y-165650000D01*
X87540000Y-151350000D02*
X85800000Y-151350000D01*
X91600000Y-151350000D02*
X90260000Y-151350000D01*
X91600000Y-152840000D02*
X91600000Y-151350000D01*
X91600000Y-152840000D02*
X92800000Y-152840000D01*
X91600000Y-164160000D02*
X91600000Y-165650000D01*
X91600000Y-165650000D02*
X90260000Y-165650000D01*
%TO.C,U5*%
X76080000Y-143090000D02*
X77900000Y-143090000D01*
X76080000Y-143140000D02*
X76080000Y-143090000D01*
X76080000Y-146210000D02*
X76080000Y-146160000D01*
X77900000Y-143090000D02*
X77900000Y-143140000D01*
X77900000Y-146160000D02*
X77900000Y-146210000D01*
X77900000Y-146210000D02*
X76080000Y-146210000D01*
X75540000Y-143140000D02*
X75300000Y-142810000D01*
X75780000Y-142810000D01*
X75540000Y-143140000D01*
G36*
X75540000Y-143140000D02*
G01*
X75300000Y-142810000D01*
X75780000Y-142810000D01*
X75540000Y-143140000D01*
G37*
%TO.C,U18*%
X75390000Y-165500000D02*
X75440000Y-165500000D01*
X75390000Y-167320000D02*
X75390000Y-165500000D01*
X75440000Y-167320000D02*
X75390000Y-167320000D01*
X77340000Y-167320000D02*
X76560000Y-167320000D01*
X78460000Y-165500000D02*
X78510000Y-165500000D01*
X78510000Y-165500000D02*
X78510000Y-167320000D01*
X78510000Y-167320000D02*
X78460000Y-167320000D01*
X78790000Y-165200000D02*
X78460000Y-164960000D01*
X78790000Y-164720000D01*
X78790000Y-165200000D01*
G36*
X78790000Y-165200000D02*
G01*
X78460000Y-164960000D01*
X78790000Y-164720000D01*
X78790000Y-165200000D01*
G37*
%TO.C,C5*%
X81155000Y-165841252D02*
X81155000Y-165318748D01*
X82625000Y-165841252D02*
X82625000Y-165318748D01*
%TO.C,U4*%
X77080000Y-158515000D02*
X77080000Y-158290000D01*
X77080000Y-162350000D02*
X77080000Y-161825000D01*
X77080000Y-162350000D02*
X77605000Y-162350000D01*
X77605000Y-158050000D02*
X77380000Y-158050000D01*
X81380000Y-158050000D02*
X80855000Y-158050000D01*
X81380000Y-158050000D02*
X81380000Y-158575000D01*
X81380000Y-162350000D02*
X80855000Y-162350000D01*
X81380000Y-162350000D02*
X81380000Y-161825000D01*
X77080000Y-158050000D02*
X76840000Y-157720000D01*
X77320000Y-157720000D01*
X77080000Y-158050000D01*
G36*
X77080000Y-158050000D02*
G01*
X76840000Y-157720000D01*
X77320000Y-157720000D01*
X77080000Y-158050000D01*
G37*
%TO.C,U1*%
X18700000Y-145580000D02*
X18700000Y-178580000D01*
X22200000Y-182080000D02*
X70200000Y-182080000D01*
X32300000Y-143230000D02*
X32300000Y-147010000D01*
X32300000Y-143230000D02*
X33300000Y-143230000D01*
X32300000Y-147010000D02*
X33300000Y-147010000D01*
X32300000Y-177150000D02*
X32300000Y-180930000D01*
X32300000Y-177150000D02*
X33300000Y-177150000D01*
X32300000Y-180930000D02*
X33300000Y-180930000D01*
X55100000Y-143230000D02*
X55100000Y-147010000D01*
X55100000Y-177150000D02*
X54100000Y-177150000D01*
X55100000Y-177150000D02*
X55100000Y-180930000D01*
X55100000Y-180930000D02*
X54100000Y-180930000D01*
X70200000Y-142080000D02*
X22200000Y-142080000D01*
X73700000Y-178580000D02*
X73700000Y-145580000D01*
X18700000Y-145580000D02*
G75*
G02*
X22200000Y-142080000I3499999J1D01*
G01*
X22200000Y-182080000D02*
G75*
G02*
X18700000Y-178580000I0J3500000D01*
G01*
X70200000Y-142080000D02*
G75*
G02*
X73700000Y-145580000I1J-3499999D01*
G01*
X73700000Y-178580000D02*
G75*
G02*
X70200000Y-182080000I-3500000J0D01*
G01*
%TD*%
M02*
