%TF.GenerationSoftware,KiCad,Pcbnew,9.0.6*%
%TF.CreationDate,2025-12-07T12:27:36-05:00*%
%TF.ProjectId,Phone,50686f6e-652e-46b6-9963-61645f706362,rev?*%
%TF.SameCoordinates,Original*%
%TF.FileFunction,Paste,Top*%
%TF.FilePolarity,Positive*%
%FSLAX46Y46*%
G04 Gerber Fmt 4.6, Leading zero omitted, Abs format (unit mm)*
G04 Created by KiCad (PCBNEW 9.0.6) date 2025-12-07 12:27:36*
%MOMM*%
%LPD*%
G01*
G04 APERTURE LIST*
G04 Aperture macros list*
%AMRoundRect*
0 Rectangle with rounded corners*
0 $1 Rounding radius*
0 $2 $3 $4 $5 $6 $7 $8 $9 X,Y pos of 4 corners*
0 Add a 4 corners polygon primitive as box body*
4,1,4,$2,$3,$4,$5,$6,$7,$8,$9,$2,$3,0*
0 Add four circle primitives for the rounded corners*
1,1,$1+$1,$2,$3*
1,1,$1+$1,$4,$5*
1,1,$1+$1,$6,$7*
1,1,$1+$1,$8,$9*
0 Add four rect primitives between the rounded corners*
20,1,$1+$1,$2,$3,$4,$5,0*
20,1,$1+$1,$4,$5,$6,$7,0*
20,1,$1+$1,$6,$7,$8,$9,0*
20,1,$1+$1,$8,$9,$2,$3,0*%
G04 Aperture macros list end*
%ADD10RoundRect,0.079500X0.100500X-0.079500X0.100500X0.079500X-0.100500X0.079500X-0.100500X-0.079500X0*%
%ADD11RoundRect,0.079500X-0.079500X-0.100500X0.079500X-0.100500X0.079500X0.100500X-0.079500X0.100500X0*%
%ADD12RoundRect,0.079500X0.079500X0.100500X-0.079500X0.100500X-0.079500X-0.100500X0.079500X-0.100500X0*%
%ADD13RoundRect,0.135000X0.185000X-0.135000X0.185000X0.135000X-0.185000X0.135000X-0.185000X-0.135000X0*%
%ADD14RoundRect,0.135000X-0.185000X0.135000X-0.185000X-0.135000X0.185000X-0.135000X0.185000X0.135000X0*%
%ADD15RoundRect,0.160000X-0.160000X0.160000X-0.160000X-0.160000X0.160000X-0.160000X0.160000X0.160000X0*%
%ADD16RoundRect,0.062500X-0.062500X0.375000X-0.062500X-0.375000X0.062500X-0.375000X0.062500X0.375000X0*%
%ADD17RoundRect,0.062500X-0.375000X0.062500X-0.375000X-0.062500X0.375000X-0.062500X0.375000X0.062500X0*%
%ADD18RoundRect,0.135000X0.135000X0.185000X-0.135000X0.185000X-0.135000X-0.185000X0.135000X-0.185000X0*%
%ADD19R,0.300000X0.700000*%
%ADD20R,1.000000X0.700000*%
%ADD21R,1.300000X0.300000*%
%ADD22R,2.200000X1.800000*%
%ADD23RoundRect,0.150000X-0.512500X-0.150000X0.512500X-0.150000X0.512500X0.150000X-0.512500X0.150000X0*%
%ADD24RoundRect,0.150000X-0.150000X0.512500X-0.150000X-0.512500X0.150000X-0.512500X0.150000X0.512500X0*%
%ADD25RoundRect,0.250000X0.475000X-0.250000X0.475000X0.250000X-0.475000X0.250000X-0.475000X-0.250000X0*%
%ADD26RoundRect,0.075000X-0.350000X-0.075000X0.350000X-0.075000X0.350000X0.075000X-0.350000X0.075000X0*%
%ADD27RoundRect,0.075000X0.075000X-0.350000X0.075000X0.350000X-0.075000X0.350000X-0.075000X-0.350000X0*%
%ADD28R,0.200000X0.700000*%
G04 APERTURE END LIST*
D10*
%TO.C,L1*%
X76370000Y-155945000D03*
X76370000Y-155255000D03*
%TD*%
D11*
%TO.C,C1*%
X55005000Y-26680000D03*
X55695000Y-26680000D03*
%TD*%
%TO.C,R1*%
X59105000Y-26630000D03*
X59795000Y-26630000D03*
%TD*%
D12*
%TO.C,R_top1*%
X87015000Y-149000000D03*
X86325000Y-149000000D03*
%TD*%
D13*
%TO.C,R17*%
X84280000Y-165350000D03*
X84280000Y-164330000D03*
%TD*%
D14*
%TO.C,R18*%
X84190000Y-167580000D03*
X84190000Y-168600000D03*
%TD*%
D10*
%TO.C,R_bottom1*%
X85250000Y-147465000D03*
X85250000Y-146775000D03*
%TD*%
D15*
%TO.C,U2*%
X82400000Y-144037500D03*
X81600000Y-144037500D03*
X82400000Y-144837500D03*
X81600000Y-144837500D03*
D16*
X82750000Y-143000000D03*
X82250000Y-143000000D03*
X81750000Y-143000000D03*
X81250000Y-143000000D03*
D17*
X80562500Y-143687500D03*
X80562500Y-144187500D03*
X80562500Y-144687500D03*
X80562500Y-145187500D03*
D16*
X81250000Y-145875000D03*
X81750000Y-145875000D03*
X82250000Y-145875000D03*
X82750000Y-145875000D03*
D17*
X83437500Y-145187500D03*
X83437500Y-144687500D03*
X83437500Y-144187500D03*
X83437500Y-143687500D03*
%TD*%
D18*
%TO.C,R29*%
X77520000Y-169520000D03*
X76500000Y-169520000D03*
%TD*%
D10*
%TO.C,R5*%
X85600000Y-143705000D03*
X85600000Y-143015000D03*
%TD*%
D11*
%TO.C,R2*%
X57205000Y-26630000D03*
X57895000Y-26630000D03*
%TD*%
D19*
%TO.C,J1*%
X58650000Y-25015000D03*
X58150000Y-25015000D03*
X57650000Y-25015000D03*
X57150000Y-25015000D03*
X56650000Y-25015000D03*
X56150000Y-25015000D03*
X55150000Y-25015000D03*
X54650000Y-25015000D03*
X54150000Y-25015000D03*
X53650000Y-25015000D03*
X53150000Y-25015000D03*
X52650000Y-25015000D03*
D20*
X52550000Y-23715000D03*
D19*
X53400000Y-23715000D03*
X53900000Y-23715000D03*
X54400000Y-23715000D03*
X54900000Y-23715000D03*
X55400000Y-23715000D03*
X55900000Y-23715000D03*
X56400000Y-23715000D03*
X56900000Y-23715000D03*
X57400000Y-23715000D03*
X57900000Y-23715000D03*
D20*
X58750000Y-23715000D03*
%TD*%
D11*
%TO.C,D2*%
X81300000Y-155550000D03*
X81990000Y-155550000D03*
%TD*%
D21*
%TO.C,J4*%
X86550000Y-180900000D03*
X86550000Y-180400000D03*
X86550000Y-179900000D03*
X86550000Y-179400000D03*
X86550000Y-178900000D03*
X86550000Y-178400000D03*
X86550000Y-177900000D03*
X86550000Y-177400000D03*
X86550000Y-176900000D03*
X86550000Y-176400000D03*
X86550000Y-175900000D03*
X86550000Y-175400000D03*
X86550000Y-174900000D03*
X86550000Y-174400000D03*
X86550000Y-173900000D03*
X86550000Y-173400000D03*
X86550000Y-172900000D03*
X86550000Y-172400000D03*
X86550000Y-171900000D03*
X86550000Y-171400000D03*
X86550000Y-170900000D03*
X86550000Y-170400000D03*
D22*
X89800000Y-182800000D03*
X89800000Y-168500000D03*
%TD*%
D11*
%TO.C,R3*%
X52960000Y-26680000D03*
X53650000Y-26680000D03*
%TD*%
D21*
%TO.C,J15*%
X92150000Y-153250000D03*
X92150000Y-153750000D03*
X92150000Y-154250000D03*
X92150000Y-154750000D03*
X92150000Y-155250000D03*
X92150000Y-155750000D03*
X92150000Y-156250000D03*
X92150000Y-156750000D03*
X92150000Y-157250000D03*
X92150000Y-157750000D03*
X92150000Y-158250000D03*
X92150000Y-158750000D03*
X92150000Y-159250000D03*
X92150000Y-159750000D03*
X92150000Y-160250000D03*
X92150000Y-160750000D03*
X92150000Y-161250000D03*
X92150000Y-161750000D03*
X92150000Y-162250000D03*
X92150000Y-162750000D03*
X92150000Y-163250000D03*
X92150000Y-163750000D03*
D22*
X88900000Y-151350000D03*
X88900000Y-165650000D03*
%TD*%
D11*
%TO.C,C3*%
X79195000Y-163620000D03*
X79885000Y-163620000D03*
%TD*%
D23*
%TO.C,U5*%
X75852500Y-143700000D03*
X75852500Y-144650000D03*
X75852500Y-145600000D03*
X78127500Y-145600000D03*
X78127500Y-144650000D03*
X78127500Y-143700000D03*
%TD*%
D24*
%TO.C,U18*%
X77900000Y-165272500D03*
X76950000Y-165272500D03*
X76000000Y-165272500D03*
X76000000Y-167547500D03*
X77900000Y-167547500D03*
%TD*%
D11*
%TO.C,C2*%
X80110000Y-156860000D03*
X80800000Y-156860000D03*
%TD*%
D10*
%TO.C,R7*%
X84170000Y-156495000D03*
X84170000Y-155805000D03*
%TD*%
D25*
%TO.C,C5*%
X81890000Y-166530000D03*
X81890000Y-164630000D03*
%TD*%
D26*
%TO.C,U4*%
X77280000Y-158950000D03*
X77280000Y-159450000D03*
X77280000Y-159950000D03*
X77280000Y-160450000D03*
X77280000Y-160950000D03*
X77280000Y-161450000D03*
D27*
X77980000Y-162150000D03*
X78480000Y-162150000D03*
X78980000Y-162150000D03*
X79480000Y-162150000D03*
X79980000Y-162150000D03*
X80480000Y-162150000D03*
D26*
X81180000Y-161450000D03*
X81180000Y-160950000D03*
X81180000Y-160450000D03*
X81180000Y-159950000D03*
X81180000Y-159450000D03*
X81180000Y-158950000D03*
D27*
X80480000Y-158250000D03*
X79980000Y-158250000D03*
X79480000Y-158250000D03*
X78980000Y-158250000D03*
X78480000Y-158250000D03*
X77980000Y-158250000D03*
%TD*%
D28*
%TO.C,U1*%
X53500000Y-143580000D03*
X53500000Y-146660000D03*
X53100000Y-143580000D03*
X53100000Y-146660000D03*
X52700000Y-143580000D03*
X52700000Y-146660000D03*
X52300000Y-143580000D03*
X52300000Y-146660000D03*
X51900000Y-143580000D03*
X51900000Y-146660000D03*
X51500000Y-143580000D03*
X51500000Y-146660000D03*
X51100000Y-143580000D03*
X51100000Y-146660000D03*
X50700000Y-143580000D03*
X50700000Y-146660000D03*
X50300000Y-143580000D03*
X50300000Y-146660000D03*
X49900000Y-143580000D03*
X49900000Y-146660000D03*
X49500000Y-143580000D03*
X49500000Y-146660000D03*
X49100000Y-143580000D03*
X49100000Y-146660000D03*
X48700000Y-143580000D03*
X48700000Y-146660000D03*
X48300000Y-143580000D03*
X48300000Y-146660000D03*
X47900000Y-143580000D03*
X47900000Y-146660000D03*
X47500000Y-143580000D03*
X47500000Y-146660000D03*
X47100000Y-143580000D03*
X47100000Y-146660000D03*
X46700000Y-143580000D03*
X46700000Y-146660000D03*
X46300000Y-143580000D03*
X46300000Y-146660000D03*
X45900000Y-143580000D03*
X45900000Y-146660000D03*
X45500000Y-143580000D03*
X45500000Y-146660000D03*
X45100000Y-143580000D03*
X45100000Y-146660000D03*
X44700000Y-143580000D03*
X44700000Y-146660000D03*
X44300000Y-143580000D03*
X44300000Y-146660000D03*
X43900000Y-143580000D03*
X43900000Y-146660000D03*
X43500000Y-143580000D03*
X43500000Y-146660000D03*
X43100000Y-143580000D03*
X43100000Y-146660000D03*
X42700000Y-143580000D03*
X42700000Y-146660000D03*
X42300000Y-143580000D03*
X42300000Y-146660000D03*
X41900000Y-143580000D03*
X41900000Y-146660000D03*
X41500000Y-143580000D03*
X41500000Y-146660000D03*
X41100000Y-143580000D03*
X41100000Y-146660000D03*
X40700000Y-143580000D03*
X40700000Y-146660000D03*
X40300000Y-143580000D03*
X40300000Y-146660000D03*
X39900000Y-143580000D03*
X39900000Y-146660000D03*
X39500000Y-143580000D03*
X39500000Y-146660000D03*
X39100000Y-143580000D03*
X39100000Y-146660000D03*
X38700000Y-143580000D03*
X38700000Y-146660000D03*
X38300000Y-143580000D03*
X38300000Y-146660000D03*
X37900000Y-143580000D03*
X37900000Y-146660000D03*
X37500000Y-143580000D03*
X37500000Y-146660000D03*
X37100000Y-143580000D03*
X37100000Y-146660000D03*
X36700000Y-143580000D03*
X36700000Y-146660000D03*
X36300000Y-143580000D03*
X36300000Y-146660000D03*
X35900000Y-143580000D03*
X35900000Y-146660000D03*
X35500000Y-143580000D03*
X35500000Y-146660000D03*
X35100000Y-143580000D03*
X35100000Y-146660000D03*
X34700000Y-143580000D03*
X34700000Y-146660000D03*
X34300000Y-143580000D03*
X34300000Y-146660000D03*
X33900000Y-143580000D03*
X33900000Y-146660000D03*
X53500000Y-177500000D03*
X53500000Y-180580000D03*
X53100000Y-177500000D03*
X53100000Y-180580000D03*
X52700000Y-177500000D03*
X52700000Y-180580000D03*
X52300000Y-177500000D03*
X52300000Y-180580000D03*
X51900000Y-177500000D03*
X51900000Y-180580000D03*
X51500000Y-177500000D03*
X51500000Y-180580000D03*
X51100000Y-177500000D03*
X51100000Y-180580000D03*
X50700000Y-177500000D03*
X50700000Y-180580000D03*
X50300000Y-177500000D03*
X50300000Y-180580000D03*
X49900000Y-177500000D03*
X49900000Y-180580000D03*
X49500000Y-177500000D03*
X49500000Y-180580000D03*
X49100000Y-177500000D03*
X49100000Y-180580000D03*
X48700000Y-177500000D03*
X48700000Y-180580000D03*
X48300000Y-177500000D03*
X48300000Y-180580000D03*
X47900000Y-177500000D03*
X47900000Y-180580000D03*
X47500000Y-177500000D03*
X47500000Y-180580000D03*
X47100000Y-177500000D03*
X47100000Y-180580000D03*
X46700000Y-177500000D03*
X46700000Y-180580000D03*
X46300000Y-177500000D03*
X46300000Y-180580000D03*
X45900000Y-177500000D03*
X45900000Y-180580000D03*
X45500000Y-177500000D03*
X45500000Y-180580000D03*
X45100000Y-177500000D03*
X45100000Y-180580000D03*
X44700000Y-177500000D03*
X44700000Y-180580000D03*
X44300000Y-177500000D03*
X44300000Y-180580000D03*
X43900000Y-177500000D03*
X43900000Y-180580000D03*
X43500000Y-177500000D03*
X43500000Y-180580000D03*
X43100000Y-177500000D03*
X43100000Y-180580000D03*
X42700000Y-177500000D03*
X42700000Y-180580000D03*
X42300000Y-177500000D03*
X42300000Y-180580000D03*
X41900000Y-177500000D03*
X41900000Y-180580000D03*
X41500000Y-177500000D03*
X41500000Y-180580000D03*
X41100000Y-177500000D03*
X41100000Y-180580000D03*
X40700000Y-177500000D03*
X40700000Y-180580000D03*
X40300000Y-177500000D03*
X40300000Y-180580000D03*
X39900000Y-177500000D03*
X39900000Y-180580000D03*
X39500000Y-177500000D03*
X39500000Y-180580000D03*
X39100000Y-177500000D03*
X39100000Y-180580000D03*
X38700000Y-177500000D03*
X38700000Y-180580000D03*
X38300000Y-177500000D03*
X38300000Y-180580000D03*
X37900000Y-177500000D03*
X37900000Y-180580000D03*
X37500000Y-177500000D03*
X37500000Y-180580000D03*
X37100000Y-177500000D03*
X37100000Y-180580000D03*
X36700000Y-177500000D03*
X36700000Y-180580000D03*
X36300000Y-177500000D03*
X36300000Y-180580000D03*
X35900000Y-177500000D03*
X35900000Y-180580000D03*
X35500000Y-177500000D03*
X35500000Y-180580000D03*
X35100000Y-177500000D03*
X35100000Y-180580000D03*
X34700000Y-177500000D03*
X34700000Y-180580000D03*
X34300000Y-177500000D03*
X34300000Y-180580000D03*
X33900000Y-177500000D03*
X33900000Y-180580000D03*
%TD*%
M02*
