<?xml version="1.0" standalone="no"?>
 <!DOCTYPE svg PUBLIC "-//W3C//DTD SVG 1.1//EN" 
 "http://www.w3.org/Graphics/SVG/1.1/DTD/svg11.dtd"> 
<svg
  xmlns:svg="http://www.w3.org/2000/svg"
  xmlns="http://www.w3.org/2000/svg"
  xmlns:xlink="http://www.w3.org/1999/xlink"
  version="1.1"
  width="77.750000mm" height="169.500000mm" viewBox="16.950000 15.700000 77.750000 169.500000">
<title>SVG Image created as Phone-B_Cu.svg date 2025/12/02 13:50:22 </title>
  <desc>Image generated by PCBNEW </desc>
<g style="fill:#000000; fill-opacity:1.0000;stroke:#000000; stroke-opacity:1.0000;
stroke-linecap:round; stroke-linejoin:round;"
 transform="translate(0 0) scale(1 1)">
<path style="fill:#000000; fill-opacity:1.0000; stroke:none;fill-rule:evenodd;"
d="M 21.0500,182.2000
23.2500,182.2000
23.2500,184.0000
21.0500,184.0000
Z" /> 
<path style="fill:#000000; fill-opacity:1.0000; stroke:none;fill-rule:evenodd;"
d="M 21.0500,167.9000
23.2500,167.9000
23.2500,169.7000
21.0500,169.7000
Z" /> 
<path style="fill:#000000; fill-opacity:1.0000; stroke:none;fill-rule:evenodd;"
d="M 18.2500,181.0500
19.5500,181.0500
19.5500,181.3500
18.2500,181.3500
Z" /> 
<path style="fill:#000000; fill-opacity:1.0000; stroke:none;fill-rule:evenodd;"
d="M 18.2500,180.5500
19.5500,180.5500
19.5500,180.8500
18.2500,180.8500
Z" /> 
<path style="fill:#000000; fill-opacity:1.0000; stroke:none;fill-rule:evenodd;"
d="M 18.2500,180.0500
19.5500,180.0500
19.5500,180.3500
18.2500,180.3500
Z" /> 
<path style="fill:#000000; fill-opacity:1.0000; stroke:none;fill-rule:evenodd;"
d="M 18.2500,179.5500
19.5500,179.5500
19.5500,179.8500
18.2500,179.8500
Z" /> 
<path style="fill:#000000; fill-opacity:1.0000; stroke:none;fill-rule:evenodd;"
d="M 18.2500,179.0500
19.5500,179.0500
19.5500,179.3500
18.2500,179.3500
Z" /> 
<path style="fill:#000000; fill-opacity:1.0000; stroke:none;fill-rule:evenodd;"
d="M 18.2500,178.5500
19.5500,178.5500
19.5500,178.8500
18.2500,178.8500
Z" /> 
<path style="fill:#000000; fill-opacity:1.0000; stroke:none;fill-rule:evenodd;"
d="M 18.2500,178.0500
19.5500,178.0500
19.5500,178.3500
18.2500,178.3500
Z" /> 
<path style="fill:#000000; fill-opacity:1.0000; stroke:none;fill-rule:evenodd;"
d="M 18.2500,177.5500
19.5500,177.5500
19.5500,177.8500
18.2500,177.8500
Z" /> 
<path style="fill:#000000; fill-opacity:1.0000; stroke:none;fill-rule:evenodd;"
d="M 18.2500,177.0500
19.5500,177.0500
19.5500,177.3500
18.2500,177.3500
Z" /> 
<path style="fill:#000000; fill-opacity:1.0000; stroke:none;fill-rule:evenodd;"
d="M 18.2500,176.5500
19.5500,176.5500
19.5500,176.8500
18.2500,176.8500
Z" /> 
<path style="fill:#000000; fill-opacity:1.0000; stroke:none;fill-rule:evenodd;"
d="M 18.2500,176.0500
19.5500,176.0500
19.5500,176.3500
18.2500,176.3500
Z" /> 
<path style="fill:#000000; fill-opacity:1.0000; stroke:none;fill-rule:evenodd;"
d="M 18.2500,175.5500
19.5500,175.5500
19.5500,175.8500
18.2500,175.8500
Z" /> 
<path style="fill:#000000; fill-opacity:1.0000; stroke:none;fill-rule:evenodd;"
d="M 18.2500,175.0500
19.5500,175.0500
19.5500,175.3500
18.2500,175.3500
Z" /> 
<path style="fill:#000000; fill-opacity:1.0000; stroke:none;fill-rule:evenodd;"
d="M 18.2500,174.5500
19.5500,174.5500
19.5500,174.8500
18.2500,174.8500
Z" /> 
<path style="fill:#000000; fill-opacity:1.0000; stroke:none;fill-rule:evenodd;"
d="M 18.2500,174.0500
19.5500,174.0500
19.5500,174.3500
18.2500,174.3500
Z" /> 
<path style="fill:#000000; fill-opacity:1.0000; stroke:none;fill-rule:evenodd;"
d="M 18.2500,173.5500
19.5500,173.5500
19.5500,173.8500
18.2500,173.8500
Z" /> 
<path style="fill:#000000; fill-opacity:1.0000; stroke:none;fill-rule:evenodd;"
d="M 18.2500,173.0500
19.5500,173.0500
19.5500,173.3500
18.2500,173.3500
Z" /> 
<path style="fill:#000000; fill-opacity:1.0000; stroke:none;fill-rule:evenodd;"
d="M 18.2500,172.5500
19.5500,172.5500
19.5500,172.8500
18.2500,172.8500
Z" /> 
<path style="fill:#000000; fill-opacity:1.0000; stroke:none;fill-rule:evenodd;"
d="M 18.2500,172.0500
19.5500,172.0500
19.5500,172.3500
18.2500,172.3500
Z" /> 
<path style="fill:#000000; fill-opacity:1.0000; stroke:none;fill-rule:evenodd;"
d="M 18.2500,171.5500
19.5500,171.5500
19.5500,171.8500
18.2500,171.8500
Z" /> 
<path style="fill:#000000; fill-opacity:1.0000; stroke:none;fill-rule:evenodd;"
d="M 18.2500,171.0500
19.5500,171.0500
19.5500,171.3500
18.2500,171.3500
Z" /> 
<path style="fill:#000000; fill-opacity:1.0000; stroke:none;fill-rule:evenodd;"
d="M 18.2500,170.5500
19.5500,170.5500
19.5500,170.8500
18.2500,170.8500
Z" /> 
<path style="fill:#000000; fill-opacity:1.0000; stroke:none;fill-rule:evenodd;"
d="M 88.0132,183.2519
91.3432,183.2519
91.3432,183.9519
88.0132,183.9519
Z" /> 
<path style="fill:#000000; fill-opacity:1.0000; stroke:none;fill-rule:evenodd;"
d="M 77.5132,183.0919
80.3132,183.0919
80.3132,183.9519
77.5132,183.9519
Z" /> 
<path style="fill:#000000; fill-opacity:1.0000; stroke:none;fill-rule:evenodd;"
d="M 77.5132,170.2919
79.3432,170.2919
79.3432,171.4319
77.5132,171.4319
Z" /> 
<path style="fill:#000000; fill-opacity:1.0000; stroke:none;fill-rule:evenodd;"
d="M 88.0132,170.2919
91.3432,170.2919
91.3432,170.9919
88.0132,170.9919
Z" /> 
<path style="fill:#000000; fill-opacity:1.0000; stroke:none;fill-rule:evenodd;"
d="M 90.5632,176.6919
91.3432,176.6919
91.3432,177.7419
90.5632,177.7419
Z" /> 
<path style="fill:#000000; fill-opacity:1.0000; stroke:none;fill-rule:evenodd;"
d="M 90.4132,172.5019
91.3432,172.5019
91.3432,173.4019
90.4132,173.4019
Z" /> 
<path style="fill:#000000; fill-opacity:1.0000; stroke:none;fill-rule:evenodd;"
d="M 77.8632,182.0919
78.9632,182.0919
78.9632,182.7919
77.8632,182.7919
Z" /> 
<path style="fill:#000000; fill-opacity:1.0000; stroke:none;fill-rule:evenodd;"
d="M 77.8632,180.9919
78.9632,180.9919
78.9632,181.6919
77.8632,181.6919
Z" /> 
<path style="fill:#000000; fill-opacity:1.0000; stroke:none;fill-rule:evenodd;"
d="M 77.8632,179.8919
78.9632,179.8919
78.9632,180.5919
77.8632,180.5919
Z" /> 
<path style="fill:#000000; fill-opacity:1.0000; stroke:none;fill-rule:evenodd;"
d="M 77.8632,178.7919
78.9632,178.7919
78.9632,179.4919
77.8632,179.4919
Z" /> 
<path style="fill:#000000; fill-opacity:1.0000; stroke:none;fill-rule:evenodd;"
d="M 77.8632,177.6919
78.9632,177.6919
78.9632,178.3919
77.8632,178.3919
Z" /> 
<path style="fill:#000000; fill-opacity:1.0000; stroke:none;fill-rule:evenodd;"
d="M 77.8632,176.5919
78.9632,176.5919
78.9632,177.2919
77.8632,177.2919
Z" /> 
<path style="fill:#000000; fill-opacity:1.0000; stroke:none;fill-rule:evenodd;"
d="M 77.8632,175.4919
78.9632,175.4919
78.9632,176.1919
77.8632,176.1919
Z" /> 
<path style="fill:#000000; fill-opacity:1.0000; stroke:none;fill-rule:evenodd;"
d="M 77.8632,174.3919
78.9632,174.3919
78.9632,175.0919
77.8632,175.0919
Z" /> 
<path style="fill:#000000; fill-opacity:1.0000; stroke:none;fill-rule:evenodd;"
d="M 87.3250,60.1500
86.4750,60.1500
86.4750,59.3000
87.3250,59.3000
Z" /> 
</g>
<g style="fill:#000000; fill-opacity:1.0000; stroke:none;">
<circle cx="87.9000" cy="59.7250" r="0.4250" /> 
</g>
<g style="fill:#000000; fill-opacity:1.0000; stroke:none;">
<circle cx="88.9000" cy="59.7250" r="0.4250" /> 
</g>
<g style="fill:#000000; fill-opacity:1.0000; stroke:none;">
<circle cx="89.9000" cy="59.7250" r="0.4250" /> 
</g>
<g style="fill:#000000; fill-opacity:1.0000; stroke:none;">
<circle cx="90.9000" cy="59.7250" r="0.4250" /> 
<path style="fill:#000000; fill-opacity:1.0000; stroke:none;fill-rule:evenodd;"
d="M 19.2500,117.9750
19.2500,117.1250
20.1000,117.1250
20.1000,117.9750
Z" /> 
</g>
<g style="fill:#000000; fill-opacity:1.0000; stroke:none;">
<circle cx="19.6750" cy="118.5500" r="0.4250" /> 
<path style="fill:#000000; fill-opacity:1.0000; stroke:none;fill-rule:evenodd;"
d="M 82.9350,149.1100
83.0307,149.1290
83.1118,149.1832
83.1660,149.2643
83.1850,149.3600
83.1850,150.0600
83.1660,150.1557
83.1118,150.2368
83.0307,150.2910
82.9350,150.3100
81.6850,150.3100
81.5893,150.2910
81.5082,150.2368
81.4540,150.1557
81.4350,150.0600
81.4350,149.3600
81.4540,149.2643
81.5082,149.1832
81.5893,149.1290
81.6850,149.1100
Z" /> 
</g>
<g style="fill:none; 
stroke:#000000; stroke-width:1.2000; stroke-opacity:1; 
stroke-linecap:round; stroke-linejoin:round;">
<path d="M82.5850 151.7100
L82.0350 151.7100
" />
<path style="fill:#000000; fill-opacity:1.0000; stroke:none;fill-rule:evenodd;"
d="M 70.2325,181.2500
70.2211,181.3074
70.1886,181.3561
70.1399,181.3886
70.0825,181.4000
69.7825,181.4000
69.7251,181.3886
69.6764,181.3561
69.6439,181.3074
69.6325,181.2500
69.6325,180.4500
69.6439,180.3926
69.6764,180.3439
69.7251,180.3114
69.7825,180.3000
70.0825,180.3000
70.1399,180.3114
70.1886,180.3439
70.2211,180.3926
70.2325,180.4500
Z" /> 
<path style="fill:#000000; fill-opacity:1.0000; stroke:none;fill-rule:evenodd;"
d="M 70.2325,183.4500
70.2211,183.5074
70.1886,183.5561
70.1399,183.5886
70.0825,183.6000
69.7825,183.6000
69.7251,183.5886
69.6764,183.5561
69.6439,183.5074
69.6325,183.4500
69.6325,182.6500
69.6439,182.5926
69.6764,182.5439
69.7251,182.5114
69.7825,182.5000
70.0825,182.5000
70.1399,182.5114
70.1886,182.5439
70.2211,182.5926
70.2325,182.6500
Z" /> 
<path style="fill:#000000; fill-opacity:1.0000; stroke:none;fill-rule:evenodd;"
d="M 69.2825,183.4250
69.2692,183.4920
69.2312,183.5487
69.1745,183.5867
69.1075,183.6000
68.7575,183.6000
68.6905,183.5867
68.6338,183.5487
68.5958,183.4920
68.5825,183.4250
68.5825,182.6750
68.5958,182.6080
68.6338,182.5513
68.6905,182.5133
68.7575,182.5000
69.1075,182.5000
69.1745,182.5133
69.2312,182.5513
69.2692,182.6080
69.2825,182.6750
Z" /> 
<path style="fill:#000000; fill-opacity:1.0000; stroke:none;fill-rule:evenodd;"
d="M 68.2325,183.4500
68.2211,183.5074
68.1886,183.5561
68.1399,183.5886
68.0825,183.6000
67.7825,183.6000
67.7251,183.5886
67.6764,183.5561
67.6439,183.5074
67.6325,183.4500
67.6325,182.6500
67.6439,182.5926
67.6764,182.5439
67.7251,182.5114
67.7825,182.5000
68.0825,182.5000
68.1399,182.5114
68.1886,182.5439
68.2211,182.5926
68.2325,182.6500
Z" /> 
<path style="fill:#000000; fill-opacity:1.0000; stroke:none;fill-rule:evenodd;"
d="M 68.2325,181.2500
68.2211,181.3074
68.1886,181.3561
68.1399,181.3886
68.0825,181.4000
67.7825,181.4000
67.7251,181.3886
67.6764,181.3561
67.6439,181.3074
67.6325,181.2500
67.6325,180.4500
67.6439,180.3926
67.6764,180.3439
67.7251,180.3114
67.7825,180.3000
68.0825,180.3000
68.1399,180.3114
68.1886,180.3439
68.2211,180.3926
68.2325,180.4500
Z" /> 
<path style="fill:#000000; fill-opacity:1.0000; stroke:none;fill-rule:evenodd;"
d="M 69.2825,181.2250
69.2692,181.2920
69.2312,181.3487
69.1745,181.3867
69.1075,181.4000
68.7575,181.4000
68.6905,181.3867
68.6338,181.3487
68.5958,181.2920
68.5825,181.2250
68.5825,180.4750
68.5958,180.4080
68.6338,180.3513
68.6905,180.3133
68.7575,180.3000
69.1075,180.3000
69.1745,180.3133
69.2312,180.3513
69.2692,180.4080
69.2825,180.4750
Z" /> 
</g>
<g style="fill:#000000; fill-opacity:1.0000; stroke:none;">
<circle cx="73.8700" cy="179.7000" r="0.4550" /> 
</g>
<g style="fill:#000000; fill-opacity:1.0000; stroke:none;">
<circle cx="73.8700" cy="181.3500" r="0.4550" /> 
</g>
<g style="fill:#000000; fill-opacity:1.0000; stroke:none;">
<circle cx="73.8700" cy="183.0000" r="0.4550" /> 
</g>
<g style="fill:#000000; fill-opacity:1.0000; stroke:none;">
<circle cx="71.5300" cy="183.0000" r="0.4550" /> 
</g>
<g style="fill:#000000; fill-opacity:1.0000; stroke:none;">
<circle cx="71.5300" cy="181.3500" r="0.4550" /> 
</g>
<g style="fill:none; 
stroke:#000000; stroke-width:0.9100; stroke-opacity:1; 
stroke-linecap:round; stroke-linejoin:round;">
<path d="M71.7300 179.9000
L71.5300 179.7000
" />
<path style="fill:#000000; fill-opacity:1.0000; stroke:none;fill-rule:evenodd;"
d="M 62.5000,20.2550
62.5000,19.4050
63.3500,19.4050
63.3500,20.2550
Z" /> 
</g>
<g style="fill:#000000; fill-opacity:1.0000; stroke:none;">
<circle cx="62.9250" cy="20.8300" r="0.4250" /> 
</g>
<g style="fill:#000000; fill-opacity:1.0000; stroke:none;">
<circle cx="62.9250" cy="21.8300" r="0.4250" /> 
</g>
<g style="fill:#000000; fill-opacity:1.0000; stroke:none;">
<circle cx="62.9250" cy="22.8300" r="0.4250" /> 
</g>
<g style="fill:#000000; fill-opacity:1.0000; stroke:none;">
<circle cx="62.9250" cy="23.8300" r="0.4250" /> 
</g>
<g style="fill:none; 
stroke:#000000; stroke-width:1.1000; stroke-opacity:1; 
stroke-linecap:round; stroke-linejoin:round;">
<path d="M59.9700 25.1050
L59.9700 24.1050
" />
<path d="M59.9700 19.9950
L59.9700 18.4950
" />
<path d="M51.3300 25.1050
L51.3300 24.1050
" />
<path d="M51.3300 19.9950
L51.3300 18.4950
" />
</g>
<g style="fill:#000000; fill-opacity:1.0000; stroke:none;">
<circle cx="61.4859" cy="27.0267" r="0.1251" /> 
</g>
<g style="fill:#000000; fill-opacity:1.0000; stroke:none;">
<circle cx="64.9061" cy="18.7246" r="0.1251" /> 
</g>
<g style="fill:#000000; fill-opacity:1.0000; stroke:none;">
<circle cx="55.5818" cy="24.4868" r="0.1251" /> 
</g>
<g style="fill:#000000; fill-opacity:1.0000; stroke:none;">
<circle cx="66.8967" cy="18.7246" r="0.1251" /> 
</g>
<g style="fill:#000000; fill-opacity:1.0000; stroke:none;">
<circle cx="62.2048" cy="17.3533" r="0.1251" /> 
</g>
<g style="fill:#000000; fill-opacity:1.0000; stroke:none;">
<circle cx="50.9254" cy="22.1513" r="0.1251" /> 
</g>
<g style="fill:#000000; fill-opacity:1.0000; stroke:none;">
<circle cx="53.9398" cy="25.8675" r="0.1251" /> 
</g>
<g style="fill:#000000; fill-opacity:1.0000; stroke:none;">
<circle cx="55.9502" cy="24.4056" r="0.1251" /> 
</g>
<g style="fill:#000000; fill-opacity:1.0000; stroke:none;">
<circle cx="54.5087" cy="27.0267" r="0.1251" /> 
</g>
<g style="fill:#000000; fill-opacity:1.0000; stroke:none;">
<circle cx="54.1124" cy="26.7580" r="0.1251" /> 
</g>
<g style="fill:#000000; fill-opacity:1.0000; stroke:none;">
<circle cx="66.8967" cy="21.4672" r="0.1251" /> 
</g>
<g style="fill:#000000; fill-opacity:1.0000; stroke:none;">
<circle cx="66.8967" cy="22.8385" r="0.1251" /> 
</g>
<g style="fill:#000000; fill-opacity:1.0000; stroke:none;">
<circle cx="61.7858" cy="19.8149" r="0.1251" /> 
</g>
<g style="fill:#000000; fill-opacity:1.0000; stroke:none;">
<circle cx="64.9474" cy="17.3533" r="0.1251" /> 
</g>
<g style="fill:#000000; fill-opacity:1.0000; stroke:none;">
<circle cx="52.7103" cy="25.6007" r="0.1251" /> 
</g>
<g style="fill:#000000; fill-opacity:1.0000; stroke:none;">
<circle cx="61.2837" cy="23.8643" r="0.1251" /> 
</g>
<g style="fill:#000000; fill-opacity:1.0000; stroke:none;">
<circle cx="60.2606" cy="26.6060" r="0.1251" /> 
</g>
<g style="fill:#000000; fill-opacity:1.0000; stroke:none;">
<circle cx="57.8206" cy="25.6232" r="0.1251" /> 
</g>
<g style="fill:#000000; fill-opacity:1.0000; stroke:none;">
<circle cx="55.5216" cy="26.2235" r="0.1251" /> 
</g>
<g style="fill:#000000; fill-opacity:1.0000; stroke:none;">
<circle cx="59.1265" cy="25.4307" r="0.1251" /> 
</g>
<g style="fill:#000000; fill-opacity:1.0000; stroke:none;">
<circle cx="63.5761" cy="17.3533" r="0.1251" /> 
</g>
<g style="fill:#000000; fill-opacity:1.0000; stroke:none;">
<circle cx="57.0645" cy="27.0624" r="0.1251" /> 
</g>
<g style="fill:#000000; fill-opacity:1.0000; stroke:none;">
<circle cx="65.5254" cy="24.9618" r="0.1251" /> 
</g>
<g style="fill:#000000; fill-opacity:1.0000; stroke:none;">
<circle cx="50.9033" cy="20.7940" r="0.1251" /> 
</g>
<g style="fill:#000000; fill-opacity:1.0000; stroke:none;">
<circle cx="60.4392" cy="17.7225" r="0.1251" /> 
</g>
<g style="fill:#000000; fill-opacity:1.0000; stroke:none;">
<circle cx="51.8467" cy="17.3533" r="0.1251" /> 
</g>
<g style="fill:#000000; fill-opacity:1.0000; stroke:none;">
<circle cx="63.7037" cy="19.6475" r="0.1251" /> 
</g>
<g style="fill:#000000; fill-opacity:1.0000; stroke:none;">
<circle cx="66.8967" cy="24.2097" r="0.1251" /> 
</g>
<g style="fill:#000000; fill-opacity:1.0000; stroke:none;">
<circle cx="66.8967" cy="25.5810" r="0.1251" /> 
</g>
<g style="fill:#000000; fill-opacity:1.0000; stroke:none;">
<circle cx="60.8161" cy="20.7846" r="0.1251" /> 
</g>
<g style="fill:#000000; fill-opacity:1.0000; stroke:none;">
<circle cx="55.8864" cy="25.6150" r="0.1251" /> 
</g>
<g style="fill:#000000; fill-opacity:1.0000; stroke:none;">
<circle cx="55.1044" cy="24.3198" r="0.1251" /> 
</g>
<g style="fill:#000000; fill-opacity:1.0000; stroke:none;">
<circle cx="65.5254" cy="22.2192" r="0.1251" /> 
</g>
<g style="fill:#000000; fill-opacity:1.0000; stroke:none;">
<circle cx="63.1352" cy="24.5812" r="0.1251" /> 
</g>
<g style="fill:#000000; fill-opacity:1.0000; stroke:none;">
<circle cx="52.4033" cy="24.3202" r="0.1251" /> 
</g>
<g style="fill:#000000; fill-opacity:1.0000; stroke:none;">
<circle cx="55.1556" cy="26.2208" r="0.1251" /> 
</g>
<g style="fill:#000000; fill-opacity:1.0000; stroke:none;">
<circle cx="62.8572" cy="27.0267" r="0.1251" /> 
</g>
<g style="fill:#000000; fill-opacity:1.0000; stroke:none;">
<circle cx="66.8967" cy="20.0959" r="0.1251" /> 
</g>
<g style="fill:#000000; fill-opacity:1.0000; stroke:none;">
<circle cx="65.5254" cy="23.5905" r="0.1251" /> 
</g>
<g style="fill:#000000; fill-opacity:1.0000; stroke:none;">
<circle cx="50.9033" cy="27.0267" r="0.1251" /> 
</g>
<g style="fill:#000000; fill-opacity:1.0000; stroke:none;">
<circle cx="54.7332" cy="24.3010" r="0.1251" /> 
</g>
<g style="fill:#000000; fill-opacity:1.0000; stroke:none;">
<circle cx="64.2285" cy="27.0267" r="0.1251" /> 
</g>
<g style="fill:#000000; fill-opacity:1.0000; stroke:none;">
<circle cx="59.1618" cy="24.3935" r="0.1251" /> 
</g>
<g style="fill:#000000; fill-opacity:1.0000; stroke:none;">
<circle cx="62.0812" cy="25.3576" r="0.1251" /> 
</g>
<g style="fill:#000000; fill-opacity:1.0000; stroke:none;">
<circle cx="66.8967" cy="17.3533" r="0.1251" /> 
</g>
<g style="fill:#000000; fill-opacity:1.0000; stroke:none;">
<circle cx="60.3746" cy="22.3513" r="0.1251" /> 
</g>
<g style="fill:#000000; fill-opacity:1.0000; stroke:none;">
<circle cx="65.5254" cy="20.8479" r="0.1251" /> 
</g>
<g style="fill:#000000; fill-opacity:1.0000; stroke:none;">
<circle cx="66.8967" cy="26.9523" r="0.1251" /> 
</g>
<g style="fill:#000000; fill-opacity:1.0000; stroke:none;">
<circle cx="58.8148" cy="24.3098" r="0.1251" /> 
</g>
<g style="fill:none; 
stroke:#000000; stroke-width:0.1510; stroke-opacity:1; 
stroke-linecap:round; stroke-linejoin:round;">
<path d="M61.4526 23.2035
L61.4560 23.2031
" />
<path d="M61.4920 23.1937
L61.4951 23.1924
" />
<path d="M55.7840 25.0776
L55.7872 25.0788
" />
<path d="M56.8357 25.0586
L56.8384 25.0565
" />
<path d="M62.1210 22.2017
L62.1242 22.2004
" />
<path d="M61.4694 23.2008
L61.4727 23.2001
" />
<path d="M61.4888 23.1950
L61.4920 23.1937
" />
<path d="M55.8302 25.0876
L55.8336 25.0877
" />
<path d="M55.8067 25.0846
L55.8100 25.0853
" />
<path d="M55.8167 25.0864
L55.8201 25.0868
" />
<path d="M56.8035 25.0772
L56.8066 25.0759
" />
<path d="M55.7214 25.0273
L55.7234 25.0301
" />
<path d="M56.7641 25.0871
L56.7675 25.0867
" />
<path d="M58.6240 22.9265
L58.6273 22.9263
" />
<path d="M62.1706 22.1912
L62.1739 22.1912
" />
<path d="M56.8188 25.0698
L56.8217 25.0681
" />
<path d="M56.8275 25.0645
L56.8303 25.0626
" />
<path d="M55.7388 25.0481
L55.7413 25.0504
" />
<path d="M62.1503 22.1932
L62.1537 22.1927
" />
<path d="M61.5187 23.1791
L61.5215 23.1771
" />
<path d="M56.8004 25.0785
L56.8035 25.0772
" />
<path d="M55.7572 25.0632
L55.7600 25.0651
" />
<path d="M62.1470 22.1938
L62.1503 22.1932
" />
<path d="M55.7490 25.0571
L55.7517 25.0592
" />
<path d="M55.9502 24.4056
L55.9064 24.4420
" />
<path d="M56.8489 25.0470
L58.6917 23.2042
" />
<path d="M55.7438 25.0527
L55.7464 25.0549
" />
<path d="M62.1274 22.1993
L62.1306 22.1982
" />
<path d="M62.1638 22.1916
L62.1672 22.1914
" />
<path d="M56.8330 25.0606
L56.8357 25.0586
" />
<path d="M55.7160 25.0187
L55.7177 25.0216
" />
<path d="M58.6038 22.9295
L58.6071 22.9288
" />
<path d="M58.5573 22.9493
L58.5601 22.9475
" />
<path d="M56.7608 25.0873
L56.7641 25.0871
" />
<path d="M55.8336 25.0877
L55.8361 25.0877
" />
<path d="M61.5131 23.1828
L61.5159 23.1810
" />
<path d="M62.0943 22.2163
L62.0971 22.2144
" />
<path d="M56.7506 25.0877
L56.7540 25.0877
" />
<path d="M55.8201 25.0868
L55.8235 25.0871
" />
<path d="M62.0757 22.2319
L62.0761 22.2316
" />
<path d="M55.8034 25.0838
L55.8067 25.0846
" />
<path d="M61.4792 23.1983
L61.4824 23.1972
" />
<path d="M58.5412 22.9618
L58.5437 22.9596
" />
<path d="M55.4000 24.0650
L55.5500 23.7150
" />
<path d="M56.8410 25.0543
L56.8436 25.0521
" />
<path d="M58.5490 22.9553
L58.5517 22.9532
" />
<path d="M56.7875 25.0827
L56.7907 25.0818
" />
<path d="M61.4951 23.1924
L61.4982 23.1910
" />
<path d="M61.5369 23.1639
L62.2316 22.4692
" />
</g>
<g style="fill:none; 
stroke:#000000; stroke-width:0.1017; stroke-opacity:1; 
stroke-linecap:round; stroke-linejoin:round;">
<path d="M51.3300 19.2450
L52.0401 19.2450
" />
</g>
<g style="fill:none; 
stroke:#000000; stroke-width:0.1510; stroke-opacity:1; 
stroke-linecap:round; stroke-linejoin:round;">
<path d="M55.7009 24.9811
L55.7017 24.9843
" />
<path d="M62.1403 22.1953
L62.1437 22.1945
" />
<path d="M55.7687 25.0703
L55.7717 25.0719
" />
<path d="M58.5689 22.9424
L58.5719 22.9408
" />
<path d="M62.1537 22.1927
L62.1570 22.1922
" />
<path d="M61.5269 23.1729
L61.5295 23.1708
" />
<path d="M58.6273 22.9263
L58.6307 22.9262
" />
<path d="M55.7001 24.9778
L55.7009 24.9811
" />
<path d="M55.8100 25.0853
L55.8134 25.0859
" />
<path d="M55.7936 25.0811
L55.7968 25.0821
" />
<path d="M56.8097 25.0745
L56.8128 25.0730
" />
<path d="M61.4759 23.1992
L61.4792 23.1983
" />
<path d="M56.8436 25.0521
L56.8460 25.0498
" />
<path d="M58.5940 22.9321
L58.5972 22.9311
" />
<path d="M56.7540 25.0877
L56.7574 25.0876
" />
<path d="M55.8235 25.0871
L55.8268 25.0874
" />
<path d="M61.5345 23.1662
L61.5369 23.1639
" />
</g>
<g style="fill:none; 
stroke:#000000; stroke-width:0.1017; stroke-opacity:1; 
stroke-linecap:round; stroke-linejoin:round;">
<path d="M57.8206 25.6232
L57.5076 25.9362
" />
</g>
<g style="fill:none; 
stroke:#000000; stroke-width:0.1510; stroke-opacity:1; 
stroke-linecap:round; stroke-linejoin:round;">
<path d="M55.7904 25.0800
L55.7936 25.0811
" />
<path d="M55.7341 25.0432
L55.7364 25.0457
" />
<path d="M58.5844 22.9354
L58.5875 22.9342
" />
<path d="M58.5630 22.9457
L58.5659 22.9440
" />
<path d="M61.5013 23.1895
L61.5043 23.1879
" />
<path d="M61.5215 23.1771
L61.5242 23.1750
" />
<path d="M55.7177 25.0216
L55.7195 25.0245
" />
<path d="M58.5781 22.9380
L58.5812 22.9366
" />
<path d="M62.0785 22.2292
L62.0810 22.2269
" />
<path d="M58.5437 22.9596
L58.5463 22.9574
" />
<path d="M55.7872 25.0788
L55.7904 25.0800
" />
<path d="M62.4969 22.1910
L62.9250 21.8300
" />
<path d="M61.4594 23.2027
L61.4627 23.2021
" />
<path d="M61.4660 23.2015
L61.4694 23.2008
" />
<path d="M62.4939 21.3989
L62.9250 21.8300
" />
<path d="M56.8066 25.0759
L56.8097 25.0745
" />
<path d="M61.4560 23.2031
L61.4594 23.2027
" />
<path d="M56.7675 25.0867
L56.7709 25.0862
" />
<path d="M58.5719 22.9408
L58.5750 22.9394
" />
<path d="M58.5907 22.9331
L58.5940 22.9321
" />
<path d="M61.4857 23.1961
L61.4888 23.1950
" />
<path d="M62.0999 22.2126
L62.1028 22.2108
" />
<path d="M55.7657 25.0686
L55.7687 25.0703
" />
<path d="M61.4492 23.2038
L61.4526 23.2035
" />
<path d="M55.8134 25.0859
L55.8167 25.0864
" />
<path d="M56.7940 25.0808
L56.7972 25.0797
" />
</g>
<g style="fill:none; 
stroke:#000000; stroke-width:0.1017; stroke-opacity:1; 
stroke-linecap:round; stroke-linejoin:round;">
<path d="M55.1556 26.1534
L55.1556 26.2208
" />
</g>
<g style="fill:none; 
stroke:#000000; stroke-width:0.1510; stroke-opacity:1; 
stroke-linecap:round; stroke-linejoin:round;">
<path d="M62.1306 22.1982
L62.1338 22.1971
" />
<path d="M58.5544 22.9513
L58.5573 22.9493
" />
<path d="M61.5320 23.1685
L61.5345 23.1662
" />
<path d="M58.6105 22.9282
L58.6138 22.9276
" />
<path d="M62.0915 22.2183
L62.0943 22.2163
" />
<path d="M55.7083 25.0036
L55.7097 25.0067
" />
<path d="M55.7234 25.0301
L55.7254 25.0328
" />
<path d="M55.1044 24.3198
L55.4000 24.0650
" />
<path d="M55.7070 25.0004
L55.7083 25.0036
" />
<path d="M56.7776 25.0851
L56.7809 25.0844
" />
<path d="M58.5517 22.9532
L58.5544 22.9513
" />
<path d="M55.5500 23.7150
L57.8661 21.3989
" />
<path d="M58.6138 22.9276
L58.6172 22.9272
" />
<path d="M62.0862 22.2225
L62.0888 22.2204
" />
<path d="M56.6930 24.8097
L58.5358 22.9669
" />
<path d="M55.7058 24.9973
L55.7070 25.0004
" />
<path d="M62.0761 22.2316
L62.0785 22.2292
" />
<path d="M58.5812 22.9366
L58.5844 22.9354
" />
<path d="M55.7364 25.0457
L55.7388 25.0481
" />
<path d="M61.5295 23.1708
L61.5320 23.1685
" />
<path d="M61.5159 23.1810
L61.5187 23.1791
" />
<path d="M55.7544 25.0612
L55.7572 25.0632
" />
</g>
<g style="fill:none; 
stroke:#000000; stroke-width:0.1017; stroke-opacity:1; 
stroke-linecap:round; stroke-linejoin:round;">
<path d="M54.7332 24.4010
L55.8864 25.5542
" />
</g>
<g style="fill:none; 
stroke:#000000; stroke-width:0.1510; stroke-opacity:1; 
stroke-linecap:round; stroke-linejoin:round;">
<path d="M62.0888 22.2204
L62.0915 22.2183
" />
<path d="M62.1179 22.2030
L62.1210 22.2017
" />
<path d="M61.5242 23.1750
L61.5269 23.1729
" />
<path d="M55.7275 25.0355
L55.7296 25.0381
" />
<path d="M62.2316 22.4692
L62.4971 22.4690
" />
<path d="M62.0971 22.2144
L62.0999 22.2126
" />
<path d="M55.8361 25.0877
L56.7506 25.0877
" />
<path d="M62.1028 22.2108
L62.1058 22.2091
" />
<path d="M55.7195 25.0245
L55.7214 25.0273
" />
<path d="M62.1371 22.1962
L62.1403 22.1953
" />
<path d="M55.6983 24.9677
L55.6989 24.9711
" />
<path d="M55.7629 25.0669
L55.7657 25.0686
" />
<path d="M56.7809 25.0844
L56.7842 25.0836
" />
<path d="M55.7127 25.0128
L55.7143 25.0158
" />
<path d="M55.7036 24.9909
L55.7047 24.9941
" />
<path d="M55.7143 25.0158
L55.7160 25.0187
" />
<path d="M55.7318 25.0407
L55.7341 25.0432
" />
</g>
<g style="fill:none; 
stroke:#000000; stroke-width:0.1017; stroke-opacity:1; 
stroke-linecap:round; stroke-linejoin:round;">
<path d="M55.8864 25.5542
L55.8864 25.6150
" />
</g>
<g style="fill:none; 
stroke:#000000; stroke-width:0.1510; stroke-opacity:1; 
stroke-linecap:round; stroke-linejoin:round;">
<path d="M57.8661 21.3989
L62.4939 21.3989
" />
<path d="M56.8303 25.0626
L56.8330 25.0606
" />
<path d="M62.1088 22.2075
L62.1118 22.2059
" />
<path d="M56.7742 25.0857
L56.7776 25.0851
" />
<path d="M56.8485 25.0474
L56.8489 25.0470
" />
<path d="M61.4727 23.2001
L61.4759 23.1992
" />
<path d="M62.1437 22.1945
L62.1470 22.1938
" />
<path d="M62.1604 22.1919
L62.1638 22.1916
" />
<path d="M62.4971 22.4690
L62.9250 22.8300
" />
<path d="M61.3815 22.9262
L62.0757 22.2319
" />
<path d="M62.1242 22.2004
L62.1274 22.1993
" />
<path d="M55.7747 25.0735
L55.7778 25.0749
" />
<path d="M58.5659 22.9440
L58.5689 22.9424
" />
<path d="M61.5102 23.1846
L61.5131 23.1828
" />
<path d="M58.6005 22.9303
L58.6038 22.9295
" />
<path d="M56.8217 25.0681
L56.8246 25.0664
" />
<path d="M55.6994 24.9744
L55.7001 24.9778
" />
<path d="M58.5358 22.9669
L58.5362 22.9665
" />
<path d="M55.9064 24.4420
L55.9572 24.8097
" />
<path d="M61.5043 23.1879
L61.5072 23.1863
" />
<path d="M56.7907 25.0818
L56.7940 25.0808
" />
<path d="M58.5750 22.9394
L58.5781 22.9380
" />
<path d="M58.5387 22.9641
L58.5412 22.9618
" />
<path d="M58.6917 23.2042
L61.4391 23.2042
" />
<path d="M55.8268 25.0874
L55.8302 25.0876
" />
</g>
<g style="fill:none; 
stroke:#000000; stroke-width:0.1017; stroke-opacity:1; 
stroke-linecap:round; stroke-linejoin:round;">
<path d="M52.0401 19.2450
L59.2599 19.2450
" />
</g>
<g style="fill:none; 
stroke:#000000; stroke-width:0.1510; stroke-opacity:1; 
stroke-linecap:round; stroke-linejoin:round;">
<path d="M56.8384 25.0565
L56.8410 25.0543
" />
<path d="M58.5972 22.9311
L58.6005 22.9303
" />
<path d="M58.6341 22.9262
L61.3815 22.9262
" />
<path d="M56.7709 25.0862
L56.7742 25.0857
" />
<path d="M62.0810 22.2269
L62.0836 22.2247
" />
<path d="M55.6310 24.4801
L55.6983 24.9677
" />
<path d="M55.7097 25.0067
L55.7112 25.0098
" />
<path d="M61.4627 23.2021
L61.4660 23.2015
" />
<path d="M56.8128 25.0730
L56.8158 25.0715
" />
<path d="M55.9572 24.8097
L56.6930 24.8097
" />
<path d="M55.7717 25.0719
L55.7747 25.0735
" />
<path d="M55.7026 24.9876
L55.7036 24.9909
" />
<path d="M56.8460 25.0498
L56.8485 25.0474
" />
<path d="M56.7842 25.0836
L56.7875 25.0827
" />
<path d="M62.1148 22.2044
L62.1179 22.2030
" />
<path d="M55.7413 25.0504
L55.7438 25.0527
" />
<path d="M58.5875 22.9342
L58.5907 22.9331
" />
<path d="M62.1739 22.1912
L62.4969 22.1910
" />
<path d="M55.5818 24.4868
L55.6310 24.4801
" />
<path d="M58.5601 22.9475
L58.5630 22.9457
" />
<path d="M58.6172 22.9272
L58.6206 22.9268
" />
<path d="M61.4459 23.2040
L61.4492 23.2038
" />
<path d="M62.1570 22.1922
L62.1604 22.1919
" />
<path d="M55.7047 24.9941
L55.7058 24.9973
" />
<path d="M58.6307 22.9262
L58.6341 22.9262
" />
<path d="M61.4982 23.1910
L61.5013 23.1895
" />
<path d="M62.0836 22.2247
L62.0862 22.2225
" />
<path d="M56.8246 25.0664
L56.8275 25.0645
" />
<path d="M62.1338 22.1971
L62.1371 22.1962
" />
<path d="M62.1672 22.1914
L62.1706 22.1912
" />
<path d="M62.1118 22.2059
L62.1148 22.2044
" />
</g>
<g style="fill:none; 
stroke:#000000; stroke-width:0.1017; stroke-opacity:1; 
stroke-linecap:round; stroke-linejoin:round;">
<path d="M55.3727 25.9362
L55.1556 26.1534
" />
</g>
<g style="fill:none; 
stroke:#000000; stroke-width:0.1510; stroke-opacity:1; 
stroke-linecap:round; stroke-linejoin:round;">
<path d="M55.7968 25.0821
L55.8001 25.0830
" />
<path d="M55.7517 25.0592
L55.7544 25.0612
" />
<path d="M58.5362 22.9665
L58.5387 22.9641
" />
<path d="M55.7464 25.0549
L55.7490 25.0571
" />
<path d="M61.5072 23.1863
L61.5102 23.1846
" />
<path d="M55.6989 24.9711
L55.6994 24.9744
" />
</g>
<g style="fill:none; 
stroke:#000000; stroke-width:0.1017; stroke-opacity:1; 
stroke-linecap:round; stroke-linejoin:round;">
<path d="M54.7332 24.3010
L54.7332 24.4010
" />
</g>
<g style="fill:none; 
stroke:#000000; stroke-width:0.1510; stroke-opacity:1; 
stroke-linecap:round; stroke-linejoin:round;">
<path d="M56.8158 25.0715
L56.8188 25.0698
" />
<path d="M61.4391 23.2042
L61.4424 23.2041
" />
<path d="M55.7017 24.9843
L55.7026 24.9876
" />
</g>
<g style="fill:none; 
stroke:#000000; stroke-width:0.1017; stroke-opacity:1; 
stroke-linecap:round; stroke-linejoin:round;">
<path d="M57.5076 25.9362
L55.3727 25.9362
" />
</g>
<g style="fill:none; 
stroke:#000000; stroke-width:0.1510; stroke-opacity:1; 
stroke-linecap:round; stroke-linejoin:round;">
<path d="M61.4824 23.1972
L61.4857 23.1961
" />
<path d="M55.7112 25.0098
L55.7127 25.0128
" />
</g>
<g style="fill:none; 
stroke:#000000; stroke-width:0.1017; stroke-opacity:1; 
stroke-linecap:round; stroke-linejoin:round;">
<path d="M59.2599 19.2450
L59.9700 19.2450
" />
</g>
<g style="fill:none; 
stroke:#000000; stroke-width:0.1510; stroke-opacity:1; 
stroke-linecap:round; stroke-linejoin:round;">
<path d="M56.7574 25.0876
L56.7608 25.0873
" />
<path d="M58.6071 22.9288
L58.6105 22.9282
" />
<path d="M55.7778 25.0749
L55.7809 25.0763
" />
<path d="M55.8001 25.0830
L55.8034 25.0838
" />
<path d="M58.5463 22.9574
L58.5490 22.9553
" />
<path d="M55.7600 25.0651
L55.7629 25.0669
" />
<path d="M55.7809 25.0763
L55.7840 25.0776
" />
<path d="M55.7254 25.0328
L55.7275 25.0355
" />
<path d="M62.1058 22.2091
L62.1088 22.2075
" />
<path d="M61.4424 23.2041
L61.4459 23.2040
" />
<path d="M56.7972 25.0797
L56.8004 25.0785
" />
<path d="M55.7296 25.0381
L55.7318 25.0407
" />
<path d="M58.6206 22.9268
L58.6240 22.9265
" />
</g> 
</svg>
