<?xml version="1.0" standalone="no"?>
 <!DOCTYPE svg PUBLIC "-//W3C//DTD SVG 1.1//EN" 
 "http://www.w3.org/Graphics/SVG/1.1/DTD/svg11.dtd"> 
<svg
  xmlns:svg="http://www.w3.org/2000/svg"
  xmlns="http://www.w3.org/2000/svg"
  xmlns:xlink="http://www.w3.org/1999/xlink"
  version="1.1"
  width="77.750000mm" height="169.500000mm" viewBox="16.950000 15.700000 77.750000 169.500000">
<title>SVG Image created as Phone-F_SilkS.svg date 2025/12/02 13:50:22 </title>
  <desc>Image generated by PCBNEW </desc>
<g style="fill:#000000; fill-opacity:1.0000;stroke:#000000; stroke-opacity:1.0000;
stroke-linecap:round; stroke-linejoin:round;"
 transform="translate(0 0) scale(1 1)">
</g>
<g style="fill:none; 
stroke:#000000; stroke-width:0.1250; stroke-opacity:1; 
stroke-linecap:round; stroke-linejoin:round;">
<text x="23.4000" y="118.9000"
textLength="1.1798" font-size="0.6667" lengthAdjust="spacingAndGlyphs"
text-anchor="start" opacity="0" stroke-opacity="0">5V</text>
<g class="stroked-text"><desc>5V</desc>
<path d="M23.8394 118.3323
L23.6013 118.3323
" />
<path d="M23.6013 118.3323
L23.5775 118.5704
" />
<path d="M23.5775 118.5704
L23.6013 118.5466
" />
<path d="M23.6013 118.5466
L23.6489 118.5228
" />
<path d="M23.6489 118.5228
L23.7679 118.5228
" />
<path d="M23.7679 118.5228
L23.8156 118.5466
" />
<path d="M23.8156 118.5466
L23.8394 118.5704
" />
<path d="M23.8394 118.5704
L23.8632 118.6180
" />
<path d="M23.8632 118.6180
L23.8632 118.7371
" />
<path d="M23.8632 118.7371
L23.8394 118.7847
" />
<path d="M23.8394 118.7847
L23.8156 118.8085
" />
<path d="M23.8156 118.8085
L23.7679 118.8323
" />
<path d="M23.7679 118.8323
L23.6489 118.8323
" />
<path d="M23.6489 118.8323
L23.6013 118.8085
" />
<path d="M23.6013 118.8085
L23.5775 118.7847
" />
<path d="M24.0060 118.3323
L24.1727 118.8323
" />
<path d="M24.1727 118.8323
L24.3394 118.3323
" />
</g><text x="23.4000" y="117.8000"
textLength="1.7988" font-size="0.6667" lengthAdjust="spacingAndGlyphs"
text-anchor="start" opacity="0" stroke-opacity="0">GND</text>
<g class="stroked-text"><desc>GND</desc>
<path d="M23.8632 117.2561
L23.8156 117.2323
" />
<path d="M23.8156 117.2323
L23.7441 117.2323
" />
<path d="M23.7441 117.2323
L23.6727 117.2561
" />
<path d="M23.6727 117.2561
L23.6251 117.3037
" />
<path d="M23.6251 117.3037
L23.6013 117.3514
" />
<path d="M23.6013 117.3514
L23.5775 117.4466
" />
<path d="M23.5775 117.4466
L23.5775 117.5180
" />
<path d="M23.5775 117.5180
L23.6013 117.6133
" />
<path d="M23.6013 117.6133
L23.6251 117.6609
" />
<path d="M23.6251 117.6609
L23.6727 117.7085
" />
<path d="M23.6727 117.7085
L23.7441 117.7323
" />
<path d="M23.7441 117.7323
L23.7918 117.7323
" />
<path d="M23.7918 117.7323
L23.8632 117.7085
" />
<path d="M23.8632 117.7085
L23.8870 117.6847
" />
<path d="M23.8870 117.6847
L23.8870 117.5180
" />
<path d="M23.8870 117.5180
L23.7918 117.5180
" />
<path d="M24.1013 117.7323
L24.1013 117.2323
" />
<path d="M24.1013 117.2323
L24.3870 117.7323
" />
<path d="M24.3870 117.7323
L24.3870 117.2323
" />
<path d="M24.6251 117.7323
L24.6251 117.2323
" />
<path d="M24.6251 117.2323
L24.7441 117.2323
" />
<path d="M24.7441 117.2323
L24.8156 117.2561
" />
<path d="M24.8156 117.2561
L24.8632 117.3037
" />
<path d="M24.8632 117.3037
L24.8870 117.3514
" />
<path d="M24.8870 117.3514
L24.9108 117.4466
" />
<path d="M24.9108 117.4466
L24.9108 117.5180
" />
<path d="M24.9108 117.5180
L24.8870 117.6133
" />
<path d="M24.8870 117.6133
L24.8632 117.6609
" />
<path d="M24.8632 117.6609
L24.8156 117.7085
" />
<path d="M24.8156 117.7085
L24.7441 117.7323
" />
<path d="M24.7441 117.7323
L24.6251 117.7323
" />
</g></g>
<g style="fill:none; 
stroke:#000000; stroke-width:0.1500; stroke-opacity:1; 
stroke-linecap:round; stroke-linejoin:round;">
<text x="74.1300" y="150.1000"
textLength="1.4881" font-size="1.3333" lengthAdjust="spacingAndGlyphs"
text-anchor="start" opacity="0" stroke-opacity="0">+</text>
<g class="stroked-text"><desc>+</desc>
<path d="M74.4668 149.5889
L75.2287 149.5889
" />
<path d="M74.8477 149.9698
L74.8477 149.2079
" />
</g><text x="74.1300" y="152.2200"
textLength="1.4881" font-size="1.3333" lengthAdjust="spacingAndGlyphs"
text-anchor="start" opacity="0" stroke-opacity="0">-</text>
<g class="stroked-text"><desc>-</desc>
<path d="M74.4668 151.7089
L75.2287 151.7089
" />
</g><g transform="rotate(-90.000000 84.8300 144.4375)">
<text x="84.8300" y="144.9375"
textLength="2.2500" font-size="1.3333" lengthAdjust="spacingAndGlyphs"
text-anchor="middle" opacity="0" stroke-opacity="0">U2</text>
</g>
<g class="stroked-text"><desc>U2</desc>
<path d="M84.2848 145.1994
L85.0943 145.1994
" />
<path d="M85.0943 145.1994
L85.1896 145.1518
" />
<path d="M85.1896 145.1518
L85.2372 145.1042
" />
<path d="M85.2372 145.1042
L85.2848 145.0089
" />
<path d="M85.2848 145.0089
L85.2848 144.8185
" />
<path d="M85.2848 144.8185
L85.2372 144.7232
" />
<path d="M85.2372 144.7232
L85.1896 144.6756
" />
<path d="M85.1896 144.6756
L85.0943 144.6280
" />
<path d="M85.0943 144.6280
L84.2848 144.6280
" />
<path d="M84.3801 144.1994
L84.3324 144.1518
" />
<path d="M84.3324 144.1518
L84.2848 144.0565
" />
<path d="M84.2848 144.0565
L84.2848 143.8185
" />
<path d="M84.2848 143.8185
L84.3324 143.7232
" />
<path d="M84.3324 143.7232
L84.3801 143.6756
" />
<path d="M84.3801 143.6756
L84.4753 143.6280
" />
<path d="M84.4753 143.6280
L84.5705 143.6280
" />
<path d="M84.5705 143.6280
L84.7134 143.6756
" />
<path d="M84.7134 143.6756
L85.2848 144.2470
" />
<path d="M85.2848 144.2470
L85.2848 143.6280
" />
</g><text x="80.4550" y="156.3100"
textLength="2.2024" font-size="1.3333" lengthAdjust="spacingAndGlyphs"
text-anchor="middle" opacity="0" stroke-opacity="0">C2</text>
<g class="stroked-text"><desc>C2</desc>
<path d="M80.2883 156.1696
L80.2407 156.2172
" />
<path d="M80.2407 156.2172
L80.0979 156.2648
" />
<path d="M80.0979 156.2648
L80.0026 156.2648
" />
<path d="M80.0026 156.2648
L79.8598 156.2172
" />
<path d="M79.8598 156.2172
L79.7645 156.1220
" />
<path d="M79.7645 156.1220
L79.7169 156.0267
" />
<path d="M79.7169 156.0267
L79.6693 155.8362
" />
<path d="M79.6693 155.8362
L79.6693 155.6934
" />
<path d="M79.6693 155.6934
L79.7169 155.5029
" />
<path d="M79.7169 155.5029
L79.7645 155.4077
" />
<path d="M79.7645 155.4077
L79.8598 155.3124
" />
<path d="M79.8598 155.3124
L80.0026 155.2648
" />
<path d="M80.0026 155.2648
L80.0979 155.2648
" />
<path d="M80.0979 155.2648
L80.2407 155.3124
" />
<path d="M80.2407 155.3124
L80.2883 155.3601
" />
<path d="M80.6693 155.3601
L80.7169 155.3124
" />
<path d="M80.7169 155.3124
L80.8121 155.2648
" />
<path d="M80.8121 155.2648
L81.0502 155.2648
" />
<path d="M81.0502 155.2648
L81.1455 155.3124
" />
<path d="M81.1455 155.3124
L81.1931 155.3601
" />
<path d="M81.1931 155.3601
L81.2407 155.4553
" />
<path d="M81.2407 155.4553
L81.2407 155.5505
" />
<path d="M81.2407 155.5505
L81.1931 155.6934
" />
<path d="M81.1931 155.6934
L80.6217 156.2648
" />
<path d="M80.6217 156.2648
L81.2407 156.2648
" />
</g><text x="79.5400" y="163.0700"
textLength="2.2024" font-size="1.3333" lengthAdjust="spacingAndGlyphs"
text-anchor="middle" opacity="0" stroke-opacity="0">C3</text>
<g class="stroked-text"><desc>C3</desc>
<path d="M79.3733 162.9296
L79.3257 162.9772
" />
<path d="M79.3257 162.9772
L79.1829 163.0248
" />
<path d="M79.1829 163.0248
L79.0876 163.0248
" />
<path d="M79.0876 163.0248
L78.9448 162.9772
" />
<path d="M78.9448 162.9772
L78.8495 162.8820
" />
<path d="M78.8495 162.8820
L78.8019 162.7867
" />
<path d="M78.8019 162.7867
L78.7543 162.5962
" />
<path d="M78.7543 162.5962
L78.7543 162.4534
" />
<path d="M78.7543 162.4534
L78.8019 162.2629
" />
<path d="M78.8019 162.2629
L78.8495 162.1677
" />
<path d="M78.8495 162.1677
L78.9448 162.0724
" />
<path d="M78.9448 162.0724
L79.0876 162.0248
" />
<path d="M79.0876 162.0248
L79.1829 162.0248
" />
<path d="M79.1829 162.0248
L79.3257 162.0724
" />
<path d="M79.3257 162.0724
L79.3733 162.1201
" />
<path d="M79.7067 162.0248
L80.3257 162.0248
" />
<path d="M80.3257 162.0248
L79.9924 162.4058
" />
<path d="M79.9924 162.4058
L80.1352 162.4058
" />
<path d="M80.1352 162.4058
L80.2305 162.4534
" />
<path d="M80.2305 162.4534
L80.2781 162.5010
" />
<path d="M80.2781 162.5010
L80.3257 162.5962
" />
<path d="M80.3257 162.5962
L80.3257 162.8343
" />
<path d="M80.3257 162.8343
L80.2781 162.9296
" />
<path d="M80.2781 162.9296
L80.2305 162.9772
" />
<path d="M80.2305 162.9772
L80.1352 163.0248
" />
<path d="M80.1352 163.0248
L79.8495 163.0248
" />
<path d="M79.8495 163.0248
L79.7543 162.9772
" />
<path d="M79.7543 162.9772
L79.7067 162.9296
" />
</g><text x="81.6450" y="155.0000"
textLength="2.2024" font-size="1.3333" lengthAdjust="spacingAndGlyphs"
text-anchor="middle" opacity="0" stroke-opacity="0">D2</text>
<g class="stroked-text"><desc>D2</desc>
<path d="M80.9069 154.9548
L80.9069 153.9548
" />
<path d="M80.9069 153.9548
L81.1450 153.9548
" />
<path d="M81.1450 153.9548
L81.2879 154.0024
" />
<path d="M81.2879 154.0024
L81.3831 154.0977
" />
<path d="M81.3831 154.0977
L81.4307 154.1929
" />
<path d="M81.4307 154.1929
L81.4783 154.3834
" />
<path d="M81.4783 154.3834
L81.4783 154.5262
" />
<path d="M81.4783 154.5262
L81.4307 154.7167
" />
<path d="M81.4307 154.7167
L81.3831 154.8120
" />
<path d="M81.3831 154.8120
L81.2879 154.9072
" />
<path d="M81.2879 154.9072
L81.1450 154.9548
" />
<path d="M81.1450 154.9548
L80.9069 154.9548
" />
<path d="M81.8593 154.0501
L81.9069 154.0024
" />
<path d="M81.9069 154.0024
L82.0021 153.9548
" />
<path d="M82.0021 153.9548
L82.2402 153.9548
" />
<path d="M82.2402 153.9548
L82.3355 154.0024
" />
<path d="M82.3355 154.0024
L82.3831 154.0501
" />
<path d="M82.3831 154.0501
L82.4307 154.1453
" />
<path d="M82.4307 154.1453
L82.4307 154.2405
" />
<path d="M82.4307 154.2405
L82.3831 154.3834
" />
<path d="M82.3831 154.3834
L81.8117 154.9548
" />
<path d="M81.8117 154.9548
L82.4307 154.9548
" />
</g><g transform="rotate(-90.000000 84.7000 175.6500)">
<text x="84.7000" y="176.1500"
textLength="1.9643" font-size="1.3333" lengthAdjust="spacingAndGlyphs"
text-anchor="middle" opacity="0" stroke-opacity="0">J4</text>
</g>
<g class="stroked-text"><desc>J4</desc>
<path d="M84.1548 175.9833
L84.8691 175.9833
" />
<path d="M84.8691 175.9833
L85.0120 176.0310
" />
<path d="M85.0120 176.0310
L85.1072 176.1262
" />
<path d="M85.1072 176.1262
L85.1548 176.2690
" />
<path d="M85.1548 176.2690
L85.1548 176.3643
" />
<path d="M84.4882 175.0786
L85.1548 175.0786
" />
<path d="M84.1072 175.3167
L84.8215 175.5548
" />
<path d="M84.8215 175.5548
L84.8215 174.9357
" />
</g><g transform="rotate(-90.000000 94.0000 158.5000)">
<text x="94.0000" y="159.0000"
textLength="2.9167" font-size="1.3333" lengthAdjust="spacingAndGlyphs"
text-anchor="middle" opacity="0" stroke-opacity="0">J15</text>
</g>
<g class="stroked-text"><desc>J15</desc>
<path d="M93.4548 159.3095
L94.1691 159.3095
" />
<path d="M94.1691 159.3095
L94.3120 159.3571
" />
<path d="M94.3120 159.3571
L94.4072 159.4524
" />
<path d="M94.4072 159.4524
L94.4548 159.5952
" />
<path d="M94.4548 159.5952
L94.4548 159.6905
" />
<path d="M94.4548 158.3095
L94.4548 158.8810
" />
<path d="M94.4548 158.5952
L93.4548 158.5952
" />
<path d="M93.4548 158.5952
L93.5977 158.6905
" />
<path d="M93.5977 158.6905
L93.6929 158.7857
" />
<path d="M93.6929 158.7857
L93.7405 158.8810
" />
<path d="M93.4548 157.4048
L93.4548 157.8810
" />
<path d="M93.4548 157.8810
L93.9310 157.9286
" />
<path d="M93.9310 157.9286
L93.8834 157.8810
" />
<path d="M93.8834 157.8810
L93.8358 157.7857
" />
<path d="M93.8358 157.7857
L93.8358 157.5476
" />
<path d="M93.8358 157.5476
L93.8834 157.4524
" />
<path d="M93.8834 157.4524
L93.9310 157.4048
" />
<path d="M93.9310 157.4048
L94.0262 157.3571
" />
<path d="M94.0262 157.3571
L94.2643 157.3571
" />
<path d="M94.2643 157.3571
L94.3596 157.4048
" />
<path d="M94.3596 157.4048
L94.4072 157.4524
" />
<path d="M94.4072 157.4524
L94.4548 157.5476
" />
<path d="M94.4548 157.5476
L94.4548 157.7857
" />
<path d="M94.4548 157.7857
L94.4072 157.8810
" />
<path d="M94.4072 157.8810
L94.3596 157.9286
" />
</g><g transform="rotate(-90.000000 75.3200 155.6000)">
<text x="75.3200" y="156.1000"
textLength="2.0119" font-size="1.3333" lengthAdjust="spacingAndGlyphs"
text-anchor="middle" opacity="0" stroke-opacity="0">L1</text>
</g>
<g class="stroked-text"><desc>L1</desc>
<path d="M75.7748 155.7667
L75.7748 156.2429
" />
<path d="M75.7748 156.2429
L74.7748 156.2429
" />
<path d="M75.7748 154.9095
L75.7748 155.4810
" />
<path d="M75.7748 155.1952
L74.7748 155.1952
" />
<path d="M74.7748 155.1952
L74.9177 155.2905
" />
<path d="M74.9177 155.2905
L75.0129 155.3857
" />
<path d="M75.0129 155.3857
L75.0605 155.4810
" />
</g><g transform="rotate(-90.000000 84.5500 143.3600)">
<text x="84.5500" y="143.8600"
textLength="2.2024" font-size="1.3333" lengthAdjust="spacingAndGlyphs"
text-anchor="middle" opacity="0" stroke-opacity="0">R5</text>
</g>
<g class="stroked-text"><desc>R5</desc>
<path d="M85.0048 143.5267
L84.5286 143.8600
" />
<path d="M85.0048 144.0981
L84.0048 144.0981
" />
<path d="M84.0048 144.0981
L84.0048 143.7171
" />
<path d="M84.0048 143.7171
L84.0524 143.6219
" />
<path d="M84.0524 143.6219
L84.1001 143.5743
" />
<path d="M84.1001 143.5743
L84.1953 143.5267
" />
<path d="M84.1953 143.5267
L84.3382 143.5267
" />
<path d="M84.3382 143.5267
L84.4334 143.5743
" />
<path d="M84.4334 143.5743
L84.4810 143.6219
" />
<path d="M84.4810 143.6219
L84.5286 143.7171
" />
<path d="M84.5286 143.7171
L84.5286 144.0981
" />
<path d="M84.0048 142.6219
L84.0048 143.0981
" />
<path d="M84.0048 143.0981
L84.4810 143.1457
" />
<path d="M84.4810 143.1457
L84.4334 143.0981
" />
<path d="M84.4334 143.0981
L84.3858 143.0029
" />
<path d="M84.3858 143.0029
L84.3858 142.7648
" />
<path d="M84.3858 142.7648
L84.4334 142.6695
" />
<path d="M84.4334 142.6695
L84.4810 142.6219
" />
<path d="M84.4810 142.6219
L84.5762 142.5743
" />
<path d="M84.5762 142.5743
L84.8143 142.5743
" />
<path d="M84.8143 142.5743
L84.9096 142.6219
" />
<path d="M84.9096 142.6219
L84.9572 142.6695
" />
<path d="M84.9572 142.6695
L85.0048 142.7648
" />
<path d="M85.0048 142.7648
L85.0048 143.0029
" />
<path d="M85.0048 143.0029
L84.9572 143.0981
" />
<path d="M84.9572 143.0981
L84.9096 143.1457
" />
</g><g transform="rotate(-90.000000 83.1200 156.1500)">
<text x="83.1200" y="156.6500"
textLength="2.2024" font-size="1.3333" lengthAdjust="spacingAndGlyphs"
text-anchor="middle" opacity="0" stroke-opacity="0">R7</text>
</g>
<g class="stroked-text"><desc>R7</desc>
<path d="M83.5748 156.3167
L83.0986 156.6500
" />
<path d="M83.5748 156.8881
L82.5748 156.8881
" />
<path d="M82.5748 156.8881
L82.5748 156.5071
" />
<path d="M82.5748 156.5071
L82.6224 156.4119
" />
<path d="M82.6224 156.4119
L82.6701 156.3643
" />
<path d="M82.6701 156.3643
L82.7653 156.3167
" />
<path d="M82.7653 156.3167
L82.9082 156.3167
" />
<path d="M82.9082 156.3167
L83.0034 156.3643
" />
<path d="M83.0034 156.3643
L83.0510 156.4119
" />
<path d="M83.0510 156.4119
L83.0986 156.5071
" />
<path d="M83.0986 156.5071
L83.0986 156.8881
" />
<path d="M82.5748 155.9833
L82.5748 155.3167
" />
<path d="M82.5748 155.3167
L83.5748 155.7452
" />
</g><g transform="rotate(-90.000000 84.2000 147.1200)">
<text x="84.2000" y="147.6200"
textLength="8.1548" font-size="1.3333" lengthAdjust="spacingAndGlyphs"
text-anchor="middle" opacity="0" stroke-opacity="0">R_bottom1</text>
</g>
<g class="stroked-text"><desc>R_bottom1</desc>
<path d="M84.6548 150.2629
L84.1786 150.5962
" />
<path d="M84.6548 150.8343
L83.6548 150.8343
" />
<path d="M83.6548 150.8343
L83.6548 150.4533
" />
<path d="M83.6548 150.4533
L83.7024 150.3581
" />
<path d="M83.7024 150.3581
L83.7501 150.3105
" />
<path d="M83.7501 150.3105
L83.8453 150.2629
" />
<path d="M83.8453 150.2629
L83.9882 150.2629
" />
<path d="M83.9882 150.2629
L84.0834 150.3105
" />
<path d="M84.0834 150.3105
L84.1310 150.3581
" />
<path d="M84.1310 150.3581
L84.1786 150.4533
" />
<path d="M84.1786 150.4533
L84.1786 150.8343
" />
<path d="M84.7501 150.0724
L84.7501 149.3105
" />
<path d="M84.6548 149.0724
L83.6548 149.0724
" />
<path d="M84.0358 149.0724
L83.9882 148.9771
" />
<path d="M83.9882 148.9771
L83.9882 148.7867
" />
<path d="M83.9882 148.7867
L84.0358 148.6914
" />
<path d="M84.0358 148.6914
L84.0834 148.6438
" />
<path d="M84.0834 148.6438
L84.1786 148.5962
" />
<path d="M84.1786 148.5962
L84.4643 148.5962
" />
<path d="M84.4643 148.5962
L84.5596 148.6438
" />
<path d="M84.5596 148.6438
L84.6072 148.6914
" />
<path d="M84.6072 148.6914
L84.6548 148.7867
" />
<path d="M84.6548 148.7867
L84.6548 148.9771
" />
<path d="M84.6548 148.9771
L84.6072 149.0724
" />
<path d="M84.6548 148.0248
L84.6072 148.1200
" />
<path d="M84.6072 148.1200
L84.5596 148.1676
" />
<path d="M84.5596 148.1676
L84.4643 148.2152
" />
<path d="M84.4643 148.2152
L84.1786 148.2152
" />
<path d="M84.1786 148.2152
L84.0834 148.1676
" />
<path d="M84.0834 148.1676
L84.0358 148.1200
" />
<path d="M84.0358 148.1200
L83.9882 148.0248
" />
<path d="M83.9882 148.0248
L83.9882 147.8819
" />
<path d="M83.9882 147.8819
L84.0358 147.7867
" />
<path d="M84.0358 147.7867
L84.0834 147.7390
" />
<path d="M84.0834 147.7390
L84.1786 147.6914
" />
<path d="M84.1786 147.6914
L84.4643 147.6914
" />
<path d="M84.4643 147.6914
L84.5596 147.7390
" />
<path d="M84.5596 147.7390
L84.6072 147.7867
" />
<path d="M84.6072 147.7867
L84.6548 147.8819
" />
<path d="M84.6548 147.8819
L84.6548 148.0248
" />
<path d="M83.9882 147.4057
L83.9882 147.0248
" />
<path d="M83.6548 147.2629
L84.5120 147.2629
" />
<path d="M84.5120 147.2629
L84.6072 147.2152
" />
<path d="M84.6072 147.2152
L84.6548 147.1200
" />
<path d="M84.6548 147.1200
L84.6548 147.0248
" />
<path d="M83.9882 146.8343
L83.9882 146.4533
" />
<path d="M83.6548 146.6914
L84.5120 146.6914
" />
<path d="M84.5120 146.6914
L84.6072 146.6438
" />
<path d="M84.6072 146.6438
L84.6548 146.5486
" />
<path d="M84.6548 146.5486
L84.6548 146.4533
" />
<path d="M84.6548 145.9771
L84.6072 146.0724
" />
<path d="M84.6072 146.0724
L84.5596 146.1200
" />
<path d="M84.5596 146.1200
L84.4643 146.1676
" />
<path d="M84.4643 146.1676
L84.1786 146.1676
" />
<path d="M84.1786 146.1676
L84.0834 146.1200
" />
<path d="M84.0834 146.1200
L84.0358 146.0724
" />
<path d="M84.0358 146.0724
L83.9882 145.9771
" />
<path d="M83.9882 145.9771
L83.9882 145.8343
" />
<path d="M83.9882 145.8343
L84.0358 145.7390
" />
<path d="M84.0358 145.7390
L84.0834 145.6914
" />
<path d="M84.0834 145.6914
L84.1786 145.6438
" />
<path d="M84.1786 145.6438
L84.4643 145.6438
" />
<path d="M84.4643 145.6438
L84.5596 145.6914
" />
<path d="M84.5596 145.6914
L84.6072 145.7390
" />
<path d="M84.6072 145.7390
L84.6548 145.8343
" />
<path d="M84.6548 145.8343
L84.6548 145.9771
" />
<path d="M84.6548 145.2152
L83.9882 145.2152
" />
<path d="M84.0834 145.2152
L84.0358 145.1676
" />
<path d="M84.0358 145.1676
L83.9882 145.0724
" />
<path d="M83.9882 145.0724
L83.9882 144.9295
" />
<path d="M83.9882 144.9295
L84.0358 144.8343
" />
<path d="M84.0358 144.8343
L84.1310 144.7867
" />
<path d="M84.1310 144.7867
L84.6548 144.7867
" />
<path d="M84.1310 144.7867
L84.0358 144.7390
" />
<path d="M84.0358 144.7390
L83.9882 144.6438
" />
<path d="M83.9882 144.6438
L83.9882 144.5010
" />
<path d="M83.9882 144.5010
L84.0358 144.4057
" />
<path d="M84.0358 144.4057
L84.1310 144.3581
" />
<path d="M84.1310 144.3581
L84.6548 144.3581
" />
<path d="M84.6548 143.3581
L84.6548 143.9295
" />
<path d="M84.6548 143.6438
L83.6548 143.6438
" />
<path d="M83.6548 143.6438
L83.7977 143.7390
" />
<path d="M83.7977 143.7390
L83.8929 143.8343
" />
<path d="M83.8929 143.8343
L83.9405 143.9295
" />
</g><text x="86.6700" y="150.5500"
textLength="5.3452" font-size="1.3333" lengthAdjust="spacingAndGlyphs"
text-anchor="middle" opacity="0" stroke-opacity="0">R_top1</text>
<g class="stroked-text"><desc>R_top1</desc>
<path d="M84.9319 150.5048
L84.5986 150.0286
" />
<path d="M84.3605 150.5048
L84.3605 149.5048
" />
<path d="M84.3605 149.5048
L84.7414 149.5048
" />
<path d="M84.7414 149.5048
L84.8367 149.5524
" />
<path d="M84.8367 149.5524
L84.8843 149.6001
" />
<path d="M84.8843 149.6001
L84.9319 149.6953
" />
<path d="M84.9319 149.6953
L84.9319 149.8382
" />
<path d="M84.9319 149.8382
L84.8843 149.9334
" />
<path d="M84.8843 149.9334
L84.8367 149.9810
" />
<path d="M84.8367 149.9810
L84.7414 150.0286
" />
<path d="M84.7414 150.0286
L84.3605 150.0286
" />
<path d="M85.1224 150.6001
L85.8843 150.6001
" />
<path d="M85.9795 149.8382
L86.3605 149.8382
" />
<path d="M86.1224 149.5048
L86.1224 150.3620
" />
<path d="M86.1224 150.3620
L86.1700 150.4572
" />
<path d="M86.1700 150.4572
L86.2652 150.5048
" />
<path d="M86.2652 150.5048
L86.3605 150.5048
" />
<path d="M86.8367 150.5048
L86.7414 150.4572
" />
<path d="M86.7414 150.4572
L86.6938 150.4096
" />
<path d="M86.6938 150.4096
L86.6462 150.3143
" />
<path d="M86.6462 150.3143
L86.6462 150.0286
" />
<path d="M86.6462 150.0286
L86.6938 149.9334
" />
<path d="M86.6938 149.9334
L86.7414 149.8858
" />
<path d="M86.7414 149.8858
L86.8367 149.8382
" />
<path d="M86.8367 149.8382
L86.9795 149.8382
" />
<path d="M86.9795 149.8382
L87.0748 149.8858
" />
<path d="M87.0748 149.8858
L87.1224 149.9334
" />
<path d="M87.1224 149.9334
L87.1700 150.0286
" />
<path d="M87.1700 150.0286
L87.1700 150.3143
" />
<path d="M87.1700 150.3143
L87.1224 150.4096
" />
<path d="M87.1224 150.4096
L87.0748 150.4572
" />
<path d="M87.0748 150.4572
L86.9795 150.5048
" />
<path d="M86.9795 150.5048
L86.8367 150.5048
" />
<path d="M87.5986 149.8382
L87.5986 150.8382
" />
<path d="M87.5986 149.8858
L87.6938 149.8382
" />
<path d="M87.6938 149.8382
L87.8843 149.8382
" />
<path d="M87.8843 149.8382
L87.9795 149.8858
" />
<path d="M87.9795 149.8858
L88.0271 149.9334
" />
<path d="M88.0271 149.9334
L88.0748 150.0286
" />
<path d="M88.0748 150.0286
L88.0748 150.3143
" />
<path d="M88.0748 150.3143
L88.0271 150.4096
" />
<path d="M88.0271 150.4096
L87.9795 150.4572
" />
<path d="M87.9795 150.4572
L87.8843 150.5048
" />
<path d="M87.8843 150.5048
L87.6938 150.5048
" />
<path d="M87.6938 150.5048
L87.5986 150.4572
" />
<path d="M89.0271 150.5048
L88.4557 150.5048
" />
<path d="M88.7414 150.5048
L88.7414 149.5048
" />
<path d="M88.7414 149.5048
L88.6462 149.6477
" />
<path d="M88.6462 149.6477
L88.5510 149.7429
" />
<path d="M88.5510 149.7429
L88.4557 149.7905
" />
</g><text x="79.2300" y="157.3250"
textLength="2.2500" font-size="1.3333" lengthAdjust="spacingAndGlyphs"
text-anchor="middle" opacity="0" stroke-opacity="0">U4</text>
<g class="stroked-text"><desc>U4</desc>
<path d="M78.4681 156.2798
L78.4681 157.0893
" />
<path d="M78.4681 157.0893
L78.5157 157.1846
" />
<path d="M78.5157 157.1846
L78.5633 157.2322
" />
<path d="M78.5633 157.2322
L78.6586 157.2798
" />
<path d="M78.6586 157.2798
L78.8490 157.2798
" />
<path d="M78.8490 157.2798
L78.9443 157.2322
" />
<path d="M78.9443 157.2322
L78.9919 157.1846
" />
<path d="M78.9919 157.1846
L79.0395 157.0893
" />
<path d="M79.0395 157.0893
L79.0395 156.2798
" />
<path d="M79.9443 156.6132
L79.9443 157.2798
" />
<path d="M79.7062 156.2322
L79.4681 156.9465
" />
<path d="M79.4681 156.9465
L80.0871 156.9465
" />
</g><g transform="rotate(-90.000000 83.1100 164.8400)">
<text x="83.1100" y="165.3400"
textLength="3.1548" font-size="1.3333" lengthAdjust="spacingAndGlyphs"
text-anchor="middle" opacity="0" stroke-opacity="0">R17</text>
</g>
<g class="stroked-text"><desc>R17</desc>
<path d="M83.5648 165.4829
L83.0886 165.8162
" />
<path d="M83.5648 166.0543
L82.5648 166.0543
" />
<path d="M82.5648 166.0543
L82.5648 165.6733
" />
<path d="M82.5648 165.6733
L82.6124 165.5781
" />
<path d="M82.6124 165.5781
L82.6601 165.5305
" />
<path d="M82.6601 165.5305
L82.7553 165.4829
" />
<path d="M82.7553 165.4829
L82.8982 165.4829
" />
<path d="M82.8982 165.4829
L82.9934 165.5305
" />
<path d="M82.9934 165.5305
L83.0410 165.5781
" />
<path d="M83.0410 165.5781
L83.0886 165.6733
" />
<path d="M83.0886 165.6733
L83.0886 166.0543
" />
<path d="M83.5648 164.5305
L83.5648 165.1019
" />
<path d="M83.5648 164.8162
L82.5648 164.8162
" />
<path d="M82.5648 164.8162
L82.7077 164.9114
" />
<path d="M82.7077 164.9114
L82.8029 165.0067
" />
<path d="M82.8029 165.0067
L82.8505 165.1019
" />
<path d="M82.5648 164.1971
L82.5648 163.5305
" />
<path d="M82.5648 163.5305
L83.5648 163.9590
" />
</g><text x="77.0600" y="170.9900"
textLength="3.1548" font-size="1.3333" lengthAdjust="spacingAndGlyphs"
text-anchor="middle" opacity="0" stroke-opacity="0">R29</text>
<g class="stroked-text"><desc>R29</desc>
<path d="M76.4171 170.9448
L76.0838 170.4686
" />
<path d="M75.8457 170.9448
L75.8457 169.9448
" />
<path d="M75.8457 169.9448
L76.2267 169.9448
" />
<path d="M76.2267 169.9448
L76.3219 169.9924
" />
<path d="M76.3219 169.9924
L76.3695 170.0401
" />
<path d="M76.3695 170.0401
L76.4171 170.1353
" />
<path d="M76.4171 170.1353
L76.4171 170.2782
" />
<path d="M76.4171 170.2782
L76.3695 170.3734
" />
<path d="M76.3695 170.3734
L76.3219 170.4210
" />
<path d="M76.3219 170.4210
L76.2267 170.4686
" />
<path d="M76.2267 170.4686
L75.8457 170.4686
" />
<path d="M76.7981 170.0401
L76.8457 169.9924
" />
<path d="M76.8457 169.9924
L76.9410 169.9448
" />
<path d="M76.9410 169.9448
L77.1790 169.9448
" />
<path d="M77.1790 169.9448
L77.2743 169.9924
" />
<path d="M77.2743 169.9924
L77.3219 170.0401
" />
<path d="M77.3219 170.0401
L77.3695 170.1353
" />
<path d="M77.3695 170.1353
L77.3695 170.2305
" />
<path d="M77.3695 170.2305
L77.3219 170.3734
" />
<path d="M77.3219 170.3734
L76.7505 170.9448
" />
<path d="M76.7505 170.9448
L77.3695 170.9448
" />
<path d="M77.8457 170.9448
L78.0362 170.9448
" />
<path d="M78.0362 170.9448
L78.1314 170.8972
" />
<path d="M78.1314 170.8972
L78.1790 170.8496
" />
<path d="M78.1790 170.8496
L78.2743 170.7067
" />
<path d="M78.2743 170.7067
L78.3219 170.5162
" />
<path d="M78.3219 170.5162
L78.3219 170.1353
" />
<path d="M78.3219 170.1353
L78.2743 170.0401
" />
<path d="M78.2743 170.0401
L78.2267 169.9924
" />
<path d="M78.2267 169.9924
L78.1314 169.9448
" />
<path d="M78.1314 169.9448
L77.9410 169.9448
" />
<path d="M77.9410 169.9448
L77.8457 169.9924
" />
<path d="M77.8457 169.9924
L77.7981 170.0401
" />
<path d="M77.7981 170.0401
L77.7505 170.1353
" />
<path d="M77.7505 170.1353
L77.7505 170.3734
" />
<path d="M77.7505 170.3734
L77.7981 170.4686
" />
<path d="M77.7981 170.4686
L77.8457 170.5162
" />
<path d="M77.8457 170.5162
L77.9410 170.5639
" />
<path d="M77.9410 170.5639
L78.1314 170.5639
" />
<path d="M78.1314 170.5639
L78.2267 170.5162
" />
<path d="M78.2267 170.5162
L78.2743 170.4686
" />
<path d="M78.2743 170.4686
L78.3219 170.3734
" />
</g><g transform="rotate(-90.000000 80.2100 165.5800)">
<text x="80.2100" y="166.0800"
textLength="2.2024" font-size="1.3333" lengthAdjust="spacingAndGlyphs"
text-anchor="middle" opacity="0" stroke-opacity="0">C5</text>
</g>
<g class="stroked-text"><desc>C5</desc>
<path d="M80.5696 165.7467
L80.6172 165.7943
" />
<path d="M80.6172 165.7943
L80.6648 165.9371
" />
<path d="M80.6648 165.9371
L80.6648 166.0324
" />
<path d="M80.6648 166.0324
L80.6172 166.1752
" />
<path d="M80.6172 166.1752
L80.5220 166.2705
" />
<path d="M80.5220 166.2705
L80.4267 166.3181
" />
<path d="M80.4267 166.3181
L80.2362 166.3657
" />
<path d="M80.2362 166.3657
L80.0934 166.3657
" />
<path d="M80.0934 166.3657
L79.9029 166.3181
" />
<path d="M79.9029 166.3181
L79.8077 166.2705
" />
<path d="M79.8077 166.2705
L79.7124 166.1752
" />
<path d="M79.7124 166.1752
L79.6648 166.0324
" />
<path d="M79.6648 166.0324
L79.6648 165.9371
" />
<path d="M79.6648 165.9371
L79.7124 165.7943
" />
<path d="M79.7124 165.7943
L79.7601 165.7467
" />
<path d="M79.6648 164.8419
L79.6648 165.3181
" />
<path d="M79.6648 165.3181
L80.1410 165.3657
" />
<path d="M80.1410 165.3657
L80.0934 165.3181
" />
<path d="M80.0934 165.3181
L80.0458 165.2229
" />
<path d="M80.0458 165.2229
L80.0458 164.9848
" />
<path d="M80.0458 164.9848
L80.0934 164.8895
" />
<path d="M80.0934 164.8895
L80.1410 164.8419
" />
<path d="M80.1410 164.8419
L80.2362 164.7943
" />
<path d="M80.2362 164.7943
L80.4743 164.7943
" />
<path d="M80.4743 164.7943
L80.5696 164.8419
" />
<path d="M80.5696 164.8419
L80.6172 164.8895
" />
<path d="M80.6172 164.8895
L80.6648 164.9848
" />
<path d="M80.6648 164.9848
L80.6648 165.2229
" />
<path d="M80.6648 165.2229
L80.6172 165.3181
" />
<path d="M80.6172 165.3181
L80.5696 165.3657
" />
</g><g transform="rotate(-90.000000 79.3500 166.4100)">
<text x="79.3500" y="166.9100"
textLength="3.2024" font-size="1.3333" lengthAdjust="spacingAndGlyphs"
text-anchor="middle" opacity="0" stroke-opacity="0">U18</text>
</g>
<g class="stroked-text"><desc>U18</desc>
<path d="M78.8048 167.6481
L79.6143 167.6481
" />
<path d="M79.6143 167.6481
L79.7096 167.6005
" />
<path d="M79.7096 167.6005
L79.7572 167.5529
" />
<path d="M79.7572 167.5529
L79.8048 167.4576
" />
<path d="M79.8048 167.4576
L79.8048 167.2671
" />
<path d="M79.8048 167.2671
L79.7572 167.1719
" />
<path d="M79.7572 167.1719
L79.7096 167.1243
" />
<path d="M79.7096 167.1243
L79.6143 167.0767
" />
<path d="M79.6143 167.0767
L78.8048 167.0767
" />
<path d="M79.8048 166.0767
L79.8048 166.6481
" />
<path d="M79.8048 166.3624
L78.8048 166.3624
" />
<path d="M78.8048 166.3624
L78.9477 166.4576
" />
<path d="M78.9477 166.4576
L79.0429 166.5529
" />
<path d="M79.0429 166.5529
L79.0905 166.6481
" />
<path d="M79.2334 165.5052
L79.1858 165.6005
" />
<path d="M79.1858 165.6005
L79.1382 165.6481
" />
<path d="M79.1382 165.6481
L79.0429 165.6957
" />
<path d="M79.0429 165.6957
L78.9953 165.6957
" />
<path d="M78.9953 165.6957
L78.9001 165.6481
" />
<path d="M78.9001 165.6481
L78.8524 165.6005
" />
<path d="M78.8524 165.6005
L78.8048 165.5052
" />
<path d="M78.8048 165.5052
L78.8048 165.3148
" />
<path d="M78.8048 165.3148
L78.8524 165.2195
" />
<path d="M78.8524 165.2195
L78.9001 165.1719
" />
<path d="M78.9001 165.1719
L78.9953 165.1243
" />
<path d="M78.9953 165.1243
L79.0429 165.1243
" />
<path d="M79.0429 165.1243
L79.1382 165.1719
" />
<path d="M79.1382 165.1719
L79.1858 165.2195
" />
<path d="M79.1858 165.2195
L79.2334 165.3148
" />
<path d="M79.2334 165.3148
L79.2334 165.5052
" />
<path d="M79.2334 165.5052
L79.2810 165.6005
" />
<path d="M79.2810 165.6005
L79.3286 165.6481
" />
<path d="M79.3286 165.6481
L79.4239 165.6957
" />
<path d="M79.4239 165.6957
L79.6143 165.6957
" />
<path d="M79.6143 165.6957
L79.7096 165.6481
" />
<path d="M79.7096 165.6481
L79.7572 165.6005
" />
<path d="M79.7572 165.6005
L79.8048 165.5052
" />
<path d="M79.8048 165.5052
L79.8048 165.3148
" />
<path d="M79.8048 165.3148
L79.7572 165.2195
" />
<path d="M79.7572 165.2195
L79.7096 165.1719
" />
<path d="M79.7096 165.1719
L79.6143 165.1243
" />
<path d="M79.6143 165.1243
L79.4239 165.1243
" />
<path d="M79.4239 165.1243
L79.3286 165.1719
" />
<path d="M79.3286 165.1719
L79.2810 165.2195
" />
<path d="M79.2810 165.2195
L79.2334 165.3148
" />
</g><g transform="rotate(-90.000000 85.3600 168.0900)">
<text x="85.3600" y="168.5900"
textLength="3.1548" font-size="1.3333" lengthAdjust="spacingAndGlyphs"
text-anchor="middle" opacity="0" stroke-opacity="0">R18</text>
</g>
<g class="stroked-text"><desc>R18</desc>
<path d="M85.8148 168.7329
L85.3386 169.0662
" />
<path d="M85.8148 169.3043
L84.8148 169.3043
" />
<path d="M84.8148 169.3043
L84.8148 168.9233
" />
<path d="M84.8148 168.9233
L84.8624 168.8281
" />
<path d="M84.8624 168.8281
L84.9101 168.7805
" />
<path d="M84.9101 168.7805
L85.0053 168.7329
" />
<path d="M85.0053 168.7329
L85.1482 168.7329
" />
<path d="M85.1482 168.7329
L85.2434 168.7805
" />
<path d="M85.2434 168.7805
L85.2910 168.8281
" />
<path d="M85.2910 168.8281
L85.3386 168.9233
" />
<path d="M85.3386 168.9233
L85.3386 169.3043
" />
<path d="M85.8148 167.7805
L85.8148 168.3519
" />
<path d="M85.8148 168.0662
L84.8148 168.0662
" />
<path d="M84.8148 168.0662
L84.9577 168.1614
" />
<path d="M84.9577 168.1614
L85.0529 168.2567
" />
<path d="M85.0529 168.2567
L85.1005 168.3519
" />
<path d="M85.2434 167.2090
L85.1958 167.3043
" />
<path d="M85.1958 167.3043
L85.1482 167.3519
" />
<path d="M85.1482 167.3519
L85.0529 167.3995
" />
<path d="M85.0529 167.3995
L85.0053 167.3995
" />
<path d="M85.0053 167.3995
L84.9101 167.3519
" />
<path d="M84.9101 167.3519
L84.8624 167.3043
" />
<path d="M84.8624 167.3043
L84.8148 167.2090
" />
<path d="M84.8148 167.2090
L84.8148 167.0186
" />
<path d="M84.8148 167.0186
L84.8624 166.9233
" />
<path d="M84.8624 166.9233
L84.9101 166.8757
" />
<path d="M84.9101 166.8757
L85.0053 166.8281
" />
<path d="M85.0053 166.8281
L85.0529 166.8281
" />
<path d="M85.0529 166.8281
L85.1482 166.8757
" />
<path d="M85.1482 166.8757
L85.1958 166.9233
" />
<path d="M85.1958 166.9233
L85.2434 167.0186
" />
<path d="M85.2434 167.0186
L85.2434 167.2090
" />
<path d="M85.2434 167.2090
L85.2910 167.3043
" />
<path d="M85.2910 167.3043
L85.3386 167.3519
" />
<path d="M85.3386 167.3519
L85.4339 167.3995
" />
<path d="M85.4339 167.3995
L85.6243 167.3995
" />
<path d="M85.6243 167.3995
L85.7196 167.3519
" />
<path d="M85.7196 167.3519
L85.7672 167.3043
" />
<path d="M85.7672 167.3043
L85.8148 167.2090
" />
<path d="M85.8148 167.2090
L85.8148 167.0186
" />
<path d="M85.8148 167.0186
L85.7672 166.9233
" />
<path d="M85.7672 166.9233
L85.7196 166.8757
" />
<path d="M85.7196 166.8757
L85.6243 166.8281
" />
<path d="M85.6243 166.8281
L85.4339 166.8281
" />
<path d="M85.4339 166.8281
L85.3386 166.8757
" />
<path d="M85.3386 166.8757
L85.2910 166.9233
" />
<path d="M85.2910 166.9233
L85.2434 167.0186
" />
</g><text x="76.9900" y="142.7500"
textLength="2.2500" font-size="1.3333" lengthAdjust="spacingAndGlyphs"
text-anchor="middle" opacity="0" stroke-opacity="0">U5</text>
<g class="stroked-text"><desc>U5</desc>
<path d="M76.2281 141.7048
L76.2281 142.5143
" />
<path d="M76.2281 142.5143
L76.2757 142.6096
" />
<path d="M76.2757 142.6096
L76.3233 142.6572
" />
<path d="M76.3233 142.6572
L76.4186 142.7048
" />
<path d="M76.4186 142.7048
L76.6090 142.7048
" />
<path d="M76.6090 142.7048
L76.7043 142.6572
" />
<path d="M76.7043 142.6572
L76.7519 142.6096
" />
<path d="M76.7519 142.6096
L76.7995 142.5143
" />
<path d="M76.7995 142.5143
L76.7995 141.7048
" />
<path d="M77.7519 141.7048
L77.2757 141.7048
" />
<path d="M77.2757 141.7048
L77.2281 142.1810
" />
<path d="M77.2281 142.1810
L77.2757 142.1334
" />
<path d="M77.2757 142.1334
L77.3710 142.0858
" />
<path d="M77.3710 142.0858
L77.6090 142.0858
" />
<path d="M77.6090 142.0858
L77.7043 142.1334
" />
<path d="M77.7043 142.1334
L77.7519 142.1810
" />
<path d="M77.7519 142.1810
L77.7995 142.2762
" />
<path d="M77.7995 142.2762
L77.7995 142.5143
" />
<path d="M77.7995 142.5143
L77.7519 142.6096
" />
<path d="M77.7519 142.6096
L77.7043 142.6572
" />
<path d="M77.7043 142.6572
L77.6090 142.7048
" />
<path d="M77.6090 142.7048
L77.3710 142.7048
" />
<path d="M77.3710 142.7048
L77.2757 142.6572
" />
<path d="M77.2757 142.6572
L77.2281 142.6096
" />
</g><g transform="rotate(-90.000000 85.4000 58.3500)">
<text x="85.4000" y="58.8500"
textLength="1.9643" font-size="1.3333" lengthAdjust="spacingAndGlyphs"
text-anchor="middle" opacity="0" stroke-opacity="0">J6</text>
</g>
<g class="stroked-text"><desc>J6</desc>
<path d="M84.8548 58.6833
L85.5691 58.6833
" />
<path d="M85.5691 58.6833
L85.7120 58.7310
" />
<path d="M85.7120 58.7310
L85.8072 58.8262
" />
<path d="M85.8072 58.8262
L85.8548 58.9690
" />
<path d="M85.8548 58.9690
L85.8548 59.0643
" />
<path d="M84.8548 57.7786
L84.8548 57.9690
" />
<path d="M84.8548 57.9690
L84.9024 58.0643
" />
<path d="M84.9024 58.0643
L84.9501 58.1119
" />
<path d="M84.9501 58.1119
L85.0929 58.2071
" />
<path d="M85.0929 58.2071
L85.2834 58.2548
" />
<path d="M85.2834 58.2548
L85.6643 58.2548
" />
<path d="M85.6643 58.2548
L85.7596 58.2071
" />
<path d="M85.7596 58.2071
L85.8072 58.1595
" />
<path d="M85.8072 58.1595
L85.8548 58.0643
" />
<path d="M85.8548 58.0643
L85.8548 57.8738
" />
<path d="M85.8548 57.8738
L85.8072 57.7786
" />
<path d="M85.8072 57.7786
L85.7596 57.7310
" />
<path d="M85.7596 57.7310
L85.6643 57.6833
" />
<path d="M85.6643 57.6833
L85.4262 57.6833
" />
<path d="M85.4262 57.6833
L85.3310 57.7310
" />
<path d="M85.3310 57.7310
L85.2834 57.7786
" />
<path d="M85.2834 57.7786
L85.2358 57.8738
" />
<path d="M85.2358 57.8738
L85.2358 58.0643
" />
<path d="M85.2358 58.0643
L85.2834 58.1595
" />
<path d="M85.2834 58.1595
L85.3310 58.2071
" />
<path d="M85.3310 58.2071
L85.4262 58.2548
" />
</g><text x="21.0500" y="116.5500"
textLength="1.9643" font-size="1.3333" lengthAdjust="spacingAndGlyphs"
text-anchor="middle" opacity="0" stroke-opacity="0">J2</text>
<g class="stroked-text"><desc>J2</desc>
<path d="M20.7167 115.5048
L20.7167 116.2191
" />
<path d="M20.7167 116.2191
L20.6690 116.3620
" />
<path d="M20.6690 116.3620
L20.5738 116.4572
" />
<path d="M20.5738 116.4572
L20.4310 116.5048
" />
<path d="M20.4310 116.5048
L20.3357 116.5048
" />
<path d="M21.1452 115.6001
L21.1929 115.5524
" />
<path d="M21.1929 115.5524
L21.2881 115.5048
" />
<path d="M21.2881 115.5048
L21.5262 115.5048
" />
<path d="M21.5262 115.5048
L21.6214 115.5524
" />
<path d="M21.6214 115.5524
L21.6690 115.6001
" />
<path d="M21.6690 115.6001
L21.7167 115.6953
" />
<path d="M21.7167 115.6953
L21.7167 115.7905
" />
<path d="M21.7167 115.7905
L21.6690 115.9334
" />
<path d="M21.6690 115.9334
L21.0976 116.5048
" />
<path d="M21.0976 116.5048
L21.7167 116.5048
" />
</g><g transform="rotate(-90.000000 84.8600 150.7100)">
<text x="84.8600" y="151.2100"
textLength="1.9643" font-size="1.3333" lengthAdjust="spacingAndGlyphs"
text-anchor="middle" opacity="0" stroke-opacity="0">J8</text>
</g>
<g class="stroked-text"><desc>J8</desc>
<path d="M84.3148 151.0433
L85.0291 151.0433
" />
<path d="M85.0291 151.0433
L85.1720 151.0910
" />
<path d="M85.1720 151.0910
L85.2672 151.1862
" />
<path d="M85.2672 151.1862
L85.3148 151.3290
" />
<path d="M85.3148 151.3290
L85.3148 151.4243
" />
<path d="M84.7434 150.4243
L84.6958 150.5195
" />
<path d="M84.6958 150.5195
L84.6482 150.5671
" />
<path d="M84.6482 150.5671
L84.5529 150.6148
" />
<path d="M84.5529 150.6148
L84.5053 150.6148
" />
<path d="M84.5053 150.6148
L84.4101 150.5671
" />
<path d="M84.4101 150.5671
L84.3624 150.5195
" />
<path d="M84.3624 150.5195
L84.3148 150.4243
" />
<path d="M84.3148 150.4243
L84.3148 150.2338
" />
<path d="M84.3148 150.2338
L84.3624 150.1386
" />
<path d="M84.3624 150.1386
L84.4101 150.0910
" />
<path d="M84.4101 150.0910
L84.5053 150.0433
" />
<path d="M84.5053 150.0433
L84.5529 150.0433
" />
<path d="M84.5529 150.0433
L84.6482 150.0910
" />
<path d="M84.6482 150.0910
L84.6958 150.1386
" />
<path d="M84.6958 150.1386
L84.7434 150.2338
" />
<path d="M84.7434 150.2338
L84.7434 150.4243
" />
<path d="M84.7434 150.4243
L84.7910 150.5195
" />
<path d="M84.7910 150.5195
L84.8386 150.5671
" />
<path d="M84.8386 150.5671
L84.9339 150.6148
" />
<path d="M84.9339 150.6148
L85.1243 150.6148
" />
<path d="M85.1243 150.6148
L85.2196 150.5671
" />
<path d="M85.2196 150.5671
L85.2672 150.5195
" />
<path d="M85.2672 150.5195
L85.3148 150.4243
" />
<path d="M85.3148 150.4243
L85.3148 150.2338
" />
<path d="M85.3148 150.2338
L85.2672 150.1386
" />
<path d="M85.2672 150.1386
L85.2196 150.0910
" />
<path d="M85.2196 150.0910
L85.1243 150.0433
" />
<path d="M85.1243 150.0433
L84.9339 150.0433
" />
<path d="M84.9339 150.0433
L84.8386 150.0910
" />
<path d="M84.8386 150.0910
L84.7910 150.1386
" />
<path d="M84.7910 150.1386
L84.7434 150.2338
" />
</g><text x="27.2800" y="164.4600"
textLength="2.2500" font-size="1.3333" lengthAdjust="spacingAndGlyphs"
text-anchor="middle" opacity="0" stroke-opacity="0">U1</text>
<g class="stroked-text"><desc>U1</desc>
<path d="M26.5181 163.4148
L26.5181 164.2243
" />
<path d="M26.5181 164.2243
L26.5657 164.3196
" />
<path d="M26.5657 164.3196
L26.6133 164.3672
" />
<path d="M26.6133 164.3672
L26.7086 164.4148
" />
<path d="M26.7086 164.4148
L26.8990 164.4148
" />
<path d="M26.8990 164.4148
L26.9943 164.3672
" />
<path d="M26.9943 164.3672
L27.0419 164.3196
" />
<path d="M27.0419 164.3196
L27.0895 164.2243
" />
<path d="M27.0895 164.2243
L27.0895 163.4148
" />
<path d="M28.0895 164.4148
L27.5181 164.4148
" />
<path d="M27.8038 164.4148
L27.8038 163.4148
" />
<path d="M27.8038 163.4148
L27.7086 163.5577
" />
<path d="M27.7086 163.5577
L27.6133 163.6529
" />
<path d="M27.6133 163.6529
L27.5181 163.7005
" />
</g><text x="64.3000" y="18.8300"
textLength="1.9643" font-size="1.3333" lengthAdjust="spacingAndGlyphs"
text-anchor="middle" opacity="0" stroke-opacity="0">J3</text>
<g class="stroked-text"><desc>J3</desc>
<path d="M63.9667 17.7848
L63.9667 18.4991
" />
<path d="M63.9667 18.4991
L63.9190 18.6420
" />
<path d="M63.9190 18.6420
L63.8238 18.7372
" />
<path d="M63.8238 18.7372
L63.6810 18.7848
" />
<path d="M63.6810 18.7848
L63.5857 18.7848
" />
<path d="M64.3476 17.7848
L64.9667 17.7848
" />
<path d="M64.9667 17.7848
L64.6333 18.1658
" />
<path d="M64.6333 18.1658
L64.7762 18.1658
" />
<path d="M64.7762 18.1658
L64.8714 18.2134
" />
<path d="M64.8714 18.2134
L64.9190 18.2610
" />
<path d="M64.9190 18.2610
L64.9667 18.3562
" />
<path d="M64.9667 18.3562
L64.9667 18.5943
" />
<path d="M64.9667 18.5943
L64.9190 18.6896
" />
<path d="M64.9190 18.6896
L64.8714 18.7372
" />
<path d="M64.8714 18.7372
L64.7762 18.7848
" />
<path d="M64.7762 18.7848
L64.4905 18.7848
" />
<path d="M64.4905 18.7848
L64.3952 18.7372
" />
<path d="M64.3952 18.7372
L64.3476 18.6896
" />
</g><text x="53.3050" y="26.1300"
textLength="2.2024" font-size="1.3333" lengthAdjust="spacingAndGlyphs"
text-anchor="middle" opacity="0" stroke-opacity="0">R3</text>
<g class="stroked-text"><desc>R3</desc>
<path d="M53.1383 26.0848
L52.8050 25.6086
" />
<path d="M52.5669 26.0848
L52.5669 25.0848
" />
<path d="M52.5669 25.0848
L52.9479 25.0848
" />
<path d="M52.9479 25.0848
L53.0431 25.1324
" />
<path d="M53.0431 25.1324
L53.0907 25.1801
" />
<path d="M53.0907 25.1801
L53.1383 25.2753
" />
<path d="M53.1383 25.2753
L53.1383 25.4182
" />
<path d="M53.1383 25.4182
L53.0907 25.5134
" />
<path d="M53.0907 25.5134
L53.0431 25.5610
" />
<path d="M53.0431 25.5610
L52.9479 25.6086
" />
<path d="M52.9479 25.6086
L52.5669 25.6086
" />
<path d="M53.4717 25.0848
L54.0907 25.0848
" />
<path d="M54.0907 25.0848
L53.7574 25.4658
" />
<path d="M53.7574 25.4658
L53.9002 25.4658
" />
<path d="M53.9002 25.4658
L53.9955 25.5134
" />
<path d="M53.9955 25.5134
L54.0431 25.5610
" />
<path d="M54.0431 25.5610
L54.0907 25.6562
" />
<path d="M54.0907 25.6562
L54.0907 25.8943
" />
<path d="M54.0907 25.8943
L54.0431 25.9896
" />
<path d="M54.0431 25.9896
L53.9955 26.0372
" />
<path d="M53.9955 26.0372
L53.9002 26.0848
" />
<path d="M53.9002 26.0848
L53.6145 26.0848
" />
<path d="M53.6145 26.0848
L53.5193 26.0372
" />
<path d="M53.5193 26.0372
L53.4717 25.9896
" />
</g><text x="55.3500" y="26.1300"
textLength="2.2024" font-size="1.3333" lengthAdjust="spacingAndGlyphs"
text-anchor="middle" opacity="0" stroke-opacity="0">C1</text>
<g class="stroked-text"><desc>C1</desc>
<path d="M55.1833 25.9896
L55.1357 26.0372
" />
<path d="M55.1357 26.0372
L54.9929 26.0848
" />
<path d="M54.9929 26.0848
L54.8976 26.0848
" />
<path d="M54.8976 26.0848
L54.7548 26.0372
" />
<path d="M54.7548 26.0372
L54.6595 25.9420
" />
<path d="M54.6595 25.9420
L54.6119 25.8467
" />
<path d="M54.6119 25.8467
L54.5643 25.6562
" />
<path d="M54.5643 25.6562
L54.5643 25.5134
" />
<path d="M54.5643 25.5134
L54.6119 25.3229
" />
<path d="M54.6119 25.3229
L54.6595 25.2277
" />
<path d="M54.6595 25.2277
L54.7548 25.1324
" />
<path d="M54.7548 25.1324
L54.8976 25.0848
" />
<path d="M54.8976 25.0848
L54.9929 25.0848
" />
<path d="M54.9929 25.0848
L55.1357 25.1324
" />
<path d="M55.1357 25.1324
L55.1833 25.1801
" />
<path d="M56.1357 26.0848
L55.5643 26.0848
" />
<path d="M55.8500 26.0848
L55.8500 25.0848
" />
<path d="M55.8500 25.0848
L55.7548 25.2277
" />
<path d="M55.7548 25.2277
L55.6595 25.3229
" />
<path d="M55.6595 25.3229
L55.5643 25.3705
" />
</g><text x="59.4500" y="26.0800"
textLength="2.2024" font-size="1.3333" lengthAdjust="spacingAndGlyphs"
text-anchor="middle" opacity="0" stroke-opacity="0">R1</text>
<g class="stroked-text"><desc>R1</desc>
<path d="M59.2833 26.0348
L58.9500 25.5586
" />
<path d="M58.7119 26.0348
L58.7119 25.0348
" />
<path d="M58.7119 25.0348
L59.0929 25.0348
" />
<path d="M59.0929 25.0348
L59.1881 25.0824
" />
<path d="M59.1881 25.0824
L59.2357 25.1301
" />
<path d="M59.2357 25.1301
L59.2833 25.2253
" />
<path d="M59.2833 25.2253
L59.2833 25.3682
" />
<path d="M59.2833 25.3682
L59.2357 25.4634
" />
<path d="M59.2357 25.4634
L59.1881 25.5110
" />
<path d="M59.1881 25.5110
L59.0929 25.5586
" />
<path d="M59.0929 25.5586
L58.7119 25.5586
" />
<path d="M60.2357 26.0348
L59.6643 26.0348
" />
<path d="M59.9500 26.0348
L59.9500 25.0348
" />
<path d="M59.9500 25.0348
L59.8548 25.1777
" />
<path d="M59.8548 25.1777
L59.7595 25.2729
" />
<path d="M59.7595 25.2729
L59.6643 25.3205
" />
</g><text x="57.5500" y="26.0800"
textLength="2.2024" font-size="1.3333" lengthAdjust="spacingAndGlyphs"
text-anchor="middle" opacity="0" stroke-opacity="0">R2</text>
<g class="stroked-text"><desc>R2</desc>
<path d="M57.3833 26.0348
L57.0500 25.5586
" />
<path d="M56.8119 26.0348
L56.8119 25.0348
" />
<path d="M56.8119 25.0348
L57.1929 25.0348
" />
<path d="M57.1929 25.0348
L57.2881 25.0824
" />
<path d="M57.2881 25.0824
L57.3357 25.1301
" />
<path d="M57.3357 25.1301
L57.3833 25.2253
" />
<path d="M57.3833 25.2253
L57.3833 25.3682
" />
<path d="M57.3833 25.3682
L57.3357 25.4634
" />
<path d="M57.3357 25.4634
L57.2881 25.5110
" />
<path d="M57.2881 25.5110
L57.1929 25.5586
" />
<path d="M57.1929 25.5586
L56.8119 25.5586
" />
<path d="M57.7643 25.1301
L57.8119 25.0824
" />
<path d="M57.8119 25.0824
L57.9071 25.0348
" />
<path d="M57.9071 25.0348
L58.1452 25.0348
" />
<path d="M58.1452 25.0348
L58.2405 25.0824
" />
<path d="M58.2405 25.0824
L58.2881 25.1301
" />
<path d="M58.2881 25.1301
L58.3357 25.2253
" />
<path d="M58.3357 25.2253
L58.3357 25.3205
" />
<path d="M58.3357 25.3205
L58.2881 25.4634
" />
<path d="M58.2881 25.4634
L57.7167 26.0348
" />
<path d="M57.7167 26.0348
L58.3357 26.0348
" />
</g><g transform="rotate(-180.000000 55.6500 27.1150)">
<text x="55.6500" y="27.6150"
textLength="1.9643" font-size="1.3333" lengthAdjust="spacingAndGlyphs"
text-anchor="middle" opacity="0" stroke-opacity="0">J1</text>
</g>
<g class="stroked-text"><desc>J1</desc>
<path d="M55.9833 27.6602
L55.9833 26.9459
" />
<path d="M55.9833 26.9459
L56.0310 26.8030
" />
<path d="M56.0310 26.8030
L56.1262 26.7078
" />
<path d="M56.1262 26.7078
L56.2690 26.6602
" />
<path d="M56.2690 26.6602
L56.3643 26.6602
" />
<path d="M54.9833 26.6602
L55.5548 26.6602
" />
<path d="M55.2690 26.6602
L55.2690 27.6602
" />
<path d="M55.2690 27.6602
L55.3643 27.5173
" />
<path d="M55.3643 27.5173
L55.4595 27.4221
" />
<path d="M55.4595 27.4221
L55.5548 27.3745
" />
</g></g>
<g style="fill:none; 
stroke:#000000; stroke-width:0.1200; stroke-opacity:1; 
stroke-linecap:round; stroke-linejoin:round;">
<path d="M80.3900 142.8275
L80.8650 142.8275
" />
<path d="M80.3900 143.3025
L80.3900 142.8275
" />
<path d="M80.3900 146.0475
L80.3900 145.5725
" />
<path d="M80.8650 146.0475
L80.3900 146.0475
" />
<path d="M83.1350 142.8275
L83.6100 142.8275
" />
<path d="M83.6100 142.8275
L83.6100 143.3025
" />
<path d="M83.6100 145.5725
L83.6100 146.0475
" />
<path d="M83.6100 146.0475
L83.1350 146.0475
" />
<path style="fill:#000000; fill-opacity:1.0000; 
stroke:#000000; stroke-width:0.1200; stroke-opacity:1; 
stroke-linecap:round; stroke-linejoin:round;fill-rule:evenodd;"
d="M 82.7500,142.2975
82.5100,141.9675
82.9900,141.9675
Z" /> 
</g>
<g style="fill:none; 
stroke:#000000; stroke-width:0.1000; stroke-opacity:1; 
stroke-linecap:round; stroke-linejoin:round;">
<circle cx="80.7850" cy="155.5500" r="0.0500" /> 
</g>
<g style="fill:none; 
stroke:#000000; stroke-width:0.1200; stroke-opacity:1; 
stroke-linecap:round; stroke-linejoin:round;">
<path d="M92.9000 182.8000
L92.9000 168.5000
" />
<path d="M92.9000 168.5000
L91.1600 168.5000
" />
<path d="M91.1600 182.8000
L92.9000 182.8000
" />
<path d="M87.1000 182.8000
L88.4400 182.8000
" />
<path d="M87.1000 181.3100
L87.1000 182.8000
" />
<path d="M87.1000 181.3100
L85.9000 181.3100
" />
<path d="M87.1000 169.9900
L87.1000 168.5000
" />
<path d="M87.1000 168.5000
L88.4400 168.5000
" />
<path d="M91.6000 165.6500
L90.2600 165.6500
" />
<path d="M91.6000 164.1600
L91.6000 165.6500
" />
<path d="M91.6000 152.8400
L92.8000 152.8400
" />
<path d="M91.6000 152.8400
L91.6000 151.3500
" />
<path d="M91.6000 151.3500
L90.2600 151.3500
" />
<path d="M87.5400 151.3500
L85.8000 151.3500
" />
<path d="M85.8000 165.6500
L87.5400 165.6500
" />
<path d="M85.8000 151.3500
L85.8000 165.6500
" />
<path d="M77.0800 158.5150
L77.0800 158.2900
" />
<path d="M77.0800 162.3500
L77.0800 161.8250
" />
<path d="M77.0800 162.3500
L77.6050 162.3500
" />
<path d="M77.6050 158.0500
L77.3800 158.0500
" />
<path d="M81.3800 158.0500
L80.8550 158.0500
" />
<path d="M81.3800 158.0500
L81.3800 158.5750
" />
<path d="M81.3800 162.3500
L80.8550 162.3500
" />
<path d="M81.3800 162.3500
L81.3800 161.8250
" />
<path style="fill:#000000; fill-opacity:1.0000; 
stroke:#000000; stroke-width:0.1200; stroke-opacity:1; 
stroke-linecap:round; stroke-linejoin:round;fill-rule:evenodd;"
d="M 77.0800,158.0500
76.8400,157.7200
77.3200,157.7200
Z" /> 
</g>
<g style="fill:none; 
stroke:#000000; stroke-width:0.1200; stroke-opacity:1; 
stroke-linecap:round; stroke-linejoin:round;">
<path d="M84.6600 164.9936
L84.6600 164.6864
" />
<path d="M83.9000 164.9936
L83.9000 164.6864
" />
<path d="M77.2136 169.7000
L76.9064 169.7000
" />
<path d="M77.2136 168.9400
L76.9064 168.9400
" />
<path d="M82.6250 165.8413
L82.6250 165.3187
" />
<path d="M81.1550 165.8413
L81.1550 165.3187
" />
<path style="fill:#000000; fill-opacity:1.0000; 
stroke:#000000; stroke-width:0.1200; stroke-opacity:1; 
stroke-linecap:round; stroke-linejoin:round;fill-rule:evenodd;"
d="M 78.7900,165.2000
78.4600,164.9600
78.7900,164.7200
Z" /> 
</g>
<g style="fill:none; 
stroke:#000000; stroke-width:0.1200; stroke-opacity:1; 
stroke-linecap:round; stroke-linejoin:round;">
<path d="M78.5100 167.3200
L78.4600 167.3200
" />
<path d="M78.5100 165.5000
L78.5100 167.3200
" />
<path d="M78.4600 165.5000
L78.5100 165.5000
" />
<path d="M77.3400 167.3200
L76.5600 167.3200
" />
<path d="M75.4400 167.3200
L75.3900 167.3200
" />
<path d="M75.3900 167.3200
L75.3900 165.5000
" />
<path d="M75.3900 165.5000
L75.4400 165.5000
" />
<path d="M84.5700 167.9364
L84.5700 168.2436
" />
<path d="M83.8100 167.9364
L83.8100 168.2436
" />
<path d="M77.9000 143.0900
L77.9000 143.1400
" />
<path d="M76.0800 143.0900
L77.9000 143.0900
" />
<path d="M76.0800 143.1400
L76.0800 143.0900
" />
<path d="M77.9000 146.1600
L77.9000 146.2100
" />
<path d="M77.9000 146.2100
L76.0800 146.2100
" />
<path d="M76.0800 146.2100
L76.0800 146.1600
" />
<path style="fill:#000000; fill-opacity:1.0000; 
stroke:#000000; stroke-width:0.1200; stroke-opacity:1; 
stroke-linecap:round; stroke-linejoin:round;fill-rule:evenodd;"
d="M 75.5400,143.1400
75.3000,142.8100
75.7800,142.8100
Z" /> 
</g>
<g style="fill:none; 
stroke:#000000; stroke-width:0.1200; stroke-opacity:1; 
stroke-linecap:round; stroke-linejoin:round;">
<path d="M86.1650 60.4600
L86.1650 59.7250
" />
<path d="M86.2900 58.3650
L91.5100 58.3650
" />
<path d="M86.2900 58.9900
L86.2900 58.3650
" />
<path d="M86.9000 60.4600
L86.1650 60.4600
" />
<path d="M87.4000 58.9900
L87.4000 58.3650
" />
<path d="M87.6400 56.3650
L88.1600 56.3650
" />
<path d="M87.6400 58.3650
L87.6400 56.3650
" />
<path d="M88.1600 56.3650
L88.1600 58.3650
" />
<path d="M88.4000 59.1863
L88.4000 58.3650
" />
<path d="M88.6400 56.3650
L89.1600 56.3650
" />
<path d="M88.6400 58.3650
L88.6400 56.3650
" />
<path d="M89.1600 56.3650
L89.1600 58.3650
" />
<path d="M89.4000 59.1863
L89.4000 58.3650
" />
<path d="M89.6400 56.3650
L90.1600 56.3650
" />
<path d="M89.6400 58.3650
L89.6400 56.3650
" />
<path d="M90.1600 56.3650
L90.1600 58.3650
" />
<path d="M90.4000 59.1863
L90.4000 58.3650
" />
<path d="M90.6400 56.3650
L91.1600 56.3650
" />
<path d="M90.6400 58.3650
L90.6400 56.3650
" />
<path d="M91.1600 56.3650
L91.1600 58.3650
" />
<path d="M91.5100 58.3650
L91.5100 59.3150
" />
<path style="fill:#000000; fill-opacity:1.0000; 
stroke:#000000; stroke-width:0.1200; stroke-opacity:1; 
stroke-linecap:round; stroke-linejoin:round;fill-rule:evenodd;"
d="M 86.6400,58.3650
87.1600,58.3650
87.1600,56.3650
86.6400,56.3650
Z" /> 
</g>
<g style="fill:none; 
stroke:#000000; stroke-width:0.1200; stroke-opacity:1; 
stroke-linecap:round; stroke-linejoin:round;">
<path d="M18.9400 116.8150
L19.6750 116.8150
" />
<path d="M18.9400 117.5500
L18.9400 116.8150
" />
<path d="M20.4100 116.9400
L21.0350 116.9400
" />
<path d="M20.4100 118.0500
L21.0350 118.0500
" />
<path d="M21.0350 116.9400
L21.0350 119.1600
" />
<path d="M21.0350 118.2900
L23.0350 118.2900
" />
<path d="M21.0350 119.1600
L20.0850 119.1600
" />
<path d="M23.0350 118.2900
L23.0350 118.8100
" />
<path d="M23.0350 118.8100
L21.0350 118.8100
" />
<path style="fill:#000000; fill-opacity:1.0000; 
stroke:#000000; stroke-width:0.1200; stroke-opacity:1; 
stroke-linecap:round; stroke-linejoin:round;fill-rule:evenodd;"
d="M 21.0350,117.2900
23.0350,117.2900
23.0350,117.8100
21.0350,117.8100
Z" /> 
</g>
<g style="fill:none; 
stroke:#000000; stroke-width:0.1200; stroke-opacity:1; 
stroke-linecap:round; stroke-linejoin:round;">
<path d="M75.9500 147.6500
L75.9500 153.7700
" />
<path d="M75.9500 150.2100
L80.3100 150.2100
" />
<path d="M75.9500 153.7700
L83.7700 153.7700
" />
<path d="M78.2100 148.4100
L78.2100 149.4100
" />
<path d="M78.2100 148.9100
L75.9500 148.9100
" />
<path d="M78.2100 149.4100
L75.9500 149.4100
" />
<path d="M78.2100 149.4100
L79.8100 149.4100
" />
<path d="M78.2100 152.0100
L79.8100 152.0100
" />
<path d="M78.2100 153.0100
L78.2100 152.0100
" />
<path d="M79.8100 148.4100
L78.2100 148.4100
" />
<path d="M79.8100 149.4100
L79.8100 148.4100
" />
<path d="M79.8100 152.0100
L79.8100 153.0100
" />
<path d="M79.8100 153.0100
L78.2100 153.0100
" />
<path d="M80.3100 150.2100
L80.3100 151.2100
" />
<path d="M80.3100 151.2100
L75.9500 151.2100
" />
<path d="M82.1700 147.6500
L82.1700 148.5700
" />
<path d="M82.1700 148.5700
L83.7700 148.5700
" />
<path d="M82.1700 148.8500
L82.1700 148.5700
" />
<path d="M82.1700 148.8500
L83.3850 148.8500
" />
<path d="M82.1700 152.8500
L82.1700 152.5700
" />
<path d="M82.1700 153.7700
L82.1700 152.8500
" />
<path d="M83.7700 147.6500
L75.9500 147.6500
" />
<path d="M83.7700 148.5700
L83.7700 147.6500
" />
<path d="M83.7700 152.8500
L82.1700 152.8500
" />
<path d="M83.7700 153.7700
L83.7700 152.8500
" />
<path d="M18.7000 145.5800
L18.7000 178.5800
" />
<path d="M22.2000 182.0800
L70.2000 182.0800
" />
<path d="M32.3000 143.2300
L32.3000 147.0100
" />
<path d="M32.3000 143.2300
L33.3000 143.2300
" />
<path d="M32.3000 147.0100
L33.3000 147.0100
" />
<path d="M32.3000 177.1500
L32.3000 180.9300
" />
<path d="M32.3000 177.1500
L33.3000 177.1500
" />
<path d="M32.3000 180.9300
L33.3000 180.9300
" />
<path d="M55.1000 143.2300
L55.1000 147.0100
" />
<path d="M55.1000 177.1500
L54.1000 177.1500
" />
<path d="M55.1000 177.1500
L55.1000 180.9300
" />
<path d="M55.1000 180.9300
L54.1000 180.9300
" />
<path d="M70.2000 142.0800
L22.2000 142.0800
" />
<path d="M73.7000 178.5800
L73.7000 145.5800
" />
<path d="M22.2000 142.0800 A3.5000 3.5000 0.0 0 0 18.7000 145.5800" />
<path d="M18.7000 178.5800 A3.5000 3.5000 0.0 0 0 22.2000 182.0800" />
<path d="M73.7000 145.5800 A3.5000 3.5000 0.0 0 0 70.2000 142.0800" />
<path d="M70.2000 182.0800 A3.5000 3.5000 0.0 0 0 73.7000 178.5800" />
<path d="M62.1900 19.0950
L62.9250 19.0950
" />
<path d="M62.1900 19.8300
L62.1900 19.0950
" />
<path d="M63.4637 21.3300
L64.2850 21.3300
" />
<path d="M63.4637 22.3300
L64.2850 22.3300
" />
<path d="M63.4637 23.3300
L64.2850 23.3300
" />
<path d="M63.6600 19.2200
L64.2850 19.2200
" />
<path d="M63.6600 20.3300
L64.2850 20.3300
" />
<path d="M64.2850 19.2200
L64.2850 24.4400
" />
<path d="M64.2850 20.5700
L66.2850 20.5700
" />
<path d="M64.2850 21.5700
L66.2850 21.5700
" />
<path d="M64.2850 22.5700
L66.2850 22.5700
" />
<path d="M64.2850 23.5700
L66.2850 23.5700
" />
<path d="M64.2850 24.4400
L63.3350 24.4400
" />
<path d="M66.2850 20.5700
L66.2850 21.0900
" />
<path d="M66.2850 21.0900
L64.2850 21.0900
" />
<path d="M66.2850 21.5700
L66.2850 22.0900
" />
<path d="M66.2850 22.0900
L64.2850 22.0900
" />
<path d="M66.2850 22.5700
L66.2850 23.0900
" />
<path d="M66.2850 23.0900
L64.2850 23.0900
" />
<path d="M66.2850 23.5700
L66.2850 24.0900
" />
<path d="M66.2850 24.0900
L64.2850 24.0900
" />
<path style="fill:#000000; fill-opacity:1.0000; 
stroke:#000000; stroke-width:0.1200; stroke-opacity:1; 
stroke-linecap:round; stroke-linejoin:round;fill-rule:evenodd;"
d="M 64.2850,19.5700
66.2850,19.5700
66.2850,20.0900
64.2850,20.0900
Z" /> 
</g>
<g style="fill:none; 
stroke:#000000; stroke-width:0.1200; stroke-opacity:1; 
stroke-linecap:round; stroke-linejoin:round;">
<path d="M50.9000 17.5750
L50.9000 17.8000
" />
<path d="M50.9000 20.6750
L50.9000 23.4000
" />
<path d="M58.7750 26.0750
L58.5500 26.0750
" />
<path d="M60.4000 17.5650
L60.4000 17.7750
" />
<path d="M60.4000 23.4250
L60.4000 20.7250
" />
<path d="M60.4000 25.9250
L50.9000 25.9250
" />
</g> 
</svg>
